<svg xmlns="http://www.w3.org/2000/svg" width="571.999" height="429.477" viewBox="0 0 571.999 429.477">
  <g id="Group_1" data-name="Group 1" transform="translate(0 0)">
    <path id="Path_113" data-name="Path 113" d="M562.977,709.2q23.308-3.04,44.82-5.169l-5.517-9.249c1.917-.534,10.22,4.82,10.22,4.82l-7.012-26.748c9.583,1.076,14.039,28.357,14.039,28.357l10.867-9.086-5.353,10.292c43.885-3.833,81.752-5.015,113.583-4.719l-4.722-7.916c1.917-.534,10.22,4.82,10.22,4.82l-7.012-26.748c9.583,1.076,14.039,28.357,14.039,28.357l10.867-9.086-5.67,10.9c26.677.743,48.414,2.509,65.183,4.434-4.709-12.3-21.172-24.137-21.172-24.137,12.662,3.306,19.247,8.683,22.654,13.666a182.721,182.721,0,0,0-13.672-74.37s25.528,48.155,21.675,80.245l-.49,5.7c22.233,2.917,33.388,5.819,33.388,5.819Z" transform="translate(-298.699 -304.536)" fill="#3f3d56"/>
    <ellipse id="Ellipse_287" data-name="Ellipse 287" cx="286" cy="22.244" rx="286" ry="22.244" transform="translate(0 384.988)" fill="#3f3d56"/>
    <path id="Path_114" data-name="Path 114" d="M604.856,171.473s6.356,15.094-7.944,22.244,38.133,20.656,43.694,3.178c0,0-14.3-5.561-7.944-22.244Z" transform="translate(-311.707 -120.151)" fill="#ffb9b9"/>
    <path id="Path_115" data-name="Path 115" d="M528.2,618.937,527.4,635.62,540.907,638V621.32Z" transform="translate(-217.966 -255.796)" fill="#ffb9b9"/>
    <path id="Path_116" data-name="Path 116" d="M433.143,618.937l.794,16.683L420.432,638V621.32Z" transform="translate(-173.757 -255.796)" fill="#ffb9b9"/>
    <circle id="Ellipse_288" data-name="Ellipse 288" cx="22.244" cy="22.244" r="22.244" transform="translate(286.397 15.969)" fill="#ffb9b9"/>
    <path id="Path_117" data-name="Path 117" d="M578.3,340l-.795,6.355,3.973,15.094,5.561-13.505Z" transform="translate(-238.671 -140.517)" fill="#ffb9b9"/>
    <path id="Path_118" data-name="Path 118" d="M533.324,426.386l-4.767,56.405S523,493.12,526.174,501.859c0,0-4.767,11.917-3.178,15.889s2.383,7.944.794,9.533-2.383,46.078,0,50.05,3.972,13.506,3.972,13.506,13.505,3.178,16.683-5.561,1.589-9.533,4.767-11.917,3.178-35.75,3.178-35.75-3.972-3.972-1.589-5.561,3.972,0,1.589-3.972-6.356-3.972-2.383-5.561a37.886,37.886,0,0,0,6.356-3.178L579.4,458.959s8.739,67.528,10.328,70.705,3.972-.794,1.589,3.178-3.178,1.589-2.383,3.972-4.767,36.544-1.589,43.694a107.673,107.673,0,0,1,4.767,12.711s12.711,5.561,14.3,1.589.794-11.122,3.178-11.917,4.767-2.383,4.767-8.739,4.767-37.339,4.767-37.339-5.561-2.383-3.972-6.356,1.589-3.178.794-6.356-2.383-3.972-.794-6.356,1.589-9.533,1.589-9.533l9.533-62.761L618.912,424Z" transform="translate(-281.883 -224.517)" fill="#2f2e41"/>
    <path id="Path_119" data-name="Path 119" d="M639.854,722.866s-2.383-2.383-3.178,0-.794,24.628-.794,24.628,6.356,4.767,6.356,7.15,4.767,10.328,15.889,8.739l.33-.05a10.518,10.518,0,0,0,7.821-14.888l-11.328-23.99S647,716.51,639.854,722.866Z" transform="translate(-328.83 -347.014)" fill="#2f2e41"/>
    <path id="Path_120" data-name="Path 120" d="M533.959,722.866s2.383-2.383,3.178,0,.794,24.628.794,24.628-6.356,4.767-6.356,7.15-4.767,10.328-15.889,8.739l-.33-.05a10.518,10.518,0,0,1-7.821-14.888l11.329-23.99S526.809,716.51,533.959,722.866Z" transform="translate(-275.367 -347.014)" fill="#2f2e41"/>
    <path id="Path_121" data-name="Path 121" d="M604.268,98.119l-3.974-1.591s8.31-9.149,19.872-8.353l-3.252-3.58s7.949-3.182,15.175,5.171c3.8,4.391,8.194,9.553,10.934,15.367h4.256l-1.776,3.911,6.217,3.911-6.382-.7a21.644,21.644,0,0,1-.6,10.13l.171,3.092s-7.4-11.445-7.4-13.036v3.978s-3.974-3.58-3.974-5.967l-2.168,2.784-1.084-4.376-13.368,4.376,2.168-3.58-8.31,1.193,3.252-4.376s-9.394,5.171-9.755,9.547-5.058,9.944-5.058,9.944l-2.168-3.978S593.791,104.086,604.268,98.119Z" transform="translate(-312.581 -84)" fill="#2f2e41"/>
    <path id="Path_122" data-name="Path 122" d="M692.652,233.082H701.5a2.864,2.864,0,0,1,2.8,2.234c1.366,6.048,4.885,23.192,4.243,36.693-.794,16.683.794,28.6,0,30.983s0,3.178,0,5.561,2.383.794,0,3.972-2.383,2.383-2.383,4.767-7.944,38.928-7.944,38.928-5.462-8.977-11.47-7.269l1.142-32.453,1.589-13.506-2.383-23.833Z" transform="translate(-349.85 -145.613)" fill="#3f3d56"/>
    <path id="Path_123" data-name="Path 123" d="M593.035,214.495s-13.506-.491-17.875-6.2c0,0-28.2,9.382-31.38,17.326S554.9,269.312,554.9,269.312,530.274,342.4,542.19,342.4s38.928,9.533,54.817,3.972a204.2,204.2,0,0,1,30.189-7.944s1.589-21.45,0-25.422-5.561-1.589-3.178-7.15,1.589-6.356.794-8.739,1.589-5.561,1.589-8.739-.794-10.328-.794-10.328,21.45-50.05,16.683-54.817-29.03-13.951-29.03-13.951S606.54,217.673,593.035,214.495Z" transform="translate(-288.763 -135.367)" fill="#3f3d56"/>
    <circle id="Ellipse_289" data-name="Ellipse 289" cx="17.478" cy="17.478" r="17.478" transform="translate(465.544 286.477)" fill="#ebac4e"/>
    <ellipse id="Ellipse_290" data-name="Ellipse 290" cx="3.972" cy="8.739" rx="3.972" ry="8.739" transform="translate(467.133 295.216)" fill="#fff"/>
    <circle id="Ellipse_291" data-name="Ellipse 291" cx="17.478" cy="17.478" r="17.478" transform="translate(409.138 174.461)" fill="#ebac4e"/>
    <ellipse id="Ellipse_292" data-name="Ellipse 292" cx="8.739" cy="3.972" rx="8.739" ry="3.972" transform="matrix(0.81, -0.587, 0.587, 0.81, 410.216, 184.199)" fill="#fff"/>
    <circle id="Ellipse_293" data-name="Ellipse 293" cx="10.892" cy="10.892" r="10.892" transform="translate(460.213 84.919)" fill="#ebac4e"/>
    <ellipse id="Ellipse_294" data-name="Ellipse 294" cx="5.446" cy="2.475" rx="5.446" ry="2.475" transform="matrix(0.81, -0.587, 0.587, 0.81, 460.884, 90.989)" fill="#fff"/>
    <circle id="Ellipse_295" data-name="Ellipse 295" cx="10.892" cy="10.892" r="10.892" transform="translate(378.385 365.357)" fill="#ebac4e"/>
    <ellipse id="Ellipse_296" data-name="Ellipse 296" cx="5.446" cy="2.475" rx="5.446" ry="2.475" transform="matrix(0.81, -0.587, 0.587, 0.81, 379.055, 371.426)" fill="#fff"/>
    <circle id="Ellipse_297" data-name="Ellipse 297" cx="17.478" cy="17.478" r="17.478" transform="translate(463.955 207.033)" fill="#ebac4e"/>
    <ellipse id="Ellipse_298" data-name="Ellipse 298" cx="3.972" cy="8.739" rx="3.972" ry="8.739" transform="translate(465.544 215.772)" fill="#fff"/>
    <circle id="Ellipse_299" data-name="Ellipse 299" cx="17.478" cy="17.478" r="17.478" transform="translate(407.55 95.016)" fill="#ebac4e"/>
    <ellipse id="Ellipse_300" data-name="Ellipse 300" cx="8.739" cy="3.972" rx="8.739" ry="3.972" transform="matrix(0.81, -0.587, 0.587, 0.81, 408.628, 104.755)" fill="#fff"/>
    <circle id="Ellipse_301" data-name="Ellipse 301" cx="10.892" cy="10.892" r="10.892" transform="translate(458.624 5.474)" fill="#ebac4e"/>
    <ellipse id="Ellipse_302" data-name="Ellipse 302" cx="5.446" cy="2.475" rx="5.446" ry="2.475" transform="matrix(0.81, -0.587, 0.587, 0.81, 459.296, 11.544)" fill="#fff"/>
    <circle id="Ellipse_303" data-name="Ellipse 303" cx="10.892" cy="10.892" r="10.892" transform="translate(376.796 285.913)" fill="#ebac4e"/>
    <ellipse id="Ellipse_304" data-name="Ellipse 304" cx="5.446" cy="2.475" rx="5.446" ry="2.475" transform="matrix(0.81, -0.587, 0.587, 0.81, 377.467, 291.982)" fill="#fff"/>
    <rect id="Rectangle_15" data-name="Rectangle 15" width="220.061" height="133.569" transform="translate(39.722 225.254)" fill="#f2f2f2"/>
    <path id="Path_124" data-name="Path 124" d="M523.352,437.544s-7.15,37.339,4.767,34.161,6.356-34.161,6.356-34.161Z" transform="translate(-281.444 -230.113)" fill="#ffb9b9"/>
    <path id="Path_125" data-name="Path 125" d="M538.836,233.082l-2.821,1.411a7.957,7.957,0,0,0-4.262,5.651l-11.188,59.672s-3.178,7.15-3.178,7.944,1.589.794,0,3.178-3.972,1.589-2.383,3.178a4.921,4.921,0,0,1,1.589,3.178l1.589,38.928s13.506-3.972,17.478,0c0,0-3.972-11.917-1.589-15.889s2.383-9.533,2.383-9.533-1.589,0,2.383-3.972,4.767-5.561,3.972-6.356-1.589-7.944-1.589-8.739,7.944-54.022,7.944-54.022Z" transform="translate(-278.656 -145.613)" fill="#3f3d56"/>
    <circle id="Ellipse_305" data-name="Ellipse 305" cx="48.173" cy="48.173" r="48.173" transform="translate(104.317 240.581)" fill="#ebac4e"/>
    <path id="Path_126" data-name="Path 126" d="M381.33,585.065c-9.249,0-29.674-9.5-47.838-20.625-22.541-13.806-44.432-31.852-40.605-38.1,1.082-1.766,3.763-2.228,8.2-1.414l-.318,1.732c-3.435-.632-5.759-.411-6.379.6-.9,1.477,1.09,5.765,9.4,13.37,7.574,6.931,18.449,14.854,30.622,22.31s24.173,13.544,33.788,17.142c10.551,3.949,15.277,3.776,16.181,2.3.621-1.014-.242-3.187-2.368-5.963l1.4-1.07c2.745,3.585,3.554,6.186,2.471,7.953C385.139,584.514,383.559,585.065,381.33,585.065Z" transform="translate(-186.895 -266.066)" fill="#3f3d56"/>
    <circle id="Ellipse_306" data-name="Ellipse 306" cx="9.853" cy="9.853" r="9.853" transform="translate(136.69 254.139)" fill="#fff"/>
    <circle id="Ellipse_307" data-name="Ellipse 307" cx="6.569" cy="6.569" r="6.569" transform="translate(142.829 311.44)" fill="#fff"/>
    <circle id="Ellipse_308" data-name="Ellipse 308" cx="6.569" cy="6.569" r="6.569" transform="translate(165.449 288.92)" fill="#fff"/>
    <path id="Path_127" data-name="Path 127" d="M173.661,451.281a15.473,15.473,0,1,0-20.082,23.544l23.544,20.082,20.082-23.544a15.473,15.473,0,1,0-23.544-20.082Z" transform="translate(-127.258 -233.546)" fill="#f05454"/>
  </g>
</svg>
