<svg xmlns="http://www.w3.org/2000/svg" width="801.52" height="519.69" viewBox="0 0 801.52 519.69">
  <g id="Group_4" data-name="Group 4" transform="translate(0.001 -69.71)">
    <g id="Layer_2" data-name="Layer 2">
      <path id="Path_57" data-name="Path 57" d="M458.05,275.06a5.85,5.85,0,0,0,1,2.63A5.849,5.849,0,0,1,458.05,275.06Z" fill="none" stroke="#ebac4e" stroke-miterlimit="10" stroke-width="1"/>
      <path id="Path_58" data-name="Path 58" d="M474,288.44c-7.74-7.24-14.57-13.5-15.78-13.5C459.56,274.75,466.52,281.35,474,288.44Z" fill="none" stroke="#ebac4e" stroke-miterlimit="10" stroke-width="1"/>
      <path id="Path_59" data-name="Path 59" d="M539.39,370.88c-4.65-7-10.71-15.87-18.24-26q-1.92-2.6-4-5.31c.19.27.4.54.59.84a93,93,0,0,0-16.45-16.9q-2.115-1.665-4.1-3c-21.42-14.85-35.11-21.91-35.11-21.91-4-2.07-7.31-3.62-10.33-5.41a39.35,39.35,0,0,1-3.61-7.3c-2.27-6.07-1.75-9.42-5.24-14.68-2.84-4.26-4.87-4.61-9.46-9.22-.69-.69-1.3-1.35-1.86-2-.19-.21-.37-.41-.54-.62-4.87-5.71-4.9-9.07-8.56-12.83-9.7-10-28.85-6.28-35.6-5s-15.24,5.91-32.37,15.18c-20.19,10.91-24.09,14.83-26.9,18.43-5.8,7.45-3.27,8.9-10.7,18.92s-11.77,11.07-15.69,20.17a20.524,20.524,0,0,0-.91,2.57h0c-.05.17-.11.35-.17.54l-.24.86a.747.747,0,0,1-.09.33c-.07.23-.15.49-.22.76l-.55,1.92a1.92,1.92,0,0,1-.11.37c-.03.13-.15.52-.23.8l-.68,2.32c-.1.31-.19.64-.29,1-.23.76-.47,1.59-.74,2.49-1.29,4.29-2.44,8.08-3.4,11.15-1.38,1.75-2.9,3.68-4.58,5.78-3.57,4.51-6.76,8.49-9.38,11.77h0c-1.16-.85-6.35,4.35-7.1,5.11-4.81,4.83-5.58,8.37-9,11.95-4.42,4.69-5.95,4.93-13.61,11.62l-2.4,2.1A110.434,110.434,0,0,0,235,400.48a95,95,0,0,0-7,9.63,123,123,0,0,1-14.41,17.51c1.44-2.27,2.12-3.62,1.79-3.91-.67-.57-4.42,4.15-11.28,8.64-3.75,2.44-8,6.27-11.46,8.39.69-2.16,2.39-7,4.23-9.47,2.13-2.91,3.92-3.54,7.47-7,6.34-6.13,9.51-9.18,11.46-12.2,3.91-6.07,2.39-7.67,6.46-12.46a40.73,40.73,0,0,1,8.48-7.21c4.28-2.8,6.77-3.14,9.21-6.48,1.43-2,1.35-2.79,3-5.22,1.86-2.76,3.6-4.09,8.46-8,3.42-2.71,6.79-5.48,10.21-8.21l.91-.73c3.88-3.07,6-4.74,8.05-6.49,9.17-7.65,12.59-11.59,15.19-15.68,1.93-3.05,3.9-6.22,2.74-8a2.31,2.31,0,0,0-1.08-.85l-.13-.06c-1.17.1-2.34-.29-3.77-.1-3.51.5-3.74,3.81-9.71,10.21-3.61,3.88-4.78,4-7.47,7.73-1.84,2.53-1.9,3.3-3.48,5.47a30.289,30.289,0,0,1-8.47,7.72c-2.6,1.73-7.18,5.21-13.47,10.19l-1.22,1.52c-6,7.42-9.23,11-14.2,14.69a47.7,47.7,0,0,1-4.06,2.71c-.26.56-.57,1.14-.92,1.76s-.66,1.16-1,1.67c1.43-3.39,2.59-6.29,3.5-8.64,2.83-7.29,3.31-9.33,5.64-12.78,4-5.91,7-5.73,11.29-11.61,5.13-7.09,3.9-9,8.29-15.6,4.53-6.8,7.43-7.21,18.27-17.61,5.57-5.34,9.35-9.6,12.61-13.28,9.74-11,11.75-15.17,21.58-26.55,7.49-8.67,8.87-10.32,11-12,5.67-4.44,8.62-4.67,12.4-9.59a8.441,8.441,0,0,0,.85-1.47c1.07-3.22,1.37-6.42.19-7.28s-4.4.9-7.39,3.18c-1.21,1.66-2.59,3.49-4.14,5.46a63,63,0,0,1-6.27,7.29,28,28,0,0,1-9.78,5.75c3.41-6.27,5.4-9.9,6.66-12,4.22-6.91,12.17-20,26.4-29.89,12.6-8.77,14.9-3.26,33.37-12.95,17.78-9.32,20.58-16.75,30.37-15.93,4.68.38,10.65,4.75,22.42,13.45,8.36,6.19,14.54,11.4,20.41,16.42,14.71,12.59,19.37,17,26.9,23.41,17.32,14.82,20.68,15.54,32.36,25.41a183.239,183.239,0,0,1,20.6,20.87c-2.73-1.51-10.32-3-13.85-4.27-6.36-2.25-9-5-14.33-9.37a25.93,25.93,0,0,1-3.2-3.92c-3.76-5.76-3-9.29-8-13.61l-.42-.34c-5-4-7.58-4.12-12.53-7s-6.79-5.24-8.64-4.32A2.68,2.68,0,0,0,455,269c-.88,1.91.9,5.29,3.43,8.72.9,1.23,1.9,2.47,2.91,3.65h0c.14.22.3.44.46.68a4,4,0,0,1,.29.43,107.19,107.19,0,0,0,21.52,22.39l.42.31,1,.76c9.42,7,11.83,5.73,22.89,14.85,9.42,7.75,14.94,14.55,20.92,21.91s8.65,11.57,10,16.93a28.729,28.729,0,0,1,.78,5.05A31.526,31.526,0,0,1,539.39,370.88Z" fill="#fffffd" stroke="#ebac4e" stroke-miterlimit="10" stroke-width="1"/>
      <path id="Path_60" data-name="Path 60" d="M325,267.27l.13-.12a16.425,16.425,0,0,1-1,1.56c-3.78,4.92-6.73,5.15-12.4,9.59-2.09,1.64-3.47,3.29-11,12-9.83,11.38-11.84,15.58-21.58,26.55-3.26,3.68-7,7.93-12.61,13.28-10.84,10.4-13.74,10.81-18.27,17.61-4.39,6.6-3.16,8.51-8.29,15.6-4.27,5.88-7.31,5.7-11.29,11.61-2.33,3.45-2.81,5.49-5.65,12.78-.91,2.34-2.06,5.24-3.49,8.64-2.6,4-5.35,5.86-13.44,13.78-10.52,10.3-8.47,9.73-17.43,18.43-13.19,12.79-16.39,12.83-23.41,21.91-6,7.72-4.9,9.31-10.45,17.42-6.79,9.92-11.29,11.78-27.39,25.91-12.5,10.94-21.61,18.93-31.38,30.87-11.19,13.68-8.46,14.49-16.93,22.91C67,559.6,59.33,560,47.76,571.46a79.09,79.09,0,0,0-12.47,16H27.72c-8.6,0-17.18,0-25.77-.05A286.334,286.334,0,0,0,48.25,556c15.18-12.64,17.27-17.11,47.32-45.31,15.82-14.87,16.59-14.89,32.37-29.89,19.42-18.47,29.14-27.71,36.85-37.34,17.28-21.6,11.75-23.24,27.38-40.35,9.25-10.1,19.83-19,27.89-32.37a112.265,112.265,0,0,1,7-10.45c4.95-6.53,8.52-9.69,13.45-14.94,10-10.59,8-11.17,14.45-17.43,12.93-12.64,19.87-9.38,28.88-20.92,1.31-1.68.59-1,9.46-17.42,1.34-2.5,2.54-4.72,3.62-6.7h0c.23-.43.45-.85.67-1.25a28,28,0,0,0,9.78-5.75,63.886,63.886,0,0,0,6.27-7.29c1.55-2,2.93-3.8,4.14-5.47,3-2.27,6.09-4.13,7.39-3.17s.88,4.06-.19,7.28C324.94,267.27,325,267.3,325,267.27Z" fill="#76bccc" stroke="#ebac4e" stroke-miterlimit="10" stroke-width="1"/>
      <path id="Path_61" data-name="Path 61" d="M358.51,247.26c-5.36,5.07-10.91,1.06-18.92,6-3.13,1.91-3,3-7.29,7.36l-7.18,6.55-.13.12h0c1.07-3.22,1.36-6.42.19-7.28s-4.4.9-7.39,3.17c-.23.17-.43.34-.65.51,0,0-.08,0-.07-.05l2.2-6.59a11.4,11.4,0,0,1,2.92-3.27c3-2.16,5.65-1.63,10-5,2.85-2.19,2.38-2.95,5-5,3.14-2.43,5.34-2.51,12-4.47,9.64-2.87,11.69-4.69,13-3.5C363.76,237.51,362.35,243.62,358.51,247.26Z" fill="#d6e8fa" stroke="#ebac4e" stroke-miterlimit="10" stroke-width="1"/>
      <path id="Path_62" data-name="Path 62" d="M389.39,222.36c-2.64.34-3.16,1.51-8.47,5-5,3.26-6.63,3.62-7,5.48a4.93,4.93,0,0,0,2.49,5c2.19,1,3.77-1.05,11.45-4a57.526,57.526,0,0,1,9-3c3.15-.66,4.66-.58,5-1.5.55-1.59-3.08-4.6-6.48-6A11.47,11.47,0,0,0,389.39,222.36Z" fill="#d6e8fa" stroke="#ebac4e" stroke-miterlimit="10" stroke-width="1"/>
      <path id="Path_63" data-name="Path 63" d="M291.28,328.44a5.67,5.67,0,0,1-2.25,3.73,3.27,3.27,0,0,1-1.7.58c-1.17.11-2.34-.28-3.77-.09-3.51.5-3.75,3.81-9.71,10.21-3.61,3.88-4.78,4-7.47,7.73-1.84,2.53-1.9,3.3-3.48,5.47a30.45,30.45,0,0,1-8.47,7.72c-2.6,1.73-7.18,5.21-13.47,10.19,1.11-1.3,2.09-2.58,3-3.8a54.136,54.136,0,0,0,4.77-7.88c3.3-6.67,2.66-8.83,6.23-13.94,4.17-6,5.94-4.33,13.44-12.46,4.42-4.78,6.09-7.83,11.46-11.45,5.59-3.78,7.7-3.1,8.46-2.73C290.45,322.73,291.75,325.79,291.28,328.44Z" fill="none" stroke="#ebac4e" stroke-miterlimit="10" stroke-width="1"/>
      <path id="Path_64" data-name="Path 64" d="M285.8,341.64c-2.6,4.09-6,8-15.19,15.68-2.25,1.88-4.49,3.67-9,7.22-3.42,2.73-6.79,5.5-10.21,8.21-4.86,3.89-6.6,5.22-8.46,8-1.64,2.44-1.56,3.27-3,5.23-2.44,3.34-4.93,3.68-9.21,6.48a40.73,40.73,0,0,0-8.48,7.21c-4.07,4.79-2.55,6.39-6.46,12.46-2,3-5.13,6.07-11.46,12.2-3.55,3.43-5.34,4.06-7.48,7a25.1,25.1,0,0,0-3.61,7.2c-.26.82-.46,1.58-.61,2.26a173.427,173.427,0,0,0-14,11.71,167.435,167.435,0,0,0-15.44,16.43c-7,8.61-5.8,9.08-10.7,14.7-6.52,7.45-10.78,9.1-20.92,16.93a159.509,159.509,0,0,0-20.42,18.18c-10,10.87-10.8,16-23.4,32.61-3.24,4.28-3.48,4.26-13.94,16.93-6.12,7.39-11.45,13.91-15.82,19.28H35.29a79.091,79.091,0,0,1,12.47-16C59.33,560,67,559.6,79.13,547.56c8.47-8.42,5.74-9.23,16.93-22.91,9.77-11.94,18.88-19.93,31.38-30.87,16.1-14.13,20.6-16,27.39-25.91,5.55-8.11,4.47-9.7,10.45-17.42,7-9.08,10.22-9.12,23.41-21.91,9-8.7,6.91-8.13,17.43-18.43,9.12-8.93,11.45-10.13,14.44-15.45.35-.62.66-1.21.92-1.76a47.713,47.713,0,0,0,4.06-2.71c5-3.65,8.24-7.27,14.2-14.69L241,374c6.29-5,10.87-8.46,13.47-10.19a30.45,30.45,0,0,0,8.47-7.72c1.58-2.17,1.64-2.94,3.48-5.47,2.69-3.71,3.86-3.85,7.47-7.73,6-6.4,6.2-9.71,9.71-10.21,1.43-.19,2.6.2,3.77.09a2.48,2.48,0,0,1,1.21.92C289.7,335.42,287.73,338.59,285.8,341.64Z" fill="#76bccc" stroke="#ebac4e" stroke-miterlimit="10" stroke-width="1"/>
      <path id="Path_65" data-name="Path 65" d="M213.63,427.61c-2.29,3.59-6.48,9.47-11.5,17-10.4,15.68-9.11,15.64-14.6,23.23C177.79,481.37,167.6,490,160,496.43c-13,10.92-15.53,10.15-27.9,21.25a203.638,203.638,0,0,0-18.59,19.25c-8.73,10-12.11,15.62-28.22,38.18-3.34,4.68-6.36,8.87-8.93,12.43H58.09c4.37-5.37,9.7-11.89,15.82-19.28,10.46-12.67,10.7-12.65,13.94-16.93,12.6-16.64,13.36-21.74,23.4-32.61a159.5,159.5,0,0,1,20.42-18.18c10.14-7.83,14.4-9.48,20.92-16.93,4.9-5.62,3.72-6.09,10.7-14.7a167.439,167.439,0,0,1,15.44-16.43,173.436,173.436,0,0,1,14-11.71l1.4-.92c3.45-1.66,6.31-5,10-7.46,6.87-4.49,10.62-9.21,11.29-8.64C215.75,424,215.07,425.35,213.63,427.61Z" fill="#7ecbd3" stroke="#ebac4e" stroke-miterlimit="10" stroke-width="1"/>
      <path id="Path_66" data-name="Path 66" d="M276.59,365.2c-.58.94-1.87,2.91-6.8,7.85-4.58,4.58-5.86,5.28-8.76,8.47-2.46,2.69-4.69,4.25-5.78,7.42a13.879,13.879,0,0,0-.7,3.87c-.56.45-1.16,1-1.79,1.49q-1.22,1-2.61,2.28L248.58,398l-1.4,1.3-1.46,1.38c-.49.48-1,1-1.5,1.47a160.482,160.482,0,0,0-16.43,19.42c-2.69,3.61-7.67,10.36-21.79,31.13-4.23,6.21-8,11.82-15.82,23.28-9.14,13.42-10.05,14.66-11.45,16.43a147.754,147.754,0,0,1-21.29,21.91c-12.53,10.45-14.49,8.39-26.64,18.8a140.662,140.662,0,0,0-18.3,19c-5.38,6.76-8.52,12-14.07,21.42-2.34,3.95-5,8.63-7.94,14H76.34c2.57-3.56,5.59-7.75,8.93-12.43,16.11-22.56,19.49-28.16,28.22-38.18a203.644,203.644,0,0,1,18.59-19.25c12.37-11.1,14.88-10.33,27.9-21.25,7.62-6.4,17.81-15.06,27.55-28.56,5.49-7.59,4.2-7.55,14.6-23.23,1.91-2.88,3.71-5.52,5.32-7.87.24-.35.48-.7.7-1,.94-1.37,1.81-2.63,2.59-3.78.17-.25.34-.49.48-.72.95-1.39,1.76-2.59,2.41-3.61A123,123,0,0,0,228,410.11a95.007,95.007,0,0,1,7-9.63,110.43,110.43,0,0,1,12.54-12.84l2.4-2.1c7.66-6.69,9.19-6.93,13.61-11.62,3.38-3.58,4.15-7.12,9-11.95.75-.76,5.94-6,7.1-5.11h0C280.52,357.68,278.47,362.18,276.59,365.2Z" fill="#6ac4cd" stroke="#ebac4e" stroke-miterlimit="10" stroke-width="1"/>
      <path id="Path_67" data-name="Path 67" d="M481.11,354.68c-.42-.12-.82-.21-1.21-.3s-.68-.14-1-.2h-.18a11.776,11.776,0,0,0-1.17-.17h-.09l-1.05-.11h-.35l-.8-.06-1.13-.06h-.17l-1.57-.09a9.917,9.917,0,0,1-1.21-.12,5.35,5.35,0,0,1-.7-.08h-.32l-.4-.06h-.18l-.52-.09h-.16l-.57-.13-.73-.18a2.54,2.54,0,0,0-.37-.1l-.37-.12h0a1.131,1.131,0,0,0-.24-.08l-.42-.15a2.868,2.868,0,0,1-.37-.15,4.317,4.317,0,0,1-.48-.19,19.676,19.676,0,0,1-3.22-1.73c-7-4.57-5.14-8.6-12.46-14.45-9-7.16-13.69-2.66-24.4-8.46-14.4-7.79-12.93-19.76-25.39-22.9-8.21-2.08-15.62,1.39-17.93,2.48-4.2,2-7.7,4.83-19.43,21.42-12.15,17.19-11.29,18.23-15.93,21.91-.79.62-1.56,1.18-2.29,1.66l-.73.47-1.05.63-.35.19a2.781,2.781,0,0,1-.42.22l-.26.13-.66.33c-.44.2-.87.4-1.3.57h-.08c-.45.18-.91.35-1.35.5l-.46.16h-.13c-.36.13-.72.25-1.09.35l-.27.08a1.28,1.28,0,0,0-.34.1l-.32.09-.68.2-.83.25c-.39.1-.8.23-1.2.35a9.644,9.644,0,0,0-1,.34,2.349,2.349,0,0,0-.35.11l-.7.25a27.682,27.682,0,0,0-3,1.26l-.78.4-.8.46a.18.18,0,0,0-.11.05l-.73.43h0a20.91,20.91,0,0,1,5.37-8.67c4.67-4.86,7.31-3.17,12.21-7,8.48-6.6,4.47-14.7,13.44-26.14,3.18-4.06,2.67-1.76,12.45-11,12.08-11.44,13.22-15.28,18.86-16.2,3.3-.52,7.68.9,16.43,3.74,5.75,1.86,8.63,2.8,10.46,4.23,7.27,5.68,3.72,12.68,10.22,17.93,5,4.07,8.08.6,16.67,6,3.51,2.19,3.81,3.27,8.73,6.22,5.74,3.46,7,3,9.71,5.23,5.19,4.29,2.74,7.63,7.22,12.7S477.27,352.4,481.11,354.68Z" fill="none" stroke="#ebac4e" stroke-miterlimit="10" stroke-width="1"/>
      <path id="Path_68" data-name="Path 68" d="M740.68,588.78H723.49c-5.4-4.81-15.37-7.73-27.86-17.79-13-10.42-9.94-13.48-29.38-34.86a258.643,258.643,0,0,0-33.37-31.37C610,487,607,491.77,591.08,476.85c-5.35-5-5.54-6.06-30.38-34.37-5.19-5.91-9.61-10.92-12.91-14.64a99.521,99.521,0,0,0-9.58-25,60.511,60.511,0,0,0-11.37-14.68c-3.81-3.56-9.28-7.6-16.94-16.28-10.68-12.08-9.47-14.86-16.93-20.57-9.31-7.13-14.16-5.06-22.58-13.29-5.8-5.67-3.92-7.07-9.29-12.27-9.56-9.28-16.74-6-26.9-14.28-6.19-5.06-3.7-6.82-12.95-17.61C411.12,282.07,405.88,276,398.35,274c-15.3-4-31.31,11.46-36.52,16.27-15.22,14-11.73,26.58-30.87,48.14-10.46,11.77-12.73,9.44-23.58,22.57C294,377.2,296.29,382.2,285.13,392.85c-13.7,13.1-20.48,8.7-29.88,21.25-3.52,4.72-3.83,7-12.27,27.89-1.72,4.24-3.33,8.14-4.78,11.63-10,9.44-12.27,10.38-18.63,17.25-7.52,8.13-11.07,14-16.44,21.92-12,17.59-21.61,35.48-38.84,47.81-17.56,12.56-23.19,13.95-32.87,27.88a74.718,74.718,0,0,0-9.52,19.15H90.49c2.91-5.36,5.6-10,7.94-14,5.55-9.39,8.69-14.66,14.07-21.42a140.662,140.662,0,0,1,18.3-19c12.15-10.41,14.11-8.35,26.64-18.8a147.756,147.756,0,0,0,21.29-21.91c1.4-1.77,2.31-3,11.45-16.43C198,464.51,201.77,458.9,206,452.69c14.12-20.77,19.1-27.52,21.79-31.13a160.482,160.482,0,0,1,16.43-19.42c.51-.51,1-1,1.5-1.47s1-.93,1.46-1.38.93-.87,1.38-1.27h0l1.57-1.41,1.35-1.19,1.26-1.09a47.36,47.36,0,0,0,7.15-2.78,46.427,46.427,0,0,0,6.51-3.88,51.434,51.434,0,0,0,5.44-4.42C298.2,359.1,311.44,347,314.69,343c18.53-22.38,13.16-25.23,32.86-48.14,15.89-18.46,25.25-23.44,33.21-25.89,6-1.86,18.47-5.95,30.21-.66,16.1,7.24,9.55,22.46,28.21,36.51,6.64,5,16.66,10,36.53,19.92a40.81,40.81,0,0,1,10,6.65c5.48,5,5.41,8,10,12.94,6,6.6,9.36,5,16.27,11,6.16,5.3,6.23,8.95,12,17.59,1,1.51,1.92,2.82,2.82,4,5.62,7.28,9.74,8.88,18.09,18.27.53.59,1,1.16,1.49,1.71a64.859,64.859,0,0,1,4.15,5.35,17.67,17.67,0,0,1,1,1.55,3.183,3.183,0,0,0,.23.36,2.763,2.763,0,0,1,.22.37c.22.35.43.7.64,1.05l.64,1.09c.2.37.41.73.62,1.11s.49.9.75,1.36l.33.6c.83,1.52,1.75,3.18,2.91,5.13.3.5.63,1,1,1.58.52.86,1.11,1.77,1.75,2.75l.53.82q.63,1,1.35,2c.2.3.39.6.61.9.54.79,1.11,1.61,1.72,2.47,5.75,8.1,14.37,20.26,27.89,32.21,14.37,12.69,16.82,9.71,30.87,22.9,10.24,9.59,9.87,12,22.91,24.57,11.22,10.93,12.5,10.04,22.1,19.58C681,537,679.4,539,691.18,551.21c8.36,8.64,16.88,17.41,30.2,25.57C729.69,581.85,736.23,584.44,740.68,588.78Z" fill="#1ba0b4" stroke="#ebac4e" stroke-miterlimit="10" stroke-width="1"/>
      <path id="Path_69" data-name="Path 69" d="M723.52,588.75H700.77c-4.72-3.79-12.08-9.87-23-20.24-16.44-15.54-15.75-16.86-25.4-24.4-15.7-12.27-20.74-11.28-33.87-23.4-9.43-8.72-7.53-9.86-17.92-19.43-12-11.08-16.73-11.5-27.4-20.91-9.25-8.19-7.36-9.32-21.41-25.41-13.43-15.37-22.17-25.38-36.35-34.85-12.3-8.22-15.93-7.51-23.4-15.45-7.67-8.11-8.61-13.88-17.44-18.42-4.41-2.25-7.27-2.39-13.06-5.93-.28-.17-.58-.35-.88-.55-4.41-2.78-5.2-4.14-10-7.46-7.5-5.23-10-5-14.45-8-4.24-2.89-4.93-5.15-10.39-15.18-1.12-2.05-2.44-4.44-4-7.23-9.78-17-13.21-20.15-17.44-21.91a21.57,21.57,0,0,0-13.44-1c-7.7,2.09-11,9.27-16.93,16.93-11.62,15-11.55,24.15-22.41,39.84-2,2.94-8.69,9.8-21.91,23.41C302.13,427.43,302,426.56,295.76,434c-17.43,20.74-12.85,23.14-27.39,38.84-8.37,9-8.15,6.4-38.35,31.38-17.67,14.63-26.61,22.08-31.87,28.88-10.15,13.16-9.76,18.61-20.41,27.4-8.32,6.85-14,8-19.92,15.93A39.35,39.35,0,0,0,152,587.67H121.93a74.72,74.72,0,0,1,9.52-19.15c9.67-13.93,15.3-15.32,32.87-27.88,17.23-12.33,26.85-30.22,38.84-47.82,5.37-7.88,8.92-13.78,16.44-21.91,6.36-6.88,8.58-7.81,18.63-17.25.72-.69,1.47-1.41,2.28-2.17,8.19-7.83,14-13.38,20.43-21.41,9.66-12.1,7.15-12.87,14.43-21.41,12.33-14.45,18.83-11.46,31.38-25.91,9.56-11,7.35-14.53,15.93-20.91l.91-.65c.58-.41,1.14-.79,1.69-1.13h0l.73-.43a.18.18,0,0,1,.11-.05l.8-.46.78-.4a27.689,27.689,0,0,1,3-1.26l.7-.25a2.349,2.349,0,0,1,.35-.11c.35-.13.7-.24,1-.34l1.2-.35.83-.25.68-.2.32-.09.33-.09.26-.08h0c.37-.1.73-.22,1.09-.35h.13l.46-.16c.44-.15.9-.32,1.35-.5h.08c.43-.17.86-.37,1.3-.57l.66-.33.26-.13a2.783,2.783,0,0,0,.42-.22l.35-.19,1.05-.63.73-.47a24.108,24.108,0,0,0,2.29-1.66c4.64-3.68,3.78-4.72,15.93-21.91C374.22,311.85,377.72,309,381.92,307c2.31-1.09,9.72-4.56,17.93-2.48,12.46,3.14,11,15.11,25.39,22.9,10.71,5.8,15.44,1.3,24.4,8.46,7.32,5.85,5.46,9.88,12.46,14.45a19.681,19.681,0,0,0,3.22,1.73,4.318,4.318,0,0,0,.48.19,2.863,2.863,0,0,0,.37.15l.42.15a1.131,1.131,0,0,1,.24.08h0l.37.12a2.542,2.542,0,0,1,.37.1l.73.18.38.09h.35a3.145,3.145,0,0,1,.52.09l.47.08h.43a5.345,5.345,0,0,0,.7.08h.12l1.09.1,1.57.09h.17l1.13.06.8.06h.35l1.05.11h.09c.39.05.78.1,1.17.17h.18c.34.06.68.12,1,.2s.8.19,1.22.31h0c.2.05.38.12.57.18s.39.12.59.2l.55.21a4.665,4.665,0,0,1,.58.23,23.265,23.265,0,0,1,2.58,1.31c6,3.59,6.64,7.48,12.95,15.93,8.1,10.89,13.22,12.59,22.91,21.91a139.778,139.778,0,0,1,23.9,30.89c.62.69,1.3,1.45,2,2.29,3.3,3.71,7.72,8.73,12.91,14.64,24.84,28.31,25,29.36,30.38,34.37C607,491.77,610,487,632.91,504.72a257.636,257.636,0,0,1,33.36,31.38c19.44,21.38,16.43,24.43,29.39,34.86C708.15,581,718.12,583.94,723.52,588.75Z" fill="#66a0b2" stroke="#ebac4e" stroke-miterlimit="10" stroke-width="1"/>
      <path id="Path_70" data-name="Path 70" d="M425.8,349.11a27,27,0,0,0-8-2.49c-15.13-2.16-27.34,9.94-29.62,11.95-12.1,10.5-9.52,17-24.16,31.62-5,5-5.53,4.47-16.69,14.19-11.64,10.14-18,14.79-21.91,20.41-2.3,3.31-1,1.15-5.06,7.48-.08.14-11.48,17.79-11.51,18.18.1-.13-1,1.53-1.56,2.3-.78,1.14-1.59,2.29-2.4,3.43s-1.74,2.46-2.64,3.68c-.12.17-.25.34-.36.51-.56.75-1.11,1.51-1.66,2.24-.85,1.17-1.74,2.32-2.62,3.49-.51.65-1,1.29-1.49,1.93-.85,1.1-1.7,2.21-2.58,3.31l-.07.08c-1.08,1.36-2.12,2.66-3.14,3.9-.51.64-1,1.25-1.51,1.85-1.06,1.27-2.12,2.54-3.19,3.77l1.69-2.61c-18.91,10.88-30.82,22.74-38.35,31.88-11.74,14.27-13.83,24.18-29.37,35.85-10.48,7.87-12.93,7-22.42,15.93-6.06,5.7-16.36,15.36-18.87,25.73L152,587.67a39.351,39.351,0,0,1,5.85-11.23c5.93-7.93,11.6-9.08,19.92-15.93,10.65-8.79,10.26-14.24,20.41-27.4,5.26-6.8,14.2-14.25,31.87-28.88,30.2-25,30-22.33,38.35-31.38,14.54-15.7,10-18.1,27.39-38.84,6.26-7.45,6.37-6.58,33.87-34.86,13.22-13.61,19.88-20.47,21.91-23.41,10.86-15.69,10.79-24.88,22.41-39.84,5.95-7.66,9.23-14.84,16.93-16.93a21.57,21.57,0,0,1,13.44,1c4.23,1.76,7.66,4.87,17.44,21.91C423.36,344.67,424.68,347.06,425.8,349.11Z" fill="#76bccc" stroke="#ebac4e" stroke-miterlimit="10" stroke-width="1"/>
      <path id="Path_71" data-name="Path 71" d="M428.9,366.62c-.59,1.19-3.34,1.76-11.95-.16l.21-.22.14-.17a1,1,0,0,0,.31-.91c-.41-1.14-4.45-.68-5.28-.57-10.15,1.19-18,8.79-24.28,16-12,13.66-8.77,15.7-18.25,24.57s-14.7,9.56-22.58,19.26c-6.55,8-4.94,10-12.28,20.25a71.9,71.9,0,0,1-5.86,7.15,11.532,11.532,0,0,0,.46-2.34c.39-3.77-.34-8.14,2.74-11.87,1.6-1.93,3.83-3.2,4.07-5.9.11-1.18-.11-3.35-1.32-3.9a1.55,1.55,0,0,0-1.23,0,2.727,2.727,0,0,0-.46.22,4.785,4.785,0,0,0-.5.33,5.4,5.4,0,0,0-.52.39l-.27.22-.55.46-.13.12-.4.35c-.33.26-.65.55-1,.82s-.66.52-1,.77a6.635,6.635,0,0,1-.76.49c.13-4.18,1.42-6.19,2.75-7.27,2.68-2.17,5.48-.44,10-2.82,2.35-1.25,3.76-3,6.47-6.47,4.39-5.61,4.31-7.56,7-10.8,4.14-5,6.75-3.22,12.62-7.8,8.44-6.58,5.42-12.14,15.11-20.74,4.18-3.73,5.51-3.35,9.29-7.47,4-4.33,4.94-7.4,8.79-8.64,2.62-.83,2.81.38,7.14-.32,4.89-.81,6-2.57,9.13-2.33,2.11.17,2.22,1.43,6.65,3.48,2.56,1.2,3.16.86,4.14,1.67C428.51,363.51,429.41,365.58,428.9,366.62Z" fill="none" stroke="#ebac4e" stroke-miterlimit="10" stroke-width="1"/>
      <path id="Path_72" data-name="Path 72" d="M466.07,421.89c1.9,2.72,3.65,6.89,3.48,13.47a19.49,19.49,0,0,1-1.23-1.59c-2.47-3.5-3.27-6.25-7.47-11-3.86-4.35-4.64-3.68-7.47-7.21-5.13-6.44-3.56-9.94-8-13.2-3.39-2.51-4.81-.81-9.46-3.24-6.47-3.37-6-7.87-10.71-10.95-6.91-4.58-18.68-1.92-25.65,3.49-5.19,4-2.91,5.85-12.69,19.16-5.18,7-5.46,6.06-10.72,13.45-4.29,6.05-5.47,8.63-9.45,11.7-4.24,3.28-5.07,2-9.47,5.48a28.683,28.683,0,0,0-4.18,4c-.1.1-.19.22-.28.33-.62.74-1.17,1.43-1.73,2-.15.18-.31.35-.47.51a7.95,7.95,0,0,1-.58.58,9.547,9.547,0,0,1-1,.81,10.194,10.194,0,0,1-1.22.77h0c.74-2.65,2.67-5.66,6.73-12.08,4.5-7.13,4.41-7.05,4.64-7.31,5.37-6.12,9.28-4.64,13.94-9.3,5.24-5.21,1.76-8.46,7.81-17.42,3.25-4.81,3.6-2.91,10.29-11.13,3.5-4.28,5.37-7.22,9.63-9.3,2.23-1.09,2.43-.62,6.3-2,7.26-2.55,7.9-4.64,11.8-5.64,7.75-2,15.39,3.72,16.43,4.48,4.93,3.67,3.41,5.74,9.95,11.95,4.73,4.49,6.76,4.59,9.47,8.3,3.09,4.25,1.27,6.46,4.15,11.95C461.45,417.86,463.71,418.47,466.07,421.89Z" fill="none" stroke="#ebac4e" stroke-miterlimit="10" stroke-width="1"/>
      <path id="Path_73" data-name="Path 73" d="M495.46,439.49a15.249,15.249,0,0,1,2.64,4.91c-4.76-2.36-8.71-3.86-12.13-6.45l-.42-.32a22.241,22.241,0,0,1-4.53-4.94c-1.1-1.6-.93-1.73-6-11-5.56-10.13-8.34-15.18-9-14.94a.16.16,0,0,0-.07.07,29.3,29.3,0,0,0-1.91-3c-2.84-3.85-4.43-4.08-8.22-9-3.08-4-2.58-4.5-5.72-8.72-4.7-6.27-8.87-9.19-8.47-9.7.23-.31,1.85.62,9.7,5.23,7.32,4.27,7.79,4.53,8.73,5.47,3.72,3.73,2.82,6,6.47,11,3.33,4.51,5.52,4.55,8.71,8,4.06,4.33,1.95,6.59,6.73,17.44,2,4.65,3.1,7,5.22,9.2C490.4,436,492.87,436.3,495.46,439.49Z" fill="none" stroke="#ebac4e" stroke-miterlimit="10" stroke-width="1"/>
      <path id="Path_74" data-name="Path 74" d="M503.08,446.81a3.557,3.557,0,0,1,.09.35L503,447q.044-.093.08-.19Z" fill="none" stroke="#ebac4e" stroke-miterlimit="10" stroke-width="1"/>
      <path id="Path_75" data-name="Path 75" d="M700.77,588.71H684.39a137.019,137.019,0,0,0-13.47-10.93c-6.56-4.61-11.91-7.39-18.26-14.6-3.67-4.17-4.88-6.79-9.3-9.63-5.63-3.62-8.53-2.6-14.28-6.31-6.41-4.12-6-7.44-10.94-10.62-3-1.9-7.66-3.63-15.32-2.76-5.87-3.89-10.52-6-18.54-14.17-10.69-10.85-8.33-13.07-22.92-30.87a261.316,261.316,0,0,0-26.56-27.9c-14.41-13-18.68-14.49-29.88-25.22-8.64-8.27-25.66-30.22-28.55-35.87-4.31-8.42-9.92-13.72-14.89-19.54,5.79,3.54,8.65,3.68,13.06,5.93,8.83,4.54,9.77,10.31,17.44,18.42,7.47,7.94,11.1,7.23,23.4,15.45,14.18,9.47,22.92,19.48,36.35,34.85,14,16.09,12.16,17.22,21.41,25.41,10.67,9.41,15.36,9.83,27.4,20.91,10.39,9.57,8.49,10.71,17.92,19.43,13.13,12.12,18.17,11.13,33.87,23.4,9.65,7.54,9,8.86,25.4,24.4C688.69,578.84,696.05,584.92,700.77,588.71Z" fill="none" stroke="#ebac4e" stroke-miterlimit="10" stroke-width="1"/>
      <path id="Path_76" data-name="Path 76" d="M287.29,478.33c-.57.88-1.14,1.77-1.73,2.65-12.66,19.45-26.8,39.75-42.58,60.6-7.73,10.2-22.47,24-38.64,46.2H178.28c2.51-10.37,12.81-20,18.87-25.73,9.49-8.89,11.94-8.06,22.42-15.93,15.54-11.67,17.63-21.58,29.37-35.85C256.47,501.07,268.38,489.21,287.29,478.33Z" fill="#1ba0b4" stroke="#ebac4e" stroke-miterlimit="10" stroke-width="1"/>
      <path id="Path_77" data-name="Path 77" d="M336.35,431.68c-.24,2.7-2.47,4-4.07,5.9-3.08,3.73-2.35,8.1-2.74,11.87a11.53,11.53,0,0,1-.46,2.34,11.069,11.069,0,0,1-.71,1.77,2.379,2.379,0,0,1-.16.32,2.588,2.588,0,0,1-.17.33,1.861,1.861,0,0,1-.13.23c-.11.21-.24.44-.39.68s-.37.62-.59.95l-.5.74c-.18.27-.36.54-.57.83-.47.66-1,1.38-1.6,2.17l-1.05,1.38-.52.65c-.41.51-.82,1-1.28,1.6l-.28.38c-.37.44-.73.89-1.14,1.36-1,1.22-2.09,2.55-3.31,4-12.55,15.06-13.86,15.47-19.26,22.57-8.11,10.69-6,10.83-13.28,20.59-12.45,16.67-17,14-25.56,27.89-5.77,9.36-5.36,13.25-12.95,22.91-4.77,6.06-6.45,6.45-9.62,12-1.92,3.29-2.71,5.58-5.56,12.72h-26.1c16.17-22.24,30.91-36,38.64-46.2q3.09-4.08,6.09-8.14,2.76-3.71,5.44-7.39c2.12-2.93,4.23-5.83,6.28-8.73.95-1.32,1.9-2.65,2.82-4q4.22-6,8.25-11.85c.89-1.31,1.79-2.61,2.66-3.91l1.26-1.86q1.28-1.87,2.5-3.72c.83-1.24,1.66-2.47,2.46-3.7s1.64-2.45,2.43-3.68,1.61-2.44,2.39-3.65h0c1.07-1.23,2.13-2.5,3.19-3.77.49-.6,1-1.21,1.51-1.85,1.07-1.3,2.13-2.6,3.14-3.9l.07-.08c.88-1.1,1.73-2.21,2.58-3.31.49-.64,1-1.28,1.49-1.93.88-1.17,1.77-2.32,2.62-3.49.55-.73,1.1-1.49,1.66-2.24.11-.17.24-.34.36-.51q1.35-1.83,2.64-3.68c.81-1.14,1.62-2.29,2.4-3.43.52-.75,5.11-7.61,6.79-10.22.47-.75.94-1.48,1.39-2.22.35-.56.72-1.14,1.07-1.71.83-1.35,2.18-3.55,3.82-6.33.2.1.42.22.67.32a7.59,7.59,0,0,0,3,.67h1.01a2.842,2.842,0,0,0,.42-.08,1.7,1.7,0,0,0,.31-.06,3.451,3.451,0,0,0,.52-.16,3,3,0,0,0,.39-.13,9.18,9.18,0,0,0,1.57-.78c.26-.15.51-.32.76-.49s.69-.51,1-.77.66-.56,1-.82l.4-.35.13-.12.55-.46.27-.22a5.407,5.407,0,0,1,.52-.39,4.781,4.781,0,0,1,.5-.33,2.728,2.728,0,0,1,.46-.22,1.55,1.55,0,0,1,1.23,0C336.24,428.33,336.46,430.5,336.35,431.68Z" fill="#638a96" stroke="#ebac4e" stroke-miterlimit="10" stroke-width="1"/>
      <path id="Path_78" data-name="Path 78" d="M417.61,365.16a1,1,0,0,1-.31.91l-.14.17-.21.22a10.615,10.615,0,0,1-1.15.94l-.63.45c-1.25.87-2.92,1.94-4.93,3.24l-1.13.73c-1,.63-2,1.31-3.08,2.05a124.853,124.853,0,0,0-16.35,12.87,83.711,83.711,0,0,0-10.62,12.16c-4.1,5.83-4.39,8-7,11.71-5.95,8.54-12.5,8.37-18.69,13.69-4.77,4.11-9.86,11.7-10.83,27-.18.22-.39.45-.6.71a47.392,47.392,0,0,0-4,5.64,54,54,0,0,0-4.5,9.66l-.24.54A60.72,60.72,0,0,1,318,488.8c-3.64,3.13-4.64,3-7,5.85a28,28,0,0,0-5.85,13.94c-2,12.74-8.24,24.44-12.19,36.72-5.28,16.38-9.56,29.41-16.48,42.61l-46.1-.09c2.85-7.14,3.64-9.43,5.56-12.72,3.17-5.5,4.85-5.89,9.62-12,7.59-9.66,7.18-13.55,12.95-22.91,8.54-13.86,13.11-11.22,25.56-27.89,7.3-9.76,5.17-9.9,13.28-20.59,5.4-7.1,6.71-7.51,19.26-22.57,1.22-1.47,2.33-2.8,3.31-4,.39-.48.77-.93,1.12-1.38.11-.13.21-.24.3-.36.46-.56.87-1.09,1.28-1.6l.52-.65c.17-.22.32-.43.48-.62s.39-.53.57-.76c.61-.79,1.13-1.51,1.6-2.17.21-.29.39-.56.57-.83l.5-.74c.22-.33.41-.65.59-.95s.28-.47.39-.68a1.857,1.857,0,0,0,.13-.23,2.59,2.59,0,0,0,.17-.33,2.387,2.387,0,0,0,.16-.32,11.074,11.074,0,0,0,.71-1.77,71.892,71.892,0,0,0,5.86-7.15c7.34-10.26,5.73-12.21,12.28-20.25,7.88-9.7,13.14-10.44,22.58-19.26s6.27-10.91,18.25-24.57c6.31-7.18,14.13-14.78,24.28-16C413.16,364.48,417.2,364,417.61,365.16Z" fill="#1ba0b4" stroke="#ebac4e" stroke-miterlimit="10" stroke-width="1"/>
      <path id="Path_79" data-name="Path 79" d="M615.43,588.56H600.09a38.5,38.5,0,0,0-6.53-8.11c-6.68-6.28-11.08-5.5-18.43-9.95-7.54-4.58-9.48-9.39-17.91-21.42-3.36-4.78-13.59-19.36-24.41-30.13-17.08-17-21.59-10.53-35.85-25.65-13.58-14.37-12.5-23.41-21.59-31.65a36.334,36.334,0,0,0-5.3-3.95c-4.53-2.81-11.54-6.12-19.18-14.19-4.35-4.59-4.83-6.43-8.47-11-3.83-4.79-18.26-23.54-30.87-20.67-6.55,1.49-7.19,7.43-22.42,21.16-10,9-11.45,8.05-17.67,14.94-8,8.87-6.88,11.9-14.73,22.38-.07.09-.13.2-.21.29-10.14,13.4-15.06,12.62-20.92,22.15-7.26,11.79-6.29,23.62-6.48,31.13-.33,14.88-5.67,36.14-27.64,64.07l-24.93-.05c6.92-13.2,11.2-26.23,16.48-42.61,4-12.28,10.19-24,12.19-36.72a28,28,0,0,1,5.85-13.94c2.33-2.81,3.33-2.72,7-5.85a60.721,60.721,0,0,0,15.19-20.93l.24-.54a54,54,0,0,1,4.5-9.66,47.386,47.386,0,0,1,4-5.64,13.07,13.07,0,0,0,5.08-1.09c.26-.11.51-.23.75-.35h0a10.2,10.2,0,0,0,1.22-.77,9.536,9.536,0,0,0,1-.81,7.938,7.938,0,0,0,.58-.58c.16-.16.32-.33.47-.51.56-.62,1.11-1.31,1.73-2,.09-.11.18-.23.28-.33a28.675,28.675,0,0,1,4.18-4c4.4-3.46,5.23-2.2,9.47-5.48,4-3.07,5.16-5.65,9.45-11.7,5.26-7.39,5.54-6.4,10.72-13.45,9.78-13.31,7.5-15.15,12.69-19.16,7-5.41,18.74-8.07,25.65-3.49,4.69,3.08,4.24,7.58,10.71,10.95,4.65,2.43,6.07.73,9.46,3.24,4.41,3.26,2.84,6.76,8,13.2,2.83,3.53,3.61,2.86,7.47,7.21,4.2,4.72,5,7.47,7.47,11,.41.57.81,1.1,1.23,1.59.23.29.48.58.71.84a.13.13,0,0,1,.05.06l.69.72.74.71a16.991,16.991,0,0,0,1.58,1.32l.82.61c.62.45,1.28.89,2,1.34.33.22.69.44,1.05.66,2.17,1.34,4.71,2.79,7.83,4.84,0,0,3.13,2.05,7.81,5.73.68.53,1.37,1.08,2.1,1.68l.82.66c2.71,2.23,5.77,4.86,8.93,7.87,15.2,14.39,10.57,20.71,24.65,35.6,9.95,10.52,12.5,7.62,26.89,21.91a145.65,145.65,0,0,1,17.44,20.17c9.34,13.23,9,17.78,17.43,25.9,6.77,6.51,9.33,5.82,15.93,12.2a56.522,56.522,0,0,1,8.35,10.25Z" fill="#406d7f" stroke="#ebac4e" stroke-miterlimit="10" stroke-width="1"/>
      <path id="Path_80" data-name="Path 80" d="M600.09,588.53H584.95a40.117,40.117,0,0,0-4.33-4.86c-11.6-11.24-17.42-12-27.89-21.91-6.5-6.15-11.31-10.7-15.44-18.42-3.45-6.46-4.64-11.78-10.45-16.68a29.382,29.382,0,0,0-10.47-5.48C500,515.7,484.49,505.39,478,500.5c-5.94-4.51-17.42-13.21-25.14-28.14-3.93-7.61-4.59-12.42-10.71-18.92-2.61-2.8-3.4-2.89-17.42-12.71-11.77-8.24-13.24-9.59-16.44-9.46-5.82.25-9.92,5.11-15.69,12-7.37,8.76-6.62,12.31-14.44,20.67-4.07,4.36-4.7,3.84-9.21,8.72a96.08,96.08,0,0,0-11.46,15.68c-6.2,10.91-5.68,18.19-9.71,35.86a225.845,225.845,0,0,1-11.95,37.35A166.481,166.481,0,0,1,321.5,588h-20c22-27.93,27.31-49.19,27.64-64.07.19-7.51-.78-19.34,6.48-31.13,5.86-9.53,10.78-8.75,20.92-22.15,8.09-10.72,6.87-13.72,14.94-22.67,6.22-6.89,7.71-5.93,17.67-14.94,15.23-13.73,15.87-19.67,22.42-21.16,12.61-2.87,27,15.88,30.87,20.67,3.64,4.53,4.12,6.37,8.47,11,7.64,8.07,14.65,11.38,19.18,14.19,15.12,9.42,11.13,18.9,26.89,35.6,14.26,15.12,18.77,8.66,35.85,25.65,10.82,10.77,21.05,25.35,24.41,30.13,8.43,12,10.37,16.84,17.91,21.42,7.35,4.45,11.75,3.67,18.43,9.95a38.5,38.5,0,0,1,6.51,8.04Z" fill="#295566" stroke="#ebac4e" stroke-miterlimit="10" stroke-width="1"/>
      <path id="Path_81" data-name="Path 81" d="M585,588.51H570.13c-3.37-3.63-9-7.11-17.1-12-7.62-4.64-7.84-4-11.21-6.72-5.53-4.56-6.23-7.83-13.45-16.44-8.91-10.62-10.43-11.94-11.7-12.94-8-6.33-11.78-5.08-19.17-11.7-4.65-4.18-3.94-5.37-8.71-10.47-7.61-8.11-11.65-7.44-21.42-14.69a92.5,92.5,0,0,1-21.17-22.66c-2.57-3.87-5.17-8.45-10.95-16.43-2.92-4-5-6.61-6.72-8.71-7.05-8.42-10.56-12.63-14.44-13.2-6.73-1-13,5.74-15.69,8.71-6.12,6.63-4.51,10.31-11.21,17.44-4.7,5-5.94,3.64-10.2,8.46-5.61,6.33-7.58,13.33-9,18.43-2.16,7.9-.9,9.39-2.5,16.93-2,9.45-4.89,11.42-8.71,20.91-5.76,14.29-2.54,18-7.48,34.86a113.111,113.111,0,0,1-7.93,19.83H321.51a166.482,166.482,0,0,0,14.35-26.51,225.855,225.855,0,0,0,11.95-37.35c4-17.67,3.51-24.95,9.71-35.86A96.081,96.081,0,0,1,369,472.61c4.51-4.88,5.14-4.36,9.21-8.72,7.82-8.36,7.07-11.91,14.44-20.67,5.77-6.84,9.87-11.7,15.69-12,3.2-.13,4.67,1.22,16.44,9.46,14,9.82,14.81,9.91,17.42,12.71,6.12,6.5,6.78,11.31,10.71,18.92C460.6,487.29,472.08,496,478,500.5c6.47,4.89,22,15.2,38.35,20.66a29.38,29.38,0,0,1,10.47,5.48c5.81,4.9,7,10.22,10.45,16.68,4.13,7.72,8.94,12.27,15.44,18.42,10.47,9.91,16.29,10.67,27.89,21.91A40.119,40.119,0,0,1,585,588.51Z" fill="#295566" stroke="#ebac4e" stroke-miterlimit="10" stroke-width="1"/>
      <path id="Path_82" data-name="Path 82" d="M570.08,588.48l-25.26-.05a72.39,72.39,0,0,1-7.53-8.51,63.11,63.11,0,0,0-7.23-8.71c-7.58-7.45-11.63-5.8-17.91-12.44s-6.79-10.81-14.7-18.43c-3-2.91-6.15-5.17-12.44-9.71-12.77-9.21-13.8-8.44-19.68-13.2-10.88-8.82-7-11.16-19.18-21.91-7.71-6.82-13.44-9.56-16.93-15.94a39.191,39.191,0,0,0-5.47-8c-2-2.21-2.48-2.22-5-4.72-5.81-5.82-5.61-8.24-8.22-9-4.37-1.21-9.48,4.33-11.46,6.48-5.35,5.82-3.95,8.68-8.46,15.43-6.46,9.69-12.22,8.1-14.94,15.7-2.17,6.08,1.22,8-.25,16.43-1.39,8-4.81,8.38-8.46,17.43s-.73,10-4.49,28.63a127.357,127.357,0,0,1-5,18.43,111.234,111.234,0,0,1-5,11.64H341.31a113.113,113.113,0,0,0,7.93-19.83c4.94-16.81,1.72-20.57,7.48-34.86,3.82-9.49,6.71-11.46,8.71-20.91,1.6-7.54.34-9,2.5-16.93,1.38-5.1,3.35-12.1,9-18.43,4.26-4.82,5.5-3.47,10.2-8.46,6.7-7.13,5.09-10.81,11.21-17.44,2.73-3,9-9.7,15.69-8.71,3.88.57,7.39,4.78,14.44,13.2,1.76,2.1,3.8,4.68,6.72,8.71,5.78,8,8.38,12.56,10.95,16.43a92.5,92.5,0,0,0,21.17,22.66c9.77,7.25,13.81,6.58,21.42,14.69,4.77,5.1,4.06,6.29,8.71,10.47,7.39,6.62,11.2,5.37,19.17,11.7,1.27,1,2.79,2.32,11.7,12.94,7.22,8.61,7.92,11.88,13.45,16.44,3.37,2.77,3.59,2.08,11.21,6.72C561.08,581.37,566.71,584.85,570.08,588.48Z" fill="#406d7f" stroke="#ebac4e" stroke-miterlimit="10" stroke-width="1"/>
      <path id="Path_83" data-name="Path 83" d="M544.82,588.43q-96.15-.18-192.3-.35a111.23,111.23,0,0,0,5-11.64,127.348,127.348,0,0,0,5-18.43c3.76-18.62.81-19.53,4.49-28.63s7.07-9.39,8.46-17.43c1.47-8.46-1.92-10.35.25-16.43,2.72-7.6,8.48-6,14.94-15.7,4.51-6.75,3.11-9.61,8.46-15.43,2-2.15,7.09-7.69,11.46-6.48,2.61.73,2.41,3.15,8.22,9,2.5,2.5,3,2.51,5,4.72a39.189,39.189,0,0,1,5.47,8c3.49,6.38,9.22,9.12,16.93,15.94,12.2,10.75,8.3,13.09,19.18,21.91,5.88,4.76,6.91,4,19.68,13.2,6.29,4.54,9.44,6.8,12.44,9.71,7.91,7.62,8.42,11.78,14.7,18.43s10.33,5,17.91,12.44a63.114,63.114,0,0,1,7.23,8.71,72.405,72.405,0,0,0,7.48,8.46Z" fill="#ce6262" stroke="#ebac4e" stroke-miterlimit="10" stroke-width="1"/>
      <path id="Path_84" data-name="Path 84" d="M469.55,435.36a19.49,19.49,0,0,1-1.23-1.59c-2.47-3.5-3.27-6.25-7.47-11-3.86-4.35-4.64-3.68-7.47-7.21-5.13-6.44-3.56-9.94-8-13.2-3.39-2.51-4.81-.81-9.46-3.24-6.47-3.37-6-7.87-10.71-10.95-6.91-4.58-18.68-1.92-25.65,3.49-5.19,4-2.91,5.85-12.69,19.16-5.18,7-5.46,6.06-10.72,13.45-4.29,6.05-5.47,8.63-9.45,11.7-4.24,3.28-5.07,2-9.47,5.48a28.681,28.681,0,0,0-4.18,4,3.817,3.817,0,0,0-.28.33c-.62.74-1.17,1.43-1.73,2-.15.18-.31.35-.47.51a7.938,7.938,0,0,1-.58.58,9.546,9.546,0,0,1-1,.81,10.2,10.2,0,0,1-1.22.77h0c.74-2.65,2.67-5.66,6.73-12.08,4.5-7.13,4.41-7.05,4.64-7.31,5.37-6.12,9.28-4.64,13.94-9.3,5.24-5.21,1.76-8.46,7.81-17.42,3.25-4.81,3.6-2.91,10.29-11.13,3.5-4.28,5.37-7.22,9.63-9.3,2.23-1.09,2.43-.62,6.3-2,7.26-2.55,7.9-4.64,11.8-5.64,7.75-2,15.39,3.72,16.43,4.48,4.93,3.67,3.41,5.74,9.95,11.95,4.73,4.49,6.76,4.59,9.47,8.3,3.09,4.25,1.27,6.46,4.15,11.95,2.51,4.77,4.77,5.38,7.13,8.8C468,424.61,469.72,428.78,469.55,435.36Z" fill="#fffffd" stroke="#ebac4e" stroke-miterlimit="10" stroke-width="1"/>
      <path id="Path_85" data-name="Path 85" d="M428.9,366.62c-.59,1.19-3.34,1.76-11.95-.16l.21-.22a1.53,1.53,0,0,0,.14-.17,1,1,0,0,0,.31-.91c-.41-1.14-4.45-.68-5.28-.57-10.15,1.19-18,8.79-24.28,16-12,13.66-8.77,15.7-18.25,24.57s-14.7,9.56-22.58,19.26c-6.55,8-4.94,10-12.28,20.25a71.9,71.9,0,0,1-5.86,7.15,11.532,11.532,0,0,0,.46-2.34c.39-3.77-.34-8.14,2.74-11.87,1.6-1.93,3.83-3.2,4.07-5.9.11-1.18-.11-3.35-1.32-3.9a1.55,1.55,0,0,0-1.23,0,2.727,2.727,0,0,0-.46.22,4.785,4.785,0,0,0-.5.33,5.4,5.4,0,0,0-.52.39l-.27.22-.55.46-.13.12-.4.35c-.33.26-.65.55-1,.82s-.66.52-1,.77a6.635,6.635,0,0,1-.76.49c.13-4.18,1.42-6.19,2.75-7.27,2.68-2.17,5.48-.44,10-2.82,2.35-1.25,3.76-3,6.47-6.47,4.39-5.61,4.31-7.56,7-10.8,4.14-5,6.75-3.22,12.62-7.8,8.44-6.58,5.42-12.14,15.11-20.74,4.18-3.73,5.51-3.35,9.29-7.47,4-4.33,4.94-7.4,8.79-8.64,2.62-.83,2.81.38,7.14-.32,4.89-.81,6-2.57,9.13-2.33,2.11.17,2.22,1.43,6.65,3.48,2.56,1.2,3.16.86,4.14,1.67C428.51,363.51,429.41,365.58,428.9,366.62Z" fill="#d6e8fa" stroke="#ebac4e" stroke-miterlimit="10" stroke-width="1"/>
      <path id="Path_86" data-name="Path 86" d="M635.13,588.6h-19.7A56.521,56.521,0,0,0,607,578.18c-6.6-6.38-9.16-5.69-15.93-12.2-8.47-8.12-8.09-12.67-17.43-25.9a145.654,145.654,0,0,0-17.44-20.17c-14.39-14.29-16.94-11.39-26.89-21.91-14.08-14.89-9.45-21.21-24.65-35.6-3.16-3-6.22-5.64-8.93-7.87l-.82-.66h0a15.46,15.46,0,0,0-2.62-7.23c-3.44-4.95-7.15-4.11-13.27-9.3-4.7-4-6.31-9-9.3-16.59-.26-.65-.51-1.33-.76-2s-.41-1.17-.61-1.76c-.53-1.52-1-3-1.39-4.38-.12-.43-.23-.85-.34-1.25a14.649,14.649,0,0,1-.71-4.28.44.44,0,0,1,.08-.22h0a.16.16,0,0,1,.07-.07c.64-.24,3.42,4.81,9,14.94,5,9.24,4.87,9.37,6,11a22.241,22.241,0,0,0,4.53,4.94l.42.32c3.42,2.59,7.37,4.09,12.13,6.45l1,.51c.34.18.69.35,1,.55.7.36,1.4.75,2.13,1.17l.69.4.22.13c.46.27.9.54,1.34.82l1,.66c.75.5,1.48,1,2.2,1.5l1.1.8c.37.28.73.54,1.08.82s.85.66,1.26,1c.2.15.39.3.58.47l.57.48c.37.31.75.64,1.13,1s.75.65,1.13,1,.77.67,1.14,1c1.93,1.75,3.91,3.68,6.13,5.84,14.21,13.78,11.46,18.4,25.23,33.52,12.09,13.3,15.2,10.81,25.89,23.91,10.52,12.89,7.91,15.79,17.26,25.89,10.81,11.69,17.13,10.89,28.88,21.91A83.28,83.28,0,0,1,635.13,588.6Z" fill="none" stroke="#ebac4e" stroke-miterlimit="10" stroke-width="1"/>
      <path id="Path_87" data-name="Path 87" d="M654.83,588.64h-19.7a83.278,83.278,0,0,0-16-20.8c-11.75-11-18.07-10.22-28.88-21.91-9.35-10.1-6.74-13-17.26-25.89-10.69-13.1-13.8-10.61-25.89-23.91-13.77-15.12-11-19.74-25.23-33.52-2.22-2.16-4.2-4.09-6.13-5.84a10.33,10.33,0,0,0-1.14-1c-.38-.28-.75-.69-1.13-1s-.76-.67-1.13-1l-.57-.48c-.19-.17-.38-.32-.58-.47-.41-.34-.83-.67-1.26-1s-.71-.54-1.08-.82l-1.1-.8c-.72-.51-1.45-1-2.2-1.5l-1-.66c-.44-.28-.88-.55-1.34-.82a3.584,3.584,0,0,0-.09-.35,27.82,27.82,0,0,0-2.47-6.15c-3-5.4-6.28-7-9.3-11-2.29-3-5-14.32-5.24-15.77h.06c4.77,7.23,10.89,13.41,18.79,21.77,10.66,11.27,15.47,12.19,29.88,25.22a261.308,261.308,0,0,1,26.56,27.9c14.59,17.8,12.23,20,22.92,30.87,8,8.15,12.67,10.28,18.54,14.17a83.338,83.338,0,0,1,12.66,10.4c11.07,10.82,11.68,15.35,21.91,27.22A151.806,151.806,0,0,0,654.83,588.64Z" fill="none" stroke="#ebac4e" stroke-miterlimit="10" stroke-width="1"/>
      <path id="Path_88" data-name="Path 88" d="M684.39,588.69l-29.56-.05a151.811,151.811,0,0,1-17.44-17.18c-10.23-11.87-10.84-16.4-21.91-27.22a83.336,83.336,0,0,0-12.66-10.4c7.66-.87,12.35.86,15.32,2.76,5,3.18,4.53,6.5,10.94,10.62,5.75,3.71,8.65,2.69,14.28,6.31,4.42,2.84,5.63,5.46,9.3,9.63,6.35,7.21,11.7,10,18.26,14.6a137,137,0,0,1,13.47,10.93Z" fill="none" stroke="#ebac4e" stroke-miterlimit="10" stroke-width="1"/>
      <path id="Path_89" data-name="Path 89" d="M498.1,444.4c-4.76-2.36-8.71-3.86-12.13-6.45l-.42-.32a22.241,22.241,0,0,1-4.53-4.94c-1.1-1.6-.93-1.73-6-11-5.56-10.13-8.34-15.18-9-14.94a.16.16,0,0,0-.07.07,29.3,29.3,0,0,0-1.91-3c-2.84-3.85-4.43-4.08-8.22-9-3.08-4-2.58-4.5-5.72-8.72-4.7-6.27-8.87-9.19-8.47-9.7.23-.31,1.85.62,9.7,5.23,7.32,4.27,7.79,4.53,8.73,5.47,3.72,3.73,2.82,6,6.47,11,3.33,4.51,5.52,4.55,8.71,8,4.06,4.33,1.95,6.59,6.73,17.44,2,4.65,3.1,7,5.22,9.2,3.16,3.25,5.63,3.54,8.22,6.73a15.25,15.25,0,0,1,2.69,4.93Z" fill="#d6e8fa" stroke="#ebac4e" stroke-miterlimit="10" stroke-width="1"/>
      <path id="Path_90" data-name="Path 90" d="M762.42,588.82H740.68c-4.45-4.34-11-6.93-19.3-12-13.32-8.16-21.84-16.93-30.2-25.57C679.4,539,681,537,668.6,524.65c-9.57-9.54-10.88-8.68-22.25-19.59-13-12.53-12.67-15-22.91-24.57-14.05-13.19-16.5-10.21-30.87-22.9A150.421,150.421,0,0,1,578.2,443c-5.78-6.69-10.14-12.85-13.52-17.61-.61-.86-1.18-1.68-1.72-2.47-.22-.3-.41-.6-.61-.9q-.72-1-1.35-2l-.53-.82c-.64-1-1.23-1.89-1.75-2.75-.33-.56-.66-1.08-1-1.58-1.16-2-2.08-3.61-2.91-5.13-.38-.67-.73-1.32-1.08-2-.21-.38-.42-.74-.62-1.11l-.64-1.09c-.21-.35-.42-.7-.64-1.05a2.765,2.765,0,0,0-.22-.37,3.171,3.171,0,0,1-.23-.36c-.32-.51-.65-1-1-1.55a29.191,29.191,0,0,0-1.76-7.38c-.18-.48-.37-.93-.55-1.34a24.634,24.634,0,0,0-2.07-3.74c-4-6-9.29-8.06-13.87-17.51-2.44-5-1.66-5.88-4.32-12.95a84.63,84.63,0,0,0-8-15.83c-1-1.47-1.86-2.78-2.69-3.92q2.05,2.71,4,5.31c7.53,10.14,13.59,19,18.24,26q1.65,2.5,3.05,4.7c3.32,5.16,5.73,9.08,8.31,13.21.56.91,1.14,1.83,1.74,2.79,2.32,3.71,4.94,7.8,8.54,13.21,4.12,6.22,7.38,11.11,10.07,15a137.444,137.444,0,0,0,8.52,11.53,82.685,82.685,0,0,0,7.22,7.45c14.26,12.87,24.75,11.5,44.91,30.73,10.7,10.21,9.06,11.84,26.55,29.54,8.37,8.45,12.42,11.81,24.91,23.24,27.65,25.33,28.41,27.83,40.83,38.51a297.367,297.367,0,0,0,38.41,28.06Z" fill="#66a0b2" stroke="#ebac4e" stroke-miterlimit="10" stroke-width="1"/>
      <path id="Path_91" data-name="Path 91" d="M777.88,588.84H762.42a297.376,297.376,0,0,1-38.38-28c-12.42-10.68-13.18-13.18-40.84-38.51-12.48-11.43-16.54-14.79-24.9-23.24-17.49-17.7-15.85-19.33-26.55-29.54-23.41-22.32-33.77-16.89-52.13-38.18a137.455,137.455,0,0,1-8.52-11.53A77.1,77.1,0,0,1,594.24,430c9.09,6,10.07,9.56,21.91,18.58,13.05,10,16,8.83,27.55,17.27,12.52,9.18,13.23,13.62,27.22,27.23s16.69,12.41,34.2,27.22c18.64,15.77,20.32,21.15,40.5,40.5C753.11,568,763.88,577.83,777.88,588.84Z" fill="#76bccc" stroke="#ebac4e" stroke-miterlimit="10" stroke-width="1"/>
      <path id="Path_92" data-name="Path 92" d="M800.24,588.9H777.88c-14-11-24.77-20.83-32.26-28-20.18-19.35-21.86-24.73-40.5-40.5-17.51-14.81-20.11-13.52-34.2-27.22s-14.7-18.05-27.22-27.23c-11.52-8.44-14.5-7.29-27.55-17.27-11.84-9-12.82-12.58-21.91-18.58a77.1,77.1,0,0,0-23.14-10.2c-2.69-3.93-6-8.82-10.07-15-8.68-13-11.66-18.46-18.59-29.21q-1.4-2.19-3.05-4.7a30.72,30.72,0,0,0-.6-11.23c-1.31-5.36-3.89-9.46-10-16.93s-11.5-14.17-20.92-21.92c-11.45-9.44-13.63-7.76-23.9-15.6l-.42-.31a91.7,91.7,0,0,1-21.52-22.39,4,4,0,0,0-.29-.43l-.3-.47h0c-.63-.94-1.34-2-2-3.08-.15-.26-.31-.53-.45-.79-.7-1.24-1.17-2.27-1-2.63a.12.12,0,0,1,.05-.08h.06a.09.09,0,0,1,.07,0h.07c1.36,0,7.45,5.7,14.28,12.16.46.43.95.88,1.43,1.34,1.12,1,2.23,2.09,3.35,3.15l1.48,1.39c1.11,1,2,1.92,2.76,2.69,2.89,2.87,3.89,4.1,6.72,6.54a103,103,0,0,0,20.59,13.61c11,6,19.66,18.92,36.51,44.49,20.36,30.87,16.93,31.64,26.89,41.83,11,11.25,13.16,8.23,39.84,27.56,26,18.81,20.9,19.46,40.51,32.2,10.84,7,20.32,12,30.22,23.9,6.89,8.33,5,9.21,10.62,15.93C702.35,512.4,714,518.6,725,522.45c11.92,8.89,24.07,16.43,36.88,29.59,1.75,1.8,7.76,8.05,16.43,16.43,5,4.81,12.44,11.66,15.44,14.44Z" fill="#6ac4cd" stroke="#ebac4e" stroke-miterlimit="10" stroke-width="1"/>
      <path id="Path_93" data-name="Path 93" d="M502.68,306c-.2.35-8.23-3.56-21.08-10.35-.77-.77-1.65-1.64-2.76-2.69l-1.48-1.39c-1.12-1.06-2.23-2.11-3.35-3.15-.48-.46-1-.91-1.43-1.34-6.83-6.46-12.92-12.16-14.28-12.16h-.07a.09.09,0,0,0-.07,0h-.06a.12.12,0,0,0-.05.08c-.18.36.29,1.39,1,2.63.14.26.3.53.45.79.49.84,1.1,1.82,1.81,2.9-3.81-4.46-7.54-9.77-6.34-12.37a2.68,2.68,0,0,1,1.15-1.34c1.85-.92,3.84,1.56,8.64,4.32s7.53,3,12.53,7l.42.34c5,4.32,4.21,7.85,8,13.61a25.925,25.925,0,0,0,3.2,3.92C494.84,302.86,502.87,305.68,502.68,306Z" fill="#76bccc" stroke="#ebac4e" stroke-miterlimit="10" stroke-width="1"/>
      <path id="Path_94" data-name="Path 94" d="M481.12,354.69c-.42-.12-.82-.22-1.22-.31s-.68-.14-1-.2h-.18c-.39-.07-.78-.12-1.17-.17h-.09l-1.05-.11h-.35l-.8-.06-1.13-.06h-.17l-1.57-.09-1.09-.1a5.566,5.566,0,0,1-.82-.1H470l-.29-.05h-.18l-.52-.09h-.35l-.38-.09-.73-.18a2.535,2.535,0,0,0-.37-.1l-.37-.12h0a1.127,1.127,0,0,0-.24-.08l-.42-.15a2.869,2.869,0,0,1-.37-.15,4.326,4.326,0,0,1-.48-.19,19.678,19.678,0,0,1-3.22-1.73c-7-4.57-5.14-8.6-12.46-14.45-9-7.16-13.69-2.66-24.4-8.46-14.4-7.79-12.93-19.76-25.39-22.9-8.21-2.08-15.62,1.39-17.93,2.48-4.2,2-7.7,4.83-19.43,21.42-12.15,17.19-11.29,18.23-15.93,21.91-.79.62-1.56,1.18-2.29,1.66l-.73.47-1.05.63-.35.19a2.779,2.779,0,0,1-.42.22l-.26.13-.66.33c-.44.2-.87.4-1.3.57h-.08c-.45.18-.91.35-1.35.5l-.46.16h-.13c-.36.13-.72.25-1.09.35h0l-.25.07h0l-.33.09-.32.09-.68.2-.83.25-1.2.35a9.776,9.776,0,0,0-1,.34,1.569,1.569,0,0,0-.35.11l-.7.25a27.68,27.68,0,0,0-3,1.26l-.78.4c-.26.15-.53.29-.8.46a.18.18,0,0,0-.11.05c-.24.13-.48.27-.73.43h0a20.91,20.91,0,0,1,5.37-8.67c4.67-4.86,7.31-3.17,12.21-7,8.48-6.6,4.47-14.7,13.44-26.14,3.18-4.06,2.67-1.76,12.45-11,12.1-11.47,13.24-15.31,18.88-16.23,3.3-.52,7.68.9,16.43,3.74,5.75,1.86,8.63,2.8,10.46,4.23,7.27,5.68,3.72,12.68,10.22,17.93,5,4.07,8.08.6,16.67,6,3.51,2.19,3.81,3.27,8.73,6.22,5.74,3.46,7,3,9.71,5.23,5.19,4.29,2.74,7.63,7.22,12.7s10.19,5.29,14,7.57Z" fill="#d6e8fa" stroke="#ebac4e" stroke-miterlimit="10" stroke-width="1"/>
      <path id="Path_95" data-name="Path 95" d="M547.79,427.84c-.73-.84-1.41-1.6-2-2.29a139.779,139.779,0,0,0-23.9-30.89c-9.69-9.32-14.81-11-22.91-21.91-6.31-8.45-6.91-12.34-12.95-15.93a23.267,23.267,0,0,0-2.58-1.31,4.654,4.654,0,0,0-.58-.23l-.55-.21c-.2-.08-.39-.14-.59-.2s-.37-.13-.57-.18h0c-3.84-2.28-9.52-2.45-14-7.57s-2-8.41-7.22-12.7c-2.76-2.25-4-1.77-9.71-5.23-4.92-2.95-5.22-4-8.73-6.22-8.59-5.38-11.64-1.91-16.67-6-6.5-5.25-2.95-12.25-10.22-17.93-1.83-1.43-4.71-2.37-10.46-4.23-8.75-2.84-13.13-4.26-16.43-3.74-5.68.92-6.78,4.76-18.92,16.19-9.78,9.2-9.27,6.9-12.45,11-9,11.44-5,19.54-13.44,26.14-4.9,3.81-7.54,2.12-12.21,7a20.91,20.91,0,0,0-5.37,8.67c-.55.34-1.11.72-1.69,1.13l-.91.65c-8.58,6.38-6.37,9.91-15.93,20.91-12.55,14.45-19.05,11.46-31.38,25.91-7.28,8.54-4.77,9.31-14.43,21.41-6.43,8-12.24,13.58-20.43,21.41-.81.76-1.56,1.48-2.28,2.17,1.45-3.49,3.06-7.39,4.78-11.63,8.44-20.85,8.75-23.17,12.27-27.89,9.4-12.55,16.18-8.15,29.88-21.25,11.16-10.65,8.87-15.65,22.25-31.87,10.85-13.13,13.12-10.8,23.58-22.57,19.14-21.56,15.65-34.1,30.87-48.14C367,285.45,383.05,270,398.35,274c7.53,2,12.77,8.08,22.9,19.91,9.25,10.79,6.76,12.55,12.95,17.61,10.16,8.28,17.34,5,26.89,14.28,5.37,5.2,3.5,6.6,9.3,12.27,8.41,8.23,13.27,6.16,22.58,13.29,7.46,5.71,6.25,8.49,16.93,20.57,7.66,8.67,13.13,12.72,16.94,16.28C534.08,395,542.46,406.54,547.79,427.84Z" fill="#fffffd" stroke="#ebac4e" stroke-miterlimit="10" stroke-width="1"/>
      <path id="Path_96" data-name="Path 96" d="M526.67,376.9c-.9-1.16-1.82-2.47-2.82-4-5.72-8.64-5.79-12.29-12-17.59-6.91-6-10.25-4.36-16.27-11-4.55-5-4.48-7.91-10-12.94a40.81,40.81,0,0,0-10-6.65c-19.87-9.92-29.89-14.92-36.53-19.92-18.66-14.05-12.11-29.27-28.21-36.51-11.74-5.29-24.2-1.2-30.21.66-8,2.45-17.32,7.43-33.21,25.89-19.7,22.91-14.33,25.76-32.86,48.14-3.25,3.93-16.49,16.06-42.83,40.18a51.433,51.433,0,0,1-5.44,4.42,27.931,27.931,0,0,1,6.69-12.14c2.87-3,4.13-2.8,7.46-5.72,7.1-6.26,7-12,11.95-19.43,4.54-6.76,8.36-7.5,15.45-13.45,8.63-7.24,8.42-10.74,22.16-31.13,16.81-24.71,25.77-32.41,30-35.79,7.45-5.94,12.81-10.11,20.66-10.71,6.72-.51,9,2.09,23.65,3.24,8,.63,8.84,0,11.95,1.24,5.89,2.4,8.31,6.9,14.45,15.95,3.5,5.15,8.92,13.4,13.44,18.42,14.66,16.22,27.3,7.49,42.33,23.66,5.15,5.52,7.18,10.32,16.44,18.67,5.86,5.29,8.24,6.24,11.45,9.2C519.34,354.19,524.71,362.12,526.67,376.9Z" fill="#fffffd" stroke="#ebac4e" stroke-miterlimit="10" stroke-width="1"/>
      <path id="Path_97" data-name="Path 97" d="M451.77,293.15a39,39,0,0,1-8.85-7c-6.91-7.35-6.56-11.94-13.7-20.91-3.77-4.75-9.57-12-18.67-15.94-18.13-7.76-38,2.78-43.08,5.49-4.58,2.43-10.1,7.1-21.16,16.43-9.84,8.31-15.55,13.14-19.66,17.58-.82.87-1.56,1.73-2.26,2.59-5.32,6.57-6.76,10.38-8.93,15.29a92,92,0,0,1-9.74,17.08c-1.8,2.58-5.42,7.2-12.11,15.63,1-3.07,2.11-6.86,3.4-11.15,2.06-6.9,2.83-9.74,3.32-11.38h0a19.78,19.78,0,0,1,.91-2.56,30.209,30.209,0,0,1,5.88-9.05c2.65-2.88,5.78-5.67,9.81-11.12a45.67,45.67,0,0,0,4.68-7.49c2-4.08,2.08-6.37,6-11.43,2.81-3.6,6.71-7.52,26.9-18.43,17.13-9.27,25.7-13.9,32.37-15.18s25.9-5,35.6,5c3.66,3.76,3.69,7.12,8.55,12.82h0c.69.82,1.48,1.68,2.4,2.6,4.59,4.61,6.62,5,9.46,9.22,3.49,5.26,3,8.61,5.24,14.68a39.349,39.349,0,0,0,3.64,7.23Z" fill="#d6e8fa" stroke="#ebac4e" stroke-miterlimit="10" stroke-width="1"/>
      <path id="Path_98" data-name="Path 98" d="M725,522.45c-11-3.85-22.66-10.05-31.51-20.72-5.59-6.72-3.73-7.6-10.62-15.93-9.9-11.92-19.38-16.86-30.22-23.9-19.61-12.74-14.52-13.39-40.51-32.2-26.68-19.33-28.82-16.31-39.84-27.56-10-10.19-6.53-11-26.89-41.83-16.85-25.57-25.5-38.46-36.51-44.49a103,103,0,0,1-20.59-13.61c-2.83-2.44-3.83-3.67-6.72-6.54,12.85,6.79,22.94,12.07,29.66,12.65,3.83.33,3.06.64,5.79,2.15,5.9,6.77,12.65,15,21.23,25.43,24.1,29.32,22.77,30.61,36.85,45.83a368.471,368.471,0,0,0,40.35,37.34c29.5,23.47,38.78,23.29,57.76,39.84,26.47,23.06,15.15,32.28,40.85,54.79C717.72,516.87,721.36,519.72,725,522.45Z" fill="#7ecbd3" stroke="#ebac4e" stroke-miterlimit="10" stroke-width="1"/>
      <path id="Path_99" data-name="Path 99" d="M546,389.77a50.334,50.334,0,0,0-4.87,1.54c-6.06-6.16-9.73-8.26-14.48-14.41-2-14.78-7.33-22.71-12.29-27.31-3.21-3-5.59-3.91-11.45-9.2-9.26-8.35-11.29-13.15-16.44-18.67-15-16.17-27.67-7.44-42.33-23.66-4.52-5-9.94-13.27-13.44-18.42-6.14-9.05-8.56-13.55-14.45-15.95-3.11-1.26-3.95-.61-11.95-1.24-14.68-1.15-16.93-3.75-23.65-3.24-7.85.6-13.21,4.77-20.66,10.71-4.24,3.38-13.2,11.08-29.88,35.85C316.39,326.16,316.6,329.66,308,336.9c-7.09,6-10.91,6.69-15.45,13.45-5,7.41-4.85,13.17-11.95,19.43-3.33,2.92-4.59,2.73-7.46,5.72a27.929,27.929,0,0,0-6.69,12.14,46.425,46.425,0,0,1-6.51,3.88,47.357,47.357,0,0,1-7.15,2.78c.63-.53,1.23-1,1.79-1.49a13.879,13.879,0,0,1,.7-3.87c1.09-3.17,3.32-4.73,5.78-7.42,2.9-3.19,4.18-3.89,8.76-8.47,4.93-4.94,6.22-6.91,6.8-7.85,1.88-3,3.93-7.52,3.06-8.31,2.62-3.28,5.81-7.26,9.38-11.77,1.68-2.1,3.2-4,4.58-5.78,6.69-8.43,10.31-13,12.11-15.63a92,92,0,0,0,9.74-17.08c2.17-4.91,3.61-8.72,8.93-15.29.7-.86,1.44-1.72,2.26-2.59,4.11-4.44,9.82-9.27,19.66-17.58,11.06-9.33,16.58-14,21.16-16.43,5.1-2.71,24.95-13.25,43.08-5.49,9.1,3.9,14.9,11.19,18.67,15.94,7.14,9,6.79,13.56,13.7,20.91a39,39,0,0,0,8.85,7c3,1.79,6.32,3.34,10.33,5.41,0,0,13.69,7.06,35.11,21.91q1.98,1.38,4.1,3a89.17,89.17,0,0,1,18.55,20c.27.46,5.66,9.69,8,15.83,2.66,7.07,1.88,7.94,4.32,12.95C536.73,381.71,542,383.78,546,389.77Z" fill="#fffffd" stroke="#ebac4e" stroke-miterlimit="10" stroke-width="1"/>
      <path id="Path_100" data-name="Path 100" d="M526.67,376.9c-.9-1.16-1.82-2.47-2.82-4-5.72-8.64-5.79-12.29-12-17.59-6.91-6-10.25-4.36-16.27-11-4.55-5-4.48-7.91-10-12.94a40.81,40.81,0,0,0-10-6.65c-19.87-9.92-29.89-14.92-36.53-19.92-18.66-14.05-12.11-29.27-28.21-36.51-11.74-5.29-24.2-1.2-30.21.66-8,2.45-17.32,7.43-33.21,25.89-19.7,22.91-14.33,25.76-32.86,48.14-3.25,3.93-16.49,16.06-42.83,40.18a51.433,51.433,0,0,1-5.44,4.42,27.931,27.931,0,0,1,6.69-12.14c2.87-3,4.13-2.8,7.46-5.72,7.1-6.26,7-12,11.95-19.43,4.54-6.76,8.36-7.5,15.45-13.45,8.63-7.24,8.42-10.74,22.16-31.13,16.81-24.71,25.77-32.41,30-35.79,7.45-5.94,12.81-10.11,20.66-10.71,6.72-.51,9,2.09,23.65,3.24,8,.63,8.84,0,11.95,1.24,5.89,2.4,8.31,6.9,14.45,15.95,3.5,5.15,8.92,13.4,13.44,18.42,14.66,16.22,27.3,7.49,42.33,23.66,5.15,5.52,7.18,10.32,16.44,18.67,5.86,5.29,8.24,6.24,11.45,9.2C519.34,354.19,524.71,362.12,526.67,376.9Z" fill="none" stroke="#ebac4e" stroke-miterlimit="10" stroke-width="1"/>
    </g>
    <g id="Layer_3" data-name="Layer 3">
      <path id="Path_101" data-name="Path 101" d="M326.46,289c-.74.79-1.42,1.59-2.07,2.38-5.24,6.47-6.72,10.26-8.84,15.08a.22.22,0,0,1-.29.11,13.49,13.49,0,0,0-3.9-1.33,13.11,13.11,0,0,0-4.24,0,19.131,19.131,0,0,0-5.72,2,38.85,38.85,0,0,1-10.94,3.24c-12.84,2-27.42-.47-33.87-2.25-5.36-1.47-9.17-3.23-17.93-5a106.879,106.879,0,0,0-29.88-2.32c-15.29,1.15-19,5.36-32.21,3.66-1.29-.17-13.84-1.89-14.27-6-.19-1.71,1.76-3.54,3.64-5.32a19.784,19.784,0,0,1,2.34-1.9c2.53-1.76,4.19-2,4.31-3.08.26-2.34-7.71-5.71-17.59-8-10.24-2.34-14.59.31-31.88,1h-1.48c-13,.52-27.8.86-30.73-5.7-1.22-2.73,0-6,1.16-8.31a.225.225,0,0,0-.24-.29A5.76,5.76,0,0,1,88,256.85a7.259,7.259,0,0,1,.63-.46,14.94,14.94,0,0,1-1-17.6,14.64,14.64,0,0,1,10.28-6.29,15.3,15.3,0,0,1,4,0,.7.7,0,0,1,.09-.17,17.09,17.09,0,0,1,7.2-7.14,17.71,17.71,0,0,1,13.73-.74.22.22,0,0,0,.28-.16,14.22,14.22,0,0,1,25.17-5.07c.29-.1.56-.2.85-.27,7.39-2.24,14.49.32,17.08,5.25a11.8,11.8,0,0,1,.51,8.73l-.18.57a19.11,19.11,0,0,1,7.3,1.65c4.75,2.14,10.51,7.16,9.3,10.62-1,3-6.86,3.54-8.55,3.64a.21.21,0,0,0-.19.33c1,1.39,3.84,6,2.1,9.65-.76,1.61-2.52,3.3-10,4.65a56.771,56.771,0,0,1-18.85.67c-.24,0-.31.8-.09.9a38.09,38.09,0,0,0,25.92,2.75,39,39,0,0,0,11.29-4.66,8.776,8.776,0,0,1,.75.58c1.69,1.4,2.61,3.21,2.24,4.74-.5,1.95-3,2.79-4.32,3.32-3.22,1.27-6.09.3-6.31,1s2.19,2.42,5.31,3.64c6.89,2.72,10.08.09,16.93,2.33,4.1,1.34,8.3,4,8,5.64-.12.56-.77,1-7.31,2.65-5.76,1.43-7.57,1.62-7.63,2.33-.14,1.54,5.44,3.32,9.3,4.32,11.8,3.05,18.25-2.82,28.88-3.66,12.34-1,11.26,5.75,27.23,7.64,12.45,1.48,33.74-.16,47.8-8.62A20.79,20.79,0,0,1,317,285.94a19.072,19.072,0,0,1,4.61.64,22.45,22.45,0,0,1,4.81,2,.22.22,0,0,1,.04.42Z" fill="#f4ebca" stroke="#ebac4e" stroke-miterlimit="10" stroke-width="1"/>
      <path id="Path_102" data-name="Path 102" d="M192.83,247.43c-.79,3.73-6.08,5.63-8.29,6.3.87,1,2.9,3.49,2.65,6.65-.12,1.52-2.05,3.5-2.31,3.31a39,39,0,0,1-11.29,4.66c-12.41,2.9-23.56-1.53-28.19-3.77-.19-.09.51-.11.71-.08a67.47,67.47,0,0,0,20.5-.47c7.44-1.35,9.2-3,10-4.65,1.92-4-1.76-9.2-2.32-10,.76,0,7.81-.32,9-3.66s-4.55-8.48-9.3-10.62a19.11,19.11,0,0,0-7.3-1.65l.18-.57a24.69,24.69,0,0,1,10.78.57C184.94,235.57,194,242,192.83,247.43Z" fill="#eadb9d" stroke="#ebac4e" stroke-miterlimit="10" stroke-width="1"/>
      <path id="Path_103" data-name="Path 103" d="M148.85,217.75l-1.16.65a14.21,14.21,0,0,0-24.51,5.89.21.21,0,0,1-.28.14,17.78,17.78,0,0,0-13.73.75,17.08,17.08,0,0,0-6.9,6.6.22.22,0,0,1-.41-.08,11.84,11.84,0,0,1,3.83-10.7c4.53-4,10.23-2.66,11.29-2.36a.2.2,0,0,0,.24-.11,18.48,18.48,0,0,1,5.41-6.66c5.2-4,13.76-5.84,20.08-1.66a16.23,16.23,0,0,1,6.14,7.54Z" fill="#eadb9d" stroke="#ebac4e" stroke-miterlimit="10" stroke-width="1"/>
      <path id="Path_104" data-name="Path 104" d="M87.6,238.79a14.93,14.93,0,0,0,.81,17.37l-.31.68a11.23,11.23,0,0,1-5.16-.78c-3.88-1.57-7.21-5.42-7.29-9.79-.11-5.66,5.24-9.17,7.46-10.62a22.12,22.12,0,0,1,14.5-3.18v.07a14.61,14.61,0,0,0-10.01,6.25Z" fill="#eadb9d" stroke="#ebac4e" stroke-miterlimit="10" stroke-width="1"/>
      <path id="Path_105" data-name="Path 105" d="M121.64,281.34l-9,1.78c-10.69,2.12-12.6,2.54-16.11,2.32-8.9-.55-19.66-4.66-19.75-9-.07-3.29,6.13-6.69,15.29-9.22a.21.21,0,0,1,0,.07c-1.21,2.35-2.38,5.58-1.16,8.31C93.84,282.2,108.65,281.86,121.64,281.34Z" fill="#eadb9d" stroke="#ebac4e" stroke-miterlimit="10" stroke-width="1"/>
      <path id="Path_106" data-name="Path 106" d="M290.46,310.43a108.49,108.49,0,0,1-21.92,4.22A89.09,89.09,0,0,1,242,313.33c-10.91-2.24-11.69-4.62-20.75-5.65-5.93-.67-7.28.16-23.9,2C176,312,171,311.47,166.11,310c-7-2.12-15.74-6.73-15.26-10.45.13-1,1-2.06,5-4a54.8,54.8,0,0,1,12.45-4.23,19.793,19.793,0,0,0-2.34,1.9c-1.88,1.78-3.83,3.61-3.64,5.32.43,4.09,13,5.81,14.27,6,13.25,1.7,16.92-2.51,32.21-3.66a106.878,106.878,0,0,1,29.88,2.32c8.76,1.75,12.57,3.51,17.93,5C263,310,277.62,312.47,290.46,310.43Z" fill="#eadb9d" stroke="#ebac4e" stroke-miterlimit="10" stroke-width="1"/>
      <path id="Path_107" data-name="Path 107" d="M116,260.29s.25,1.58,6.15,3.32,14.53.52,24,.89" fill="none" stroke="#ebac4e" stroke-miterlimit="10" stroke-width="1"/>
      <path id="Path_108" data-name="Path 108" d="M146.69,254.9c.52-.15,8.25-2.34,8.39-6.14a3.78,3.78,0,0,0-.92-2.41c-3.52-4.65-12.89-6-20.83-5.48-5.88.42-12.1.86-16.68,5.73-1.32,1.4-3.49,3.3-3.74,6.39-.31,3.87,3.07,7.3,3.07,7.3s-.58-3.4.42-5.31c5.14-9.86,22.28-8,24.9-7.8a8.28,8.28,0,0,1,5.31,2.16,4,4,0,0,1,1.41,3,3.77,3.77,0,0,1-1.33,2.56Z" fill="#eadb9d" stroke="#ebac4e" stroke-miterlimit="10" stroke-width="1"/>
    </g>
    <g id="Layer_4" data-name="Layer 4">
      <path id="Path_109" data-name="Path 109" d="M720.84,437c-4.77-.3-10.29-.61-16.36-.87-24.64-1.08-37.14-1.56-45.16,1-11.29,3.6-14.59,8.25-25.41,10.16-1,.18-2,.33-3.13.46-5.63.64-12.41,1.31-18.11-1.83a16.764,16.764,0,0,1-1.81-1.16,30.128,30.128,0,0,1-4.13-4.07l-.1-.1c-.23-.23-.46-.46-.72-.68l-.25-.23a15.627,15.627,0,0,0-3.44-2.23c-2.23-1.07-6.92-3.35-11-2.13a8.252,8.252,0,0,0-1.25.48,7.871,7.871,0,0,0-3.09,3.05,9,9,0,0,1-2.21,2.26A11.3,11.3,0,0,1,578.2,443a21.6,21.6,0,0,1-5.2-.59A41.38,41.38,0,0,1,548.1,453a40.19,40.19,0,0,1-17.73-3l-1.53-.67c-16,2.41-28.5-.75-31.2-7.63a9.3,9.3,0,0,1-.33-5.3c-4.85-1.06-5.76-3-6-3.66-1.24-3.55,3.65-9.52,12.95-14.28-3.58-2.63-4.32-4.79-4.32-6.3,0-9.23,28.34-15.33,31.21-15.94l1.24-.76a53.8,53.8,0,0,1,8.74-4.18,50.328,50.328,0,0,1,4.87-1.54c1.38-.36,2.64-.62,3.75-.82l1-.16a56.716,56.716,0,0,1,5.76-.63c1.86-.12,3.8-.15,5.76-.09,10.07.3,20.69,3.11,24.67,10.84a15.722,15.722,0,0,1,1.67,7.3c3.33-1,19.52-5.83,28.88,2.32.83.72,6,5.23,5,9.3-.92,3.62-6.14,4.42-6,5.31.41,2.16,21,3.82,23.4,3.65,40.5-2.86,48.47-4.64,66.07,3.66.56.46,6.69,3.43,10.12,5A25.321,25.321,0,0,0,720.84,437Z" fill="#f4ebca" stroke="#ebac4e" stroke-miterlimit="10" stroke-width="1"/>
      <path id="Path_110" data-name="Path 110" d="M538.47,426.63c.82-2.37,2.48-6.47,6-9.13,6-4.54,13.33-2.88,20.58-2,5.47.66,22.84,2.43,25.57,13.61a10.2,10.2,0,0,1-.67,6.64" fill="none" stroke="#ebac4e" stroke-miterlimit="10" stroke-width="1"/>
      <path id="Path_111" data-name="Path 111" d="M557.58,428.2a1.48,1.48,0,0,1,2.07-.88c1.93,1,4.45,2.6,4.39,4.45-.11,3.26-8.09,5.13-10.29,5.65-10.58,2.47-24.18.8-25.24-4-.53-2.4,1.68-5.84,4.65-7,1.7-.64,4.3-1,5.31.17.56.66.2,1.27.5,2.16.93,2.72,6.48,3.36,9.71,3.23,1.73-.06,7.47-.28,8.8-3.57Q557.535,428.307,557.58,428.2Z" fill="#eadb9d" stroke="#ebac4e" stroke-miterlimit="10" stroke-width="1"/>
      <path id="Path_112" data-name="Path 112" d="M500,412.19c0,1.51.74,3.66,4.32,6.3-9.3,4.76-14.19,10.73-12.95,14.28.22.63,1.13,2.6,6,3.66a9.3,9.3,0,0,0,.33,5.3c2.7,6.88,15.25,10,31.2,7.63l1.52.67a43.381,43.381,0,0,1-11.8,2.83c-9.77.91-24.57-1.1-26.23-7.8-.29-1.16-.42-3.33,1.82-6.64-10.84,1.17-19-2.46-19.58-6.14s6-10,17.25-12.29c-3.2-2.39-3.89-4.45-4-5.81-.53-8,17.75-14.94,28.73-17.43,5-1.14,11.82-2.69,15.84-1.26l-1.24.76C528.3,396.86,500,403,500,412.19Z" fill="#eadb9d" stroke="#ebac4e" stroke-miterlimit="10" stroke-width="1"/>
      <circle id="Ellipse_142" data-name="Ellipse 142" cx="39.97" cy="39.97" r="39.97" transform="translate(254.64 70.21)" fill="#f05454" stroke="#ebac4e" stroke-miterlimit="10" stroke-width="1"/>
    </g>
    <g id="Layer_5" data-name="Layer 5" opacity="0.5">
      <circle id="Ellipse_143" data-name="Ellipse 143" cx="1.44" cy="1.44" r="1.44" transform="translate(228.24 477.6)" fill="#fffffd"/>
      <circle id="Ellipse_144" data-name="Ellipse 144" cx="1.44" cy="1.44" r="1.44" transform="translate(245.01 464.89)" fill="#fffffd"/>
      <circle id="Ellipse_145" data-name="Ellipse 145" cx="1.44" cy="1.44" r="1.44" transform="translate(245.01 454.48)" fill="#fffffd"/>
      <circle id="Ellipse_146" data-name="Ellipse 146" cx="1.44" cy="1.44" r="1.44" transform="translate(249.23 450.14)" fill="#fffffd"/>
      <circle id="Ellipse_147" data-name="Ellipse 147" cx="1.44" cy="1.44" r="1.44" transform="translate(256.72 453.61)" fill="#fffffd"/>
      <circle id="Ellipse_148" data-name="Ellipse 148" cx="1.44" cy="1.44" r="1.44" transform="translate(253.84 443.44)" fill="#fffffd"/>
      <circle id="Ellipse_149" data-name="Ellipse 149" cx="1.44" cy="1.44" r="1.44" transform="translate(260.79 436.39)" fill="#fffffd"/>
      <circle id="Ellipse_150" data-name="Ellipse 150" cx="1.44" cy="1.44" r="1.44" transform="translate(267.1 437.51)" fill="#fffffd"/>
      <circle id="Ellipse_151" data-name="Ellipse 151" cx="1.44" cy="1.44" r="1.44" transform="translate(266.33 430.95)" fill="#fffffd"/>
      <circle id="Ellipse_152" data-name="Ellipse 152" cx="1.44" cy="1.44" r="1.44" transform="translate(266.33 425.12)" fill="#fffffd"/>
      <circle id="Ellipse_153" data-name="Ellipse 153" cx="1.44" cy="1.44" r="1.44" transform="translate(274.68 423.08)" fill="#fffffd"/>
      <circle id="Ellipse_154" data-name="Ellipse 154" cx="1.44" cy="1.44" r="1.44" transform="translate(273.24 431.73)" fill="#fffffd"/>
      <circle id="Ellipse_155" data-name="Ellipse 155" cx="1.44" cy="1.44" r="1.44" transform="translate(279.03 441.59)" fill="#fffffd"/>
      <circle id="Ellipse_156" data-name="Ellipse 156" cx="1.44" cy="1.44" r="1.44" transform="translate(288.88 428)" fill="#fffffd"/>
      <circle id="Ellipse_157" data-name="Ellipse 157" cx="1.44" cy="1.44" r="1.44" transform="translate(285.53 420.2)" fill="#fffffd"/>
      <circle id="Ellipse_158" data-name="Ellipse 158" cx="1.44" cy="1.44" r="1.44" transform="translate(286.55 409.22)" fill="#fffffd"/>
      <circle id="Ellipse_159" data-name="Ellipse 159" cx="1.44" cy="1.44" r="1.44" transform="translate(280.09 407.78)" fill="#fffffd"/>
      <circle id="Ellipse_160" data-name="Ellipse 160" cx="1.44" cy="1.44" r="1.44" transform="translate(282.97 378.44)" fill="#fffffd"/>
      <circle id="Ellipse_161" data-name="Ellipse 161" cx="1.44" cy="1.44" r="1.44" transform="translate(276.12 383.86)" fill="#fffffd"/>
      <circle id="Ellipse_162" data-name="Ellipse 162" cx="1.44" cy="1.44" r="1.44" transform="translate(278.42 389.74)" fill="#fffffd"/>
      <circle id="Ellipse_163" data-name="Ellipse 163" cx="1.44" cy="1.44" r="1.44" transform="translate(268.92 389.74)" fill="#fffffd"/>
      <circle id="Ellipse_164" data-name="Ellipse 164" cx="1.44" cy="1.44" r="1.44" transform="translate(262.22 399.38)" fill="#fffffd"/>
      <circle id="Ellipse_165" data-name="Ellipse 165" cx="1.44" cy="1.44" r="1.44" transform="translate(256.16 397.09)" fill="#fffffd"/>
      <circle id="Ellipse_166" data-name="Ellipse 166" cx="1.44" cy="1.44" r="1.44" transform="translate(256.16 401.66)" fill="#fffffd"/>
      <circle id="Ellipse_167" data-name="Ellipse 167" cx="1.44" cy="1.44" r="1.44" transform="translate(251.61 406.35)" fill="#fffffd"/>
      <circle id="Ellipse_168" data-name="Ellipse 168" cx="1.44" cy="1.44" r="1.44" transform="translate(242.13 414.28)" fill="#fffffd"/>
      <circle id="Ellipse_169" data-name="Ellipse 169" cx="1.44" cy="1.44" r="1.44" transform="translate(235.32 414.28)" fill="#fffffd"/>
      <circle id="Ellipse_170" data-name="Ellipse 170" cx="1.44" cy="1.44" r="1.44" transform="translate(202.9 400.82)" fill="#fffffd"/>
      <circle id="Ellipse_171" data-name="Ellipse 171" cx="1.44" cy="1.44" r="1.44" transform="translate(205.78 397.09)" fill="#fffffd"/>
      <circle id="Ellipse_172" data-name="Ellipse 172" cx="1.44" cy="1.44" r="1.44" transform="translate(210.28 389.74)" fill="#fffffd"/>
      <circle id="Ellipse_173" data-name="Ellipse 173" cx="1.44" cy="1.44" r="1.44" transform="translate(213.16 394.21)" fill="#fffffd"/>
      <circle id="Ellipse_174" data-name="Ellipse 174" cx="1.44" cy="1.44" r="1.44" transform="translate(219.21 385.3)" fill="#fffffd"/>
      <circle id="Ellipse_175" data-name="Ellipse 175" cx="1.44" cy="1.44" r="1.44" transform="translate(220.64 371.55)" fill="#fffffd"/>
      <circle id="Ellipse_176" data-name="Ellipse 176" cx="1.44" cy="1.44" r="1.44" transform="translate(235.32 418.77)" fill="#fffffd"/>
      <circle id="Ellipse_177" data-name="Ellipse 177" cx="1.44" cy="1.44" r="1.44" transform="translate(240.69 422.36)" fill="#fffffd"/>
      <circle id="Ellipse_178" data-name="Ellipse 178" cx="1.44" cy="1.44" r="1.44" transform="translate(231.35 423.68)" fill="#fffffd"/>
      <circle id="Ellipse_179" data-name="Ellipse 179" cx="1.44" cy="1.44" r="1.44" transform="translate(235.32 433.17)" fill="#fffffd"/>
      <circle id="Ellipse_180" data-name="Ellipse 180" cx="1.44" cy="1.44" r="1.44" transform="translate(225.36 433.83)" fill="#fffffd"/>
      <circle id="Ellipse_181" data-name="Ellipse 181" cx="1.44" cy="1.44" r="1.44" transform="translate(231.35 444.88)" fill="#fffffd"/>
      <circle id="Ellipse_182" data-name="Ellipse 182" cx="1.44" cy="1.44" r="1.44" transform="translate(218.56 444.88)" fill="#fffffd"/>
      <circle id="Ellipse_183" data-name="Ellipse 183" cx="1.44" cy="1.44" r="1.44" transform="translate(219.41 448.7)" fill="#fffffd"/>
      <circle id="Ellipse_184" data-name="Ellipse 184" cx="1.44" cy="1.44" r="1.44" transform="translate(309.15 401.66)" fill="#fffffd"/>
      <circle id="Ellipse_185" data-name="Ellipse 185" cx="1.44" cy="1.44" r="1.44" transform="translate(308.22 388.3)" fill="#fffffd"/>
      <circle id="Ellipse_186" data-name="Ellipse 186" cx="1.44" cy="1.44" r="1.44" transform="translate(321.63 386.2)" fill="#fffffd"/>
      <circle id="Ellipse_187" data-name="Ellipse 187" cx="1.44" cy="1.44" r="1.44" transform="translate(315.36 375.56)" fill="#fffffd"/>
      <circle id="Ellipse_188" data-name="Ellipse 188" cx="1.44" cy="1.44" r="1.44" transform="translate(325.25 371.97)" fill="#fffffd"/>
      <circle id="Ellipse_189" data-name="Ellipse 189" cx="1.44" cy="1.44" r="1.44" transform="translate(322.61 366.23)" fill="#fffffd"/>
      <circle id="Ellipse_190" data-name="Ellipse 190" cx="1.44" cy="1.44" r="1.44" transform="translate(329.99 367.35)" fill="#fffffd"/>
      <circle id="Ellipse_191" data-name="Ellipse 191" cx="1.44" cy="1.44" r="1.44" transform="translate(329.27 362.96)" fill="#fffffd"/>
      <circle id="Ellipse_192" data-name="Ellipse 192" cx="1.44" cy="1.44" r="1.44" transform="translate(336.02 366.95)" fill="#fffffd"/>
      <circle id="Ellipse_193" data-name="Ellipse 193" cx="1.44" cy="1.44" r="1.44" transform="translate(343.4 372.39)" fill="#fffffd"/>
      <circle id="Ellipse_194" data-name="Ellipse 194" cx="1.44" cy="1.44" r="1.44" transform="translate(348.21 360.02)" fill="#fffffd"/>
      <circle id="Ellipse_195" data-name="Ellipse 195" cx="1.44" cy="1.44" r="1.44" transform="translate(354.29 347.19)" fill="#fffffd"/>
      <circle id="Ellipse_196" data-name="Ellipse 196" cx="1.44" cy="1.44" r="1.44" transform="translate(359.49 352.1)" fill="#fffffd"/>
      <circle id="Ellipse_197" data-name="Ellipse 197" cx="1.44" cy="1.44" r="1.44" transform="translate(359.49 338.3)" fill="#fffffd"/>
      <circle id="Ellipse_198" data-name="Ellipse 198" cx="1.44" cy="1.44" r="1.44" transform="translate(342.84 305.39)" fill="#fffffd"/>
      <circle id="Ellipse_199" data-name="Ellipse 199" cx="1.44" cy="1.44" r="1.44" transform="translate(340.07 312.28)" fill="#fffffd"/>
      <circle id="Ellipse_200" data-name="Ellipse 200" cx="1.44" cy="1.44" r="1.44" transform="translate(333.6 318.69)" fill="#fffffd"/>
      <circle id="Ellipse_201" data-name="Ellipse 201" cx="1.44" cy="1.44" r="1.44" transform="translate(334.58 323.3)" fill="#fffffd"/>
      <circle id="Ellipse_202" data-name="Ellipse 202" cx="1.44" cy="1.44" r="1.44" transform="translate(329.99 327.11)" fill="#fffffd"/>
      <circle id="Ellipse_203" data-name="Ellipse 203" cx="1.44" cy="1.44" r="1.44" transform="translate(325.08 334.62)" fill="#fffffd"/>
      <circle id="Ellipse_204" data-name="Ellipse 204" cx="1.44" cy="1.44" r="1.44" transform="translate(368.04 330.33)" fill="#fffffd"/>
      <circle id="Ellipse_205" data-name="Ellipse 205" cx="1.44" cy="1.44" r="1.44" transform="translate(371.25 325.67)" fill="#fffffd"/>
      <circle id="Ellipse_206" data-name="Ellipse 206" cx="1.44" cy="1.44" r="1.44" transform="translate(371.25 320.13)" fill="#fffffd"/>
      <circle id="Ellipse_207" data-name="Ellipse 207" cx="1.44" cy="1.44" r="1.44" transform="translate(376.84 324.23)" fill="#fffffd"/>
      <circle id="Ellipse_208" data-name="Ellipse 208" cx="1.44" cy="1.44" r="1.44" transform="translate(377.28 316.41)" fill="#fffffd"/>
      <circle id="Ellipse_209" data-name="Ellipse 209" cx="1.44" cy="1.44" r="1.44" transform="translate(380.15 312.28)" fill="#fffffd"/>
      <circle id="Ellipse_210" data-name="Ellipse 210" cx="1.44" cy="1.44" r="1.44" transform="translate(383.31 314.97)" fill="#fffffd"/>
      <circle id="Ellipse_211" data-name="Ellipse 211" cx="1.44" cy="1.44" r="1.44" transform="translate(387.73 312.49)" fill="#fffffd"/>
      <circle id="Ellipse_212" data-name="Ellipse 212" cx="1.44" cy="1.44" r="1.44" transform="translate(388.12 308.26)" fill="#fffffd"/>
      <circle id="Ellipse_213" data-name="Ellipse 213" cx="1.44" cy="1.44" r="1.44" transform="translate(396.54 307.88)" fill="#fffffd"/>
      <circle id="Ellipse_214" data-name="Ellipse 214" cx="1.44" cy="1.44" r="1.44" transform="translate(392.56 314.53)" fill="#fffffd"/>
      <circle id="Ellipse_215" data-name="Ellipse 215" cx="1.44" cy="1.44" r="1.44" transform="translate(401.99 324.74)" fill="#fffffd"/>
      <circle id="Ellipse_216" data-name="Ellipse 216" cx="1.44" cy="1.44" r="1.44" transform="translate(415.2 321.95)" fill="#fffffd"/>
      <circle id="Ellipse_217" data-name="Ellipse 217" cx="1.44" cy="1.44" r="1.44" transform="translate(417.88 325.5)" fill="#fffffd"/>
      <circle id="Ellipse_218" data-name="Ellipse 218" cx="1.44" cy="1.44" r="1.44" transform="translate(420.45 330.94)" fill="#fffffd"/>
      <circle id="Ellipse_219" data-name="Ellipse 219" cx="1.44" cy="1.44" r="1.44" transform="translate(419.83 338.3)" fill="#fffffd"/>
      <circle id="Ellipse_220" data-name="Ellipse 220" cx="1.44" cy="1.44" r="1.44" transform="translate(424.36 333.44)" fill="#fffffd"/>
      <circle id="Ellipse_221" data-name="Ellipse 221" cx="1.44" cy="1.44" r="1.44" transform="translate(428.2 336.86)" fill="#fffffd"/>
      <circle id="Ellipse_222" data-name="Ellipse 222" cx="1.44" cy="1.44" r="1.44" transform="translate(436.32 337.89)" fill="#fffffd"/>
      <circle id="Ellipse_223" data-name="Ellipse 223" cx="1.44" cy="1.44" r="1.44" transform="translate(434.13 346.39)" fill="#fffffd"/>
      <circle id="Ellipse_224" data-name="Ellipse 224" cx="1.44" cy="1.44" r="1.44" transform="translate(440.25 345.9)" fill="#fffffd"/>
      <circle id="Ellipse_225" data-name="Ellipse 225" cx="1.44" cy="1.44" r="1.44" transform="translate(445.26 337.25)" fill="#fffffd"/>
      <circle id="Ellipse_226" data-name="Ellipse 226" cx="1.44" cy="1.44" r="1.44" transform="translate(446.7 344.46)" fill="#fffffd"/>
      <circle id="Ellipse_227" data-name="Ellipse 227" cx="1.44" cy="1.44" r="1.44" transform="translate(444.17 353.89)" fill="#fffffd"/>
      <circle id="Ellipse_228" data-name="Ellipse 228" cx="1.44" cy="1.44" r="1.44" transform="translate(447.56 350.18)" fill="#fffffd"/>
      <circle id="Ellipse_229" data-name="Ellipse 229" cx="1.44" cy="1.44" r="1.44" transform="translate(452.73 346.39)" fill="#fffffd"/>
      <circle id="Ellipse_230" data-name="Ellipse 230" cx="1.44" cy="1.44" r="1.44" transform="translate(455.13 352.1)" fill="#fffffd"/>
      <circle id="Ellipse_231" data-name="Ellipse 231" cx="1.44" cy="1.44" r="1.44" transform="translate(454.88 360.18)" fill="#fffffd"/>
      <circle id="Ellipse_232" data-name="Ellipse 232" cx="1.44" cy="1.44" r="1.44" transform="translate(469.25 356.66)" fill="#fffffd"/>
      <circle id="Ellipse_233" data-name="Ellipse 233" cx="1.44" cy="1.44" r="1.44" transform="translate(478.24 362.45)" fill="#fffffd"/>
      <circle id="Ellipse_234" data-name="Ellipse 234" cx="1.44" cy="1.44" r="1.44" transform="translate(477.19 372.49)" fill="#fffffd"/>
      <circle id="Ellipse_235" data-name="Ellipse 235" cx="1.44" cy="1.44" r="1.44" transform="translate(482.74 366.62)" fill="#fffffd"/>
      <circle id="Ellipse_236" data-name="Ellipse 236" cx="1.44" cy="1.44" r="1.44" transform="translate(488.09 368.53)" fill="#fffffd"/>
      <circle id="Ellipse_237" data-name="Ellipse 237" cx="1.44" cy="1.44" r="1.44" transform="translate(489.7 373.11)" fill="#fffffd"/>
      <circle id="Ellipse_238" data-name="Ellipse 238" cx="1.44" cy="1.44" r="1.44" transform="translate(486.06 376.81)" fill="#fffffd"/>
      <circle id="Ellipse_239" data-name="Ellipse 239" cx="1.44" cy="1.44" r="1.44" transform="translate(493.83 376.44)" fill="#fffffd"/>
      <circle id="Ellipse_240" data-name="Ellipse 240" cx="1.44" cy="1.44" r="1.44" transform="translate(499.03 392.43)" fill="#fffffd"/>
      <circle id="Ellipse_241" data-name="Ellipse 241" cx="1.44" cy="1.44" r="1.44" transform="translate(511.08 391.7)" fill="#fffffd"/>
      <circle id="Ellipse_242" data-name="Ellipse 242" cx="1.44" cy="1.44" r="1.44" transform="translate(515.31 403.9)" fill="#fffffd"/>
      <circle id="Ellipse_243" data-name="Ellipse 243" cx="1.44" cy="1.44" r="1.44" transform="translate(538 402.83)" fill="#fffffd"/>
      <circle id="Ellipse_244" data-name="Ellipse 244" cx="1.44" cy="1.44" r="1.44" transform="translate(519.92 376.44)" fill="#fffffd"/>
      <circle id="Ellipse_245" data-name="Ellipse 245" cx="1.44" cy="1.44" r="1.44" transform="translate(544.8 373.18)" fill="#fffffd"/>
      <circle id="Ellipse_246" data-name="Ellipse 246" cx="1.44" cy="1.44" r="1.44" transform="translate(540.13 344.95)" fill="#fffffd"/>
      <circle id="Ellipse_247" data-name="Ellipse 247" cx="1.44" cy="1.44" r="1.44" transform="translate(554.13 364.65)" fill="#fffffd"/>
      <circle id="Ellipse_248" data-name="Ellipse 248" cx="1.44" cy="1.44" r="1.44" transform="translate(557.78 370.29)" fill="#fffffd"/>
      <circle id="Ellipse_249" data-name="Ellipse 249" cx="1.44" cy="1.44" r="1.44" transform="translate(561.16 374.55)" fill="#fffffd"/>
      <circle id="Ellipse_250" data-name="Ellipse 250" cx="1.44" cy="1.44" r="1.44" transform="translate(512.32 366.42)" fill="#fffffd"/>
      <circle id="Ellipse_251" data-name="Ellipse 251" cx="1.44" cy="1.44" r="1.44" transform="translate(505.83 360.59)" fill="#fffffd"/>
      <circle id="Ellipse_252" data-name="Ellipse 252" cx="1.44" cy="1.44" r="1.44" transform="translate(503.46 356.66)" fill="#fffffd"/>
      <circle id="Ellipse_253" data-name="Ellipse 253" cx="1.44" cy="1.44" r="1.44" transform="translate(507.27 355.33)" fill="#fffffd"/>
      <circle id="Ellipse_254" data-name="Ellipse 254" cx="1.44" cy="1.44" r="1.44" transform="translate(487.45 344.95)" fill="#fffffd"/>
      <circle id="Ellipse_255" data-name="Ellipse 255" cx="1.44" cy="1.44" r="1.44" transform="translate(474.5 338.12)" fill="#fffffd"/>
      <circle id="Ellipse_256" data-name="Ellipse 256" cx="1.44" cy="1.44" r="1.44" transform="translate(474.5 334)" fill="#fffffd"/>
      <circle id="Ellipse_257" data-name="Ellipse 257" cx="1.44" cy="1.44" r="1.44" transform="translate(474.01 330.33)" fill="#fffffd"/>
      <circle id="Ellipse_258" data-name="Ellipse 258" cx="1.44" cy="1.44" r="1.44" transform="translate(415.2 278.81)" fill="#fffffd"/>
      <circle id="Ellipse_259" data-name="Ellipse 259" cx="1.44" cy="1.44" r="1.44" transform="translate(410.64 271.9)" fill="#fffffd"/>
      <circle id="Ellipse_260" data-name="Ellipse 260" cx="1.44" cy="1.44" r="1.44" transform="translate(405.21 268.32)" fill="#fffffd"/>
      <circle id="Ellipse_261" data-name="Ellipse 261" cx="1.44" cy="1.44" r="1.44" transform="translate(405.76 272.54)" fill="#fffffd"/>
      <circle id="Ellipse_262" data-name="Ellipse 262" cx="1.44" cy="1.44" r="1.44" transform="translate(396.54 269.46)" fill="#fffffd"/>
      <circle id="Ellipse_263" data-name="Ellipse 263" cx="1.44" cy="1.44" r="1.44" transform="translate(387.41 270.66)" fill="#fffffd"/>
      <circle id="Ellipse_264" data-name="Ellipse 264" cx="1.44" cy="1.44" r="1.44" transform="translate(384.75 299.32)" fill="#fffffd"/>
      <circle id="Ellipse_265" data-name="Ellipse 265" cx="1.44" cy="1.44" r="1.44" transform="translate(393.16 297.54)" fill="#fffffd"/>
      <circle id="Ellipse_266" data-name="Ellipse 266" cx="1.44" cy="1.44" r="1.44" transform="translate(480.16 335.42)" fill="#fffffd"/>
      <circle id="Ellipse_267" data-name="Ellipse 267" cx="1.44" cy="1.44" r="1.44" transform="translate(480.16 330.33)" fill="#fffffd"/>
      <circle id="Ellipse_268" data-name="Ellipse 268" cx="1.44" cy="1.44" r="1.44" transform="translate(546.24 406.18)" fill="#fffffd"/>
      <circle id="Ellipse_269" data-name="Ellipse 269" cx="1.44" cy="1.44" r="1.44" transform="translate(546.85 410.84)" fill="#fffffd"/>
      <circle id="Ellipse_270" data-name="Ellipse 270" cx="1.44" cy="1.44" r="1.44" transform="translate(546.85 414.97)" fill="#fffffd"/>
      <circle id="Ellipse_271" data-name="Ellipse 271" cx="1.44" cy="1.44" r="1.44" transform="translate(551.89 413.02)" fill="#fffffd"/>
      <circle id="Ellipse_272" data-name="Ellipse 272" cx="1.44" cy="1.44" r="1.44" transform="translate(555.86 426.02)" fill="#fffffd"/>
      <circle id="Ellipse_273" data-name="Ellipse 273" cx="1.44" cy="1.44" r="1.44" transform="translate(427.6 346.39)" fill="#fffffd"/>
      <circle id="Ellipse_274" data-name="Ellipse 274" cx="1.44" cy="1.44" r="1.44" transform="translate(394.6 327.46)" fill="#fffffd"/>
      <circle id="Ellipse_275" data-name="Ellipse 275" cx="1.44" cy="1.44" r="1.44" transform="translate(396.54 336.06)" fill="#fffffd"/>
      <circle id="Ellipse_276" data-name="Ellipse 276" cx="1.44" cy="1.44" r="1.44" transform="translate(404.37 335.42)" fill="#fffffd"/>
      <circle id="Ellipse_277" data-name="Ellipse 277" cx="1.44" cy="1.44" r="1.44" transform="translate(404.66 341.5)" fill="#fffffd"/>
      <circle id="Ellipse_278" data-name="Ellipse 278" cx="1.44" cy="1.44" r="1.44" transform="translate(390.12 337.89)" fill="#fffffd"/>
      <circle id="Ellipse_279" data-name="Ellipse 279" cx="1.44" cy="1.44" r="1.44" transform="translate(384.33 348.97)" fill="#fffffd"/>
      <circle id="Ellipse_280" data-name="Ellipse 280" cx="1.44" cy="1.44" r="1.44" transform="translate(377.19 344.38)" fill="#fffffd"/>
      <circle id="Ellipse_281" data-name="Ellipse 281" cx="1.44" cy="1.44" r="1.44" transform="translate(373.32 361.23)" fill="#fffffd"/>
      <circle id="Ellipse_282" data-name="Ellipse 282" cx="1.44" cy="1.44" r="1.44" transform="translate(362.92 372.06)" fill="#fffffd"/>
    </g>
  </g>
</svg>
