<svg xmlns="http://www.w3.org/2000/svg" viewBox="0 0 801.51488 519.68682"><g id="Layer_2" data-name="Layer 2"><g id="Layer_2-2" data-name="Layer 2"><path d="M458.0516,205.34738a5.7791,5.7791,0,0,0,.98826,2.62671A5.74951,5.74951,0,0,1,458.0516,205.34738Z" fill="none" stroke="#ebac4e" stroke-miterlimit="10"/><path d="M474.00675,218.7279c-7.737-7.24289-14.56378-13.4975-15.77309-13.4975C459.56,205.03532,466.5168,211.64105,474.00675,218.7279Z" fill="none" stroke="#ebac4e" stroke-miterlimit="10"/><path d="M539.3893,301.16766c-4.65-7.03-10.71-15.87-18.24-26.01q-1.92-2.59506-3.98-5.31c.19.27.4.54.59.84a93.04457,93.04457,0,0,0-16.45-16.9c-1.41-1.11005-2.78-2.11005-4.1-3.03-21.42005-14.85-35.11-21.91-35.11-21.91-4.01-2.07-7.31-3.62-10.33-5.41a39.35031,39.35031,0,0,1-3.61-7.3c-2.27-6.07-1.75-9.42-5.24-14.68-2.84-4.26-4.87-4.61-9.46-9.22-.69-.69-1.3-1.35-1.86005-1.98-.18994-.21-.37-.41-.54-.62-4.87-5.71-4.9-9.07-8.56-12.83-9.7-9.99-28.85-6.28-35.6-4.98-6.67005,1.28-15.24,5.91-32.37,15.18-20.19,10.91-24.09,14.83-26.9,18.43-5.8,7.45-3.27,8.9-10.7,18.92-7.42,10.01-11.77,11.07-15.69,20.17005a20.51848,20.51848,0,0,0-.91,2.57v.01c-.05.17005-.11.35-.17.54-.07.26-.15.54-.24.86q-.045.15-.09.33c-.07.23-.15.49-.22.76-.16.55-.34,1.19-.55,1.92-.04.12-.08.24-.11.37-.08.25-.15.52-.23.8-.2.69-.43006,1.46-.68006,2.32-.1.31-.19.64-.29.98-.23.76-.47,1.59-.74,2.49-1.29,4.29-2.44,8.07995-3.4,11.15-1.38,1.75-2.9,3.68-4.58,5.78-3.57,4.51-6.76,8.49-9.38,11.77,0-.01-.02-.01-.03-.03-1.16-.85-6.35,4.35-7.1,5.11-4.81,4.83-5.58,8.37-8.96,11.95-4.42,4.69-5.95,4.93-13.61,11.62q-1.17,1.02-2.4,2.1a110.42925,110.42925,0,0,0-12.54,12.84,95.00833,95.00833,0,0,0-6.97,9.63006,122.95289,122.95289,0,0,1-14.41,17.51c1.44-2.27,2.12-3.62012,1.79-3.91015-.67-.57-4.42,4.15014-11.28,8.64013-3.75,2.43994-8.03,6.27-11.46,8.3899.69-2.15992,2.39-6.96,4.23-9.47,2.12994-2.90991,3.92-3.54,7.47-6.97,6.34-6.13,9.51-9.17993,11.46-12.2,3.91-6.07007,2.38995-7.67,6.46-12.46008a40.73276,40.73276,0,0,1,8.48-7.21c4.28-2.8,6.77-3.14,9.21-6.48,1.43-1.96,1.35-2.79,2.99-5.22,1.86005-2.76,3.6-4.09,8.46-7.98,3.42-2.71,6.79-5.48005,10.21-8.21.32-.25.62-.49.91-.73,3.88-3.07,5.96-4.74,8.05-6.49,9.17-7.65,12.59-11.59,15.19-15.68,1.93-3.05,3.9-6.22,2.74-7.97a2.30625,2.30625,0,0,0-1.07995-.85c-.04-.02-.08-.04-.13-.06-1.17.1-2.34-.29-3.77-.1-3.51.5-3.74,3.81-9.71,10.21-3.61,3.88-4.78,4.02-7.47,7.73-1.84,2.53-1.9,3.3-3.48,5.47a30.28644,30.28644,0,0,1-8.47,7.72c-2.6,1.73-7.18,5.21-13.47,10.19-.4.49-.81,1-1.22,1.52-5.96,7.42-9.23,11.04-14.2,14.69a47.72374,47.72374,0,0,1-4.06,2.71c-.25994.56-.56994,1.14-.92,1.76-.34.6-.66,1.16-1,1.67,1.43-3.38995,2.59-6.29,3.5-8.63995,2.83-7.29,3.31-9.33,5.64-12.78,3.98-5.91,7.02-5.73,11.29-11.61,5.13-7.09,3.9-9,8.29-15.6,4.53-6.8,7.43-7.21,18.27-17.61,5.57-5.34,9.35-9.6,12.61005-13.28,9.74-10.97,11.75-15.17,21.57995-26.55,7.49-8.67,8.87-10.31994,10.96-11.96,5.67-4.44,8.62-4.67,12.4-9.59a8.43282,8.43282,0,0,0,.85-1.47c1.07-3.22,1.37-6.42005.19-7.28-1.3-.96-4.4.9-7.39,3.18-1.21,1.66-2.59,3.49-4.14,5.46a62.99735,62.99735,0,0,1-6.27,7.29,27.94733,27.94733,0,0,1-9.78,5.75c3.41-6.27,5.4-9.9,6.66-11.96,4.22-6.91,12.17-19.98,26.4-29.89,12.6-8.77,14.9-3.26,33.37-12.95,17.78-9.32,20.58-16.75,30.37-15.93,4.68.38,10.65,4.75,22.42,13.45,8.36,6.19,14.54,11.4,20.41,16.42,14.71,12.59,19.37,16.97,26.9,23.41,17.32,14.81994,20.68,15.54,32.36,25.41,6.82,5.74,12.99,12.12,20.6,20.87-2.73-1.51-10.32-3.02-13.85-4.27-6.36-2.25-8.99-5-14.33-9.37a25.9321,25.9321,0,0,1-3.2-3.92c-3.76-5.76-2.98-9.29-7.97-13.61-.13-.11-.26-.22-.42-.34-5-3.97-7.58-4.12-12.53-6.97-4.8-2.76-6.79-5.24-8.64-4.32a2.677,2.677,0,0,0-1.15,1.34c-.88,1.91.9,5.29,3.43,8.72.9,1.23,1.9,2.47,2.91,3.65,0,.01,0,.01.02.01.14.22.3.44.46.68a4.05365,4.05365,0,0,1,.29.43006,107.19144,107.19144,0,0,0,21.52,22.39c.13995.1.29.21.42.31.35.26.68.52,1.01.76,9.42,6.98,11.83,5.73,22.89,14.85,9.42,7.75,14.93994,14.55,20.92,21.91,6.07,7.47,8.65,11.57,9.96,16.93a28.727,28.727,0,0,1,.78,5.05A31.53154,31.53154,0,0,1,539.3893,301.16766Z" fill="#fffffd" stroke="#ebac4e" stroke-miterlimit="10"/><path d="M324.98811,197.55838l.13008-.117a16.51726,16.51726,0,0,1-1.0143,1.56034c-3.784,4.91532-6.73574,5.14937-12.40519,9.58356-2.09352,1.63836-3.47187,3.28981-10.96183,11.963-9.83054,11.37795-11.83311,15.57809-21.57262,26.55294-3.26386,3.6799-7.0478,7.932-12.61328,13.27639-10.84477,10.40269-13.74449,10.80579-18.26972,17.60661-4.39514,6.60565-3.15981,8.51719-8.29615,15.604-4.26507,5.87747-7.30789,5.69548-11.28692,11.612-2.32757,3.44584-2.80869,5.48738-5.64341,12.78225-.91026,2.34067-2.06757,5.2404-3.49791,8.63426-2.60068,4.01807-5.34445,5.86453-13.43251,13.78362-10.51975,10.29864-8.47822,9.72649-17.43756,18.42575-13.18535,12.79527-16.38421,12.83431-23.40606,21.91064-5.98152,7.724-4.90221,9.31046-10.45468,17.42454-6.78772,9.92158-11.28691,11.781-27.38509,25.90269-12.49622,10.94881-21.61159,18.9329-31.37713,30.87C84.86795,468.6136,87.59862,469.43282,79.13342,477.846c-12.13209,12.04113-19.80411,12.45725-31.37706,23.9002A79.33273,79.33273,0,0,0,35.2861,517.7533c-2.52266,0-5.04531-.01293-7.568-.01293-8.59521-.026-17.17748-.026-25.77269-.05207a286.99646,286.99646,0,0,0,46.305-31.37713c15.175-12.63924,17.26851-17.1124,47.31927-45.31671,15.82516-14.86284,16.59231-14.88887,32.36541-29.88171,19.427-18.47782,29.14051-27.71018,36.85158-37.34572,17.28144-21.59857,11.755-23.237,27.38509-40.34941,9.24537-10.10364,19.83013-18.998,27.89216-32.3654a110.53369,110.53369,0,0,1,6.96986-10.45476c4.94127-6.52763,8.51719-9.68744,13.44544-14.94086,9.96063-10.58468,8.03607-11.16984,14.44672-17.42446,12.93837-12.63932,19.86919-9.38847,28.88051-20.92246,1.31336-1.6774.59819-1.01422,9.46649-17.42446,1.33931-2.4967,2.5356-4.72023,3.6149-6.69677v-.013c.234-.42914.45516-.84525.6762-1.24836a28.1077,28.1077,0,0,0,9.77848-5.74746,63.73782,63.73782,0,0,0,6.26763-7.29487c1.5474-1.96352,2.92576-3.797,4.13506-5.46143,2.99084-2.27559,6.09859-4.13506,7.39892-3.17283,1.17034.85827.87128,4.057-.195,7.28194C324.93612,197.55838,324.97517,197.58441,324.98811,197.55838Z" fill="#76bccc" stroke="#ebac4e" stroke-miterlimit="10"/><path d="M358.51083,177.54618c-5.35738,5.07134-10.90985,1.06628-18.91989,5.98159-3.13385,1.91146-3.00377,2.97775-7.29495,7.35987l-7.1778,6.55375-.13008.117c-.01294.026-.052,0-.039-.02595,1.06628-3.22489,1.36534-6.42367.195-7.28194-1.30033-.96223-4.40808.89724-7.39892,3.17283-.221.169-.42905.3381-.65017.50715-.026.026-.078-.013-.065-.052l2.19758-6.59271a11.17792,11.17792,0,0,1,2.92575-3.26386c2.96481-2.15861,5.6435-1.63844,9.96063-4.98031,2.84774-2.19758,2.37956-2.95179,4.98023-4.98032,3.13386-2.43162,5.33143-2.50964,11.9501-4.47316,9.63554-2.87369,11.69009-4.6942,12.95138-3.49791C363.76416,167.79365,362.34684,173.90525,358.51083,177.54618Z" fill="#d6e8fa" stroke="#ebac4e" stroke-miterlimit="10"/><path d="M389.38549,152.64969c-2.63845.33656-3.16012,1.50491-8.466,4.98-4.97928,3.2612-6.63169,3.61537-6.972,5.478a4.93272,4.93272,0,0,0,2.49,4.98c2.19051,1.04835,3.77474-1.048,11.454-3.984a58.45183,58.45183,0,0,1,8.964-2.988c3.15195-.66112,4.66022-.57953,4.98-1.494.5581-1.59621-3.07409-4.59987-6.474-5.976A11.5124,11.5124,0,0,0,389.38549,152.64969Z" fill="#d6e8fa" stroke="#ebac4e" stroke-miterlimit="10"/><path d="M291.2834,258.72627a5.73592,5.73592,0,0,1-2.24956,3.732,3.39129,3.39129,0,0,1-1.70344.58509c-1.17033.10405-2.34059-.286-3.771-.091-3.51093.49413-3.745,3.81-9.71348,10.20761-3.602,3.875-4.7723,4.01808-7.464,7.724-1.84646,2.53568-1.89844,3.30283-3.48489,5.47445a30.49443,30.49443,0,0,1-8.46513,7.724c-2.60067,1.7294-7.17789,5.20135-13.47155,10.18158,1.10533-1.30033,2.0936-2.57464,2.96481-3.797a53.16907,53.16907,0,0,0,4.77221-7.88c3.30283-6.67074,2.66567-8.82926,6.22858-13.93966,4.17411-6.00755,5.94255-4.33006,13.44552-12.45717,4.42118-4.78523,6.08557-7.828,11.456-11.456,5.59143-3.771,7.698-3.09481,8.4652-2.73076C290.45117,253.01778,291.7515,256.07354,291.2834,258.72627Z" fill="none" stroke="#ebac4e" stroke-miterlimit="10"/><path d="M285.796,271.92464c-2.60068,4.0961-6.02057,8.03608-15.188,15.68206-2.24955,1.88551-4.4861,3.667-8.95926,7.21686-3.41989,2.73075-6.7878,5.50048-10.20769,8.21813-4.86325,3.888-6.60565,5.21437-8.4652,7.97108-1.63836,2.43162-1.56035,3.26385-2.99076,5.22738-2.43163,3.34187-4.92825,3.68-9.20633,6.47565a40.60284,40.60284,0,0,0-8.47822,7.21685c-4.07006,4.78531-2.54869,6.3847-6.46272,12.45725-1.9505,3.01679-5.12333,6.07255-11.456,12.19716-3.5499,3.43291-5.34437,4.05705-7.47694,6.96979a25.04067,25.04067,0,0,0-3.61489,7.20392c-.26009.81922-.45517,1.57335-.6112,2.26257a174.44884,174.44884,0,0,0-13.95259,11.703,168.168,168.168,0,0,0-15.435,16.43628c-6.98281,8.60822-5.79953,9.07632-10.70175,14.69379-6.5147,7.4509-10.77984,9.10236-20.92245,16.93033a159.94582,159.94582,0,0,0-20.41531,18.17876c-10.03856,10.8708-10.80579,15.9681-23.40606,32.61247-3.23783,4.27808-3.47188,4.26507-13.93957,16.93033-6.1116,7.38591-11.443,13.91362-15.81214,19.284-1.49534,0-2.97775,0-4.47316-.013q-9.16728,0-18.33472-.026a79.33273,79.33273,0,0,1,12.47026-16.00714c11.57295-11.44295,19.245-11.85907,31.37706-23.9002,8.4652-8.41314,5.73453-9.23236,16.93041-22.91193,9.76554-11.93708,18.88091-19.92117,31.37713-30.87,16.09818-14.12164,20.59737-15.98111,27.38509-25.90269,5.55247-8.11408,4.47316-9.70054,10.45468-17.42454,7.02185-9.07633,10.22071-9.11537,23.40606-21.91064,8.95934-8.69926,6.91781-8.12711,17.43756-18.42575,9.11538-8.93331,11.44295-10.12968,14.43371-15.448.35112-.62422.66319-1.20931.92327-1.76852a48.74741,48.74741,0,0,0,4.057-2.70464c4.9673-3.654,8.24417-7.26892,14.19966-14.69379.41612-.52017.81922-1.02732,1.22232-1.52146,6.29366-4.98023,10.87088-8.45218,13.47155-10.18158a30.49443,30.49443,0,0,0,8.46513-7.724c1.58645-2.17162,1.63843-2.93877,3.48489-5.47445,2.6917-3.70592,3.862-3.849,7.464-7.724,5.9685-6.39763,6.20255-9.71348,9.71348-10.20761,1.43041-.19508,2.60067.195,3.771.091a2.48247,2.48247,0,0,1,1.20931.91025C289.697,265.70908,287.73351,268.8819,285.796,271.92464Z" fill="#76bccc" stroke="#ebac4e" stroke-miterlimit="10"/><path d="M213.62732,357.90291c-2.2886,3.58894-6.47573,9.46649-11.495,17.02144-10.40269,15.68206-9.11537,15.643-14.60276,23.237-9.73951,13.49751-19.93418,22.15771-27.55414,28.55543-13.01638,10.92278-15.526,10.15563-27.89224,21.24746a203.30874,203.30874,0,0,0-18.5948,19.258c-8.72529,10.01261-12.10613,15.61706-28.21732,38.17787-3.34188,4.68126-6.35867,8.86831-8.93331,12.43122-1.23533,0-2.47067,0-3.706-.01294-4.85023,0-9.68744-.013-14.53775-.026,4.36919-5.3704,9.70054-11.89811,15.81214-19.284,10.46769-12.66526,10.70174-12.65225,13.93957-16.93033,12.60027-16.64437,13.3675-21.74167,23.40606-32.61247a159.94582,159.94582,0,0,1,20.41531-18.17876c10.14261-7.828,14.40775-9.47943,20.92245-16.93033,4.90222-5.61747,3.71894-6.08557,10.70175-14.69379a168.168,168.168,0,0,1,15.435-16.43628,174.44884,174.44884,0,0,1,13.95259-11.703l1.40438-.92327c3.44593-1.66439,6.30661-5.01928,10.05158-7.46392,6.86582-4.48617,10.61079-9.2064,11.287-8.63425C215.74688,354.288,215.07068,355.64033,213.62732,357.90291Z" fill="#7ecbd3" stroke="#ebac4e" stroke-miterlimit="10"/><path d="M276.58931,295.48767c-.58.94-1.87,2.91-6.8,7.85-4.57995,4.58-5.86,5.28-8.76,8.47-2.46,2.69-4.69,4.25-5.78,7.42005a13.881,13.881,0,0,0-.7,3.87c-.56.45-1.16.96-1.79,1.49q-1.215,1.035-2.61,2.28c-.51.45-1.03.92005-1.57,1.41-.45.41-.92.85-1.4,1.3-.48.45-.97.91-1.46,1.38-.49006.48-.99006.96-1.5,1.47a160.47485,160.47485,0,0,0-16.43006,19.42c-2.69,3.61-7.67,10.36-21.79,31.13-4.23,6.21-8,11.81994-15.82,23.27991-9.14,13.42-10.05,14.66-11.45,16.43a147.745,147.745,0,0,1-21.29,21.91c-12.53,10.45-14.49,8.3899-26.64,18.80005a140.65175,140.65175,0,0,0-18.3,19.04993c-5.38,6.76-8.52,12.03-14.07,21.42-2.34,3.95-5.03,8.62989-7.94,13.99-1.37,0-2.72,0-4.09-.01-3.35,0-6.71,0-10.06-.02,2.57-3.56,5.59-7.75,8.93-12.42993,16.11-22.56006,19.49-28.16015,28.22-38.18a203.63006,203.63006,0,0,1,18.59-19.25c12.37-11.1,14.88-10.33,27.9-21.25,7.62-6.4,17.81-15.05994,27.55005-28.55994,5.49-7.59009,4.2-7.55005,14.6-23.2301,1.91-2.88,3.71-5.5199,5.32-7.87.24-.35.48-.7.7-1.04.94-1.36988,1.81-2.62989,2.59-3.78.17005-.25.34-.49.48005-.72.95-1.3899,1.75994-2.59,2.41-3.60987a122.95289,122.95289,0,0,0,14.41-17.51,95.00833,95.00833,0,0,1,6.97-9.63006,110.42925,110.42925,0,0,1,12.54-12.84q1.23-1.08,2.4-2.1c7.66-6.69,9.19-6.93,13.61-11.62,3.38-3.58,4.15-7.12,8.96-11.95.75-.76,5.94-5.96,7.1-5.11.01.02.03.02.03.03C280.5193,287.96771,278.46932,292.46771,276.58931,295.48767Z" fill="#6ac4cd" stroke="#ebac4e" stroke-miterlimit="10"/><path d="M481.10927,284.96771c-.42-.12-.82-.21-1.21-.3-.34-.08-.68-.13995-1.02-.18994a.52248.52248,0,0,0-.18-.03,11.7655,11.7655,0,0,0-1.17-.17c-.02,0-.06-.01-.09-.01-.35-.04-.7-.08-1.05-.11-.12,0-.24-.01-.35-.02-.28-.03-.54-.04-.8-.05-.37-.03-.75-.04-1.13-.07a.969.969,0,0,1-.17-.01c-.52-.03-1.04-.05-1.57-.09-.19-.01-.37-.03-.55-.05q-.3-.02994-.6-.06a.1266.1266,0,0,1-.06-.01c-.05,0-.11005-.00994-.16-.00994-.04,0-.09-.01-.13-.01-.14-.02-.27-.04-.41-.06a2.90381,2.90381,0,0,1-.31-.04,1.77678,1.77678,0,0,1-.21-.03.58481.58481,0,0,1-.13-.02c-.02,0-.03-.01-.04-.01h-.03a1.34731,1.34731,0,0,1-.18-.03c-.17-.03-.34-.05-.52-.09-.04-.01-.09-.01-.16-.03a1.28458,1.28458,0,0,1-.19-.04,2.9607,2.9607,0,0,1-.38-.09c-.23-.05-.48-.11-.73-.18a2.53709,2.53709,0,0,0-.37-.1c-.13-.04-.25-.07995-.37-.12h-.01a1.27039,1.27039,0,0,0-.23-.08c-.15-.05-.29-.1-.43-.15a2.87557,2.87557,0,0,1-.37-.15,4.31566,4.31566,0,0,1-.48-.19,19.67805,19.67805,0,0,1-3.22-1.73c-7-4.56-5.13995-8.6-12.46-14.45-8.96-7.16-13.69-2.66-24.4-8.46-14.4-7.79-12.93-19.75-25.39-22.9-8.21-2.08-15.62,1.39-17.93,2.48-4.2,1.97-7.7,4.83-19.43,21.42-12.14,17.18994-11.29,18.23-15.93,21.91-.79.62-1.56,1.18-2.29,1.66-.24.16-.49.32-.73.47q-.525.33-1.05.63c-.12.06-.23.13-.35.19a2.785,2.785,0,0,1-.42.22c-.09.04-.16.09-.26.13-.22.12-.44.22-.66.33-.44.21-.87.4-1.3.57-.03.01-.05.03-.08.04-.45.18-.91.35-1.35.51-.16.05-.3.1-.45.15-.04.00994-.08.03-.13.04-.37.13-.73.25-1.1.35-.01,0-.01,0-.02.01a2.34653,2.34653,0,0,0-.25.07.74854.74854,0,0,1-.16.05,1.20062,1.20062,0,0,1-.18.05c-.1.03-.22.07-.32.09-.22.07-.46.13-.68.2-.27.09-.56.17-.83.25-.4.11-.8.23-1.2.35-.34.1-.69.21-1.04.34a1.57107,1.57107,0,0,0-.35.11c-.22.08-.45.16-.7.25a27.7,27.7,0,0,0-2.97,1.26c-.26.13-.52.26-.78.4-.26.15-.53.3-.8.46-.04,0-.07.03-.11.05-.24.13-.48.27-.73.43-.01,0-.01.01-.02.01a20.90934,20.90934,0,0,1,5.37-8.67c4.67-4.86,7.31-3.17,12.21-6.98,8.48-6.6,4.47-14.7,13.44-26.14,3.18-4.06,2.67-1.75,12.45-10.96,12.13995-11.43,13.24-15.26995,18.92-16.19,3.3-.52,7.68.9,16.44,3.74,5.74,1.86005,8.62,2.8,10.45,4.23,7.27,5.68,3.72,12.68,10.22,17.93,5.03,4.07,8.08.6,16.67,5.98,3.51,2.19,3.81,3.27,8.73,6.22,5.74,3.46,6.95,2.98,9.71,5.23,5.19,4.29,2.74,7.63,7.22,12.7C471.58931,282.5177,477.2693,282.68768,481.10927,284.96771Z" fill="none" stroke="#ebac4e" stroke-miterlimit="10"/><path d="M740.67934,519.06768c-4.65-.01-9.31006-.03-13.97-.03H723.5193c-5.4-4.80993-15.37-7.73-27.86-17.79-12.96-10.41993-9.93994-13.48-29.38-34.85987a258.64861,258.64861,0,0,0-33.37-31.37011c-22.91-17.78-25.9-12.96-41.83-27.87989-5.35-5.01-5.54-6.06006-30.38-34.37011-5.19-5.90992-9.61-10.91993-12.91-14.6399-.85-3.41-1.79-6.58008-2.79-9.51-.33-1.01-.68-1.99-1.04-2.94006-.2-.52991-.4-1.04993-.6-1.57a85.71752,85.71752,0,0,0-4.48-9.73c-.22-.41-.44-.81-.67-1.21-.58-1.03-1.17-2.02-1.77-2.96-.17-.26-.33-.52-.5-.77-.46-.72-.93-1.41-1.4-2.08-.24-.32995-.47-.65-.71-.97a56.38486,56.38486,0,0,0-5.6-6.55c-.23-.24-.46-.47-.69995-.69q-.34506-.34506-.69-.66c-3.81-3.56-9.28-7.6-16.94-16.28-10.68-12.08-9.47-14.86-16.93-20.57-9.31-7.13-14.16-5.06-22.58-13.29-5.8-5.67-3.92-7.07-9.29-12.27-9.56-9.28-16.74-6-26.9-14.28-6.19-5.06-3.7-6.81994-12.95-17.61-10.13-11.83-15.37-17.94-22.9-19.91-15.3-4-31.31,11.46-36.52,16.26995-15.22,14.04-11.73,26.58-30.87,48.14-10.46,11.77-12.73005,9.44-23.58,22.57-13.38,16.22-11.09,21.22-22.25,31.87-13.7,13.1-20.48,8.7-29.88,21.25006-3.52,4.72-3.83,7.03992-12.27,27.8899-1.72,4.24-3.32995,8.14013-4.78,11.63012-10.05,9.43994-12.27,10.37989-18.63,17.25-7.52,8.12989-11.07,14.03992-16.44,21.91992-11.98,17.59009-21.61,35.48-38.84,47.81006-17.56,12.55994-23.19,13.95-32.87,27.87989a74.71471,74.71471,0,0,0-9.52,19.15014q-15.705-.015-31.41-.05005c2.91-5.3601,5.6-10.04,7.94-13.99,5.55-9.39,8.69-14.66,14.07-21.42a140.65175,140.65175,0,0,1,18.3-19.04993c12.15-10.41015,14.11005-8.3501,26.64-18.8a147.745,147.745,0,0,0,21.29-21.91c1.4-1.77,2.31-3.01,11.45-16.43,7.82-11.46,11.59-17.07,15.82-23.27991,14.12-20.77,19.1-27.52,21.79-31.13a160.47485,160.47485,0,0,1,16.43006-19.42c.50994-.51,1.00994-.99,1.5-1.47.49-.48.99-.93,1.46-1.38.24-.23.48-.45.71-.67.23-.2.45-.41.67-.6a.07715.07715,0,0,0,.02-.03c.54-.49,1.06-.96,1.57-1.41.47-.42.91-.81,1.35-1.19s.86-.75,1.26-1.09a47.35971,47.35971,0,0,0,7.15-2.78,46.43042,46.43042,0,0,0,6.51-3.88,51.43572,51.43572,0,0,0,5.44-4.42c26.34-24.12,39.58-36.25,42.83-40.18,18.53-22.38,13.16-25.23,32.86-48.14,15.89-18.46,25.25-23.44,33.21-25.89,6.01-1.86,18.47-5.95,30.21-.66,16.1,7.24,9.55,22.46,28.21,36.51,6.64,5,16.66,10,36.53,19.92a40.80844,40.80844,0,0,1,9.96,6.65c5.48,5.03,5.41,7.96,9.96,12.94,6.02,6.6,9.36,5,16.27,10.96,6.16,5.3,6.23,8.95,11.94995,17.59,1,1.51,1.92,2.82,2.82,3.98a50.20471,50.20471,0,0,0,3.83,4.41c.55.56,1.09,1.09,1.65,1.61,2.63995,2.5,5.4,4.73,9,8.39,1.12,1.13,2.31,2.4,3.61,3.86.53.59,1.03,1.16,1.49,1.71a64.875,64.875,0,0,1,4.15,5.35c.37.54.69995,1.04,1.02,1.55a3.16706,3.16706,0,0,0,.23.36,2.77817,2.77817,0,0,1,.22.37c.22.35.43.7.64,1.05.22.37.43.73.64,1.09.19995.37.41.73.62,1.11.35.64.7,1.29,1.08,1.96.83,1.52,1.75,3.18,2.91,5.13012.3.5.63,1.02.96,1.58.51995.86,1.11,1.7699,1.75,2.75.17.2699.35.53992.53.81994q.63.975,1.35,2.01c.2.3.39.6001.61005.9.54.78992,1.11,1.61,1.72,2.47.72,1.01,1.48,2.09,2.3,3.22009.38.52991.77,1.07,1.17005,1.62989,1.53,2.10009,3.22,4.37011,5.1,6.75.52.66,1.06,1.34008,1.62,2.03q1.575,1.95008,3.33,3.98c.5.59008,1.02,1.18,1.55,1.77q.78.90015,1.62,1.8c.63.7,1.28,1.3899,1.95,2.1.48.51.98,1.02,1.49,1.53992.59.6101,1.21,1.2301,1.83,1.84008.74.73,1.49,1.46,2.26,2.18995.53.5,1.07,1.01,1.62,1.51.67.62011,1.35,1.23,2.05,1.85009,14.37,12.68994,16.82,9.71,30.87,22.89991,10.24,9.59008,9.87,12.04,22.91,24.57006,11.37012,10.90992,12.68005,10.05,22.25,19.59,12.41,12.36,10.80005,14.39,22.58008,26.55994,8.35986,8.64013,16.87988,17.41015,30.19995,25.57006C729.68935,512.13775,736.22926,514.72772,740.67934,519.06768Z" fill="#1ba0b4" stroke="#ebac4e" stroke-miterlimit="10"/><path d="M469.7693,283.61767c.01,0,.02.01.04.01a.12672.12672,0,0,1-.06-.01Z" fill="#66a0b2" stroke="#ebac4e" stroke-miterlimit="10"/><path d="M469.93929,283.6477c.03.01.06.01.09.02a.67948.67948,0,0,1-.15-.02Z" fill="#66a0b2" stroke="#ebac4e" stroke-miterlimit="10"/><path d="M471.27931,283.82769a2.371,2.371,0,0,1-.28-.04c.05,0,.11.00994.16.00994a.1266.1266,0,0,0,.06.01A.14231.14231,0,0,1,471.27931,283.82769Z" fill="#66a0b2" stroke="#ebac4e" stroke-miterlimit="10"/><path d="M308.83931,380.7077v.02s-.06.09-.16.23C308.72926,380.87774,308.77931,380.79766,308.83931,380.7077Z" fill="#76bccc" stroke="#ebac4e" stroke-miterlimit="10"/><path d="M498.09926,374.68768c-4.76-2.36-8.71-3.86-12.12994-6.45007-.14-.09986-.29-.22-.42005-.32a22.238,22.238,0,0,1-4.53-4.93994c-1.1-1.6-.93-1.7301-5.97-10.97009-5.55-10.11988-8.34-15.17994-8.97-14.94-.04.02-.07.04-.08.07007a29.298,29.298,0,0,0-1.91-2.97009c-2.84-3.84-4.43-4.08-8.22-8.96-3.08-3.97-2.58-4.49-5.72-8.72-4.7-6.27-8.87-9.19-8.47-9.7.24-.31,1.85.62,9.7,5.23,7.32,4.27,7.79,4.53,8.73,5.47,3.72,3.73,2.82,6.01,6.47,10.96,3.33,4.51,5.52,4.55,8.71,7.96008,4.06,4.32984,1.96,6.58985,6.73,17.43994,2.04,4.64991,3.11,7.03,5.22,9.2,3.16,3.26,5.64,3.54,8.22,6.73A15.25324,15.25324,0,0,1,498.09926,374.68768Z" fill="none" stroke="#ebac4e" stroke-miterlimit="10"/><path d="M503.16927,377.44769c-.07-.03992-.14-.08-.22-.13.05-.08007.09-.14.13-.22C503.10927,377.21771,503.14931,377.32769,503.16927,377.44769Z" fill="none" stroke="#ebac4e" stroke-miterlimit="10"/><path d="M504.91927,365.96771c-.32-.3-.64-.62-.97-.96008-.01,0-.01-.01-.01-.02-1.4-1.3899-2.96-3.05994-4.6-4.90992,1.43,1.52,2.94,3.1,4.51,4.76C504.1993,365.2077,504.55928,365.5877,504.91927,365.96771Z" fill="#406d7f" stroke="#ebac4e" stroke-miterlimit="10"/><path d="M287.28926,408.61773c-.36.55994-.73,1.12989-1.11,1.7-.2.32007-.41.63-.62.95-.78,1.21008-1.57,2.43005-2.39,3.66q-1.2,1.83014-2.43,3.67-1.215,1.845-2.46,3.7-1.23,1.845-2.5,3.72-.615.91515-1.26,1.8601c-1.27,1.85987-2.54,3.74-3.84,5.60987-1.16,1.68-2.32,3.37011-3.5,5.06-1.17,1.69-2.36,3.38-3.57,5.09009-.92,1.32-1.87,2.6499-2.82,3.98-.51.72-1.03,1.43994-1.55,2.16992-1.56,2.18006-3.14,4.3501-4.73,6.55q-2.685,3.68994-5.43,7.39-3.015,4.04993-6.1,8.14c-7.73,10.2-22.47,23.96-38.63995,46.2-2.77-.02-5.55-.02-8.32-.02-5.92-.02-11.82-.02-17.74-.03,2.51-10.37989,12.81-20.03992,18.87-25.74,9.5-8.8899,11.94-8.05994,22.42-15.92994,15.54-11.67,17.63-21.58007,29.38-35.85009C256.46932,431.35772,268.3893,419.49762,287.28926,408.61773Z" fill="#1ba0b4" stroke="#ebac4e" stroke-miterlimit="10"/><path d="M308.83931,380.7077v.02s-.06.09-.16.23C308.72926,380.87774,308.77931,380.79766,308.83931,380.7077Z" fill="#638a96" stroke="#ebac4e" stroke-miterlimit="10"/><path d="M321.2693,393.90777c-.04.06995-.09.12988-.14.19995-.37.43994-.73.8899-1.13,1.36.39-.4801.76-.93006,1.11-1.38C321.15932,394.02765,321.21932,393.96771,321.2693,393.90777Z" fill="#638a96" stroke="#ebac4e" stroke-miterlimit="10"/><path d="M321.2693,393.90777c-.04.06995-.09.12988-.14.19995-.37.43994-.73.8899-1.13,1.36.39-.4801.76-.93006,1.11-1.38C321.15932,394.02765,321.21932,393.96771,321.2693,393.90777Z" fill="#1ba0b4" stroke="#ebac4e" stroke-miterlimit="10"/><path d="M368.43929,381.84771c.07-.09008.14-.18.22-.28-.07.09009-.14.17994-.21.28Z" fill="none" stroke="#ebac4e" stroke-miterlimit="10"/><path d="M368.65932,381.56768c-.07.09009-.14.17994-.21.28-.08.09-.15.18994-.22.28.07-.09009.14-.18.21-.28C368.50929,381.75763,368.5793,381.66766,368.65932,381.56768Z" fill="#406d7f" stroke="#ebac4e" stroke-miterlimit="10"/><path d="M491.89931,417.61773c-.72-.94006-1.38-1.85009-1.98-2.74C490.52931,415.76764,491.18929,416.67767,491.89931,417.61773Z" fill="#406d7f" stroke="#ebac4e" stroke-miterlimit="10"/><path d="M600.08931,518.81768q-7.57507-.015-15.14-.02a39.17,39.17,0,0,0-4.33-4.85c-11.6-11.25-17.42-12.01-27.89-21.92-6.5-6.14991-11.31-10.7-15.44-18.41993-3.45-6.46-4.63995-11.78-10.45-16.68a29.54581,29.54581,0,0,0-10.47-5.48c-16.38-5.46008-31.88-15.77-38.34-20.66-5.95-4.51-17.43-13.21-25.15-28.13989-3.93-7.61011-4.59-12.42-10.7-18.92-2.62-2.8-3.41-2.89-17.43-12.70007-11.77-8.25-13.24-9.6-16.44-9.47-5.82.25-9.92,5.11-15.69,11.95-7.37,8.76-6.62,12.31-14.43,20.67-4.07,4.36-4.71,3.84-9.22,8.72009a96.75115,96.75115,0,0,0-11.46,15.67993c-6.2,10.90992-5.68,18.18995-9.71,35.86a225.84242,225.84242,0,0,1-11.95,37.35,166.46845,166.46845,0,0,1-14.35,26.51q-10.005-.015-20.02-.04c21.97-27.92994,27.31-49.18995,27.64-64.05994.19-7.52-.78-19.35,6.48-31.13,5.86005-9.54,10.78-8.76,20.92-22.15991.07-.1001.15-.19006.21-.29.25-.33008.49006-.65.71-.96.23-.31006.45-.62012.66-.92016a66.188,66.188,0,0,0,4.01-6.33985c.2-.3501.38-.68.56-1.01.99-1.82007,1.81-3.45007,2.82-5.16.08-.14.16-.28.25-.42005.1-.16992.2-.34.31-.51.16-.25.32-.5.49-.76a.69836.69836,0,0,1,.1-.15991c.07-.1101.14-.22.22-.33008.07-.1.14-.2.21-.31.19-.2699.38-.53992.58-.82.19-.25989.38-.5199.57995-.78992.07-.09009.14-.18.21-.28.07-.09008.14-.18.22-.28.21-.28.43994-.56.68-.85.12-.15.23-.29.35-.43006.53-.6499,1.12-1.32995,1.77-2.05,6.22-6.8899,7.71-5.92994,17.67-14.94,15.23-13.73,15.87-19.66992,22.42-21.1499,12.62-2.88012,27.04,15.86988,30.87,20.65991,3.64,4.54,4.12,6.37,8.47,10.96,7.64,8.07006,14.65,11.38012,19.18,14.19006q.57.36,1.11.72c.31.20007.6.4.89.61.09.06006.18.12012.27.19007.53.38,1.03.75989,1.51,1.14a30.86953,30.86953,0,0,1,2.82,2.54c.1.09986.19.21.29.30994.19.2.37.39.55.59s.35.4.51.59009q.51.59985.96,1.2c.18006.23.35.46.52.7.27.38.53.77.78,1.15.13.20007.26.4.39.61.44.7.85,1.42005,1.25,2.14q.24.42.45.84c1.85,3.47,3.52,7.27,6.26,11.63.27.43.55.86.85,1.3.14.22.29.44006.44.66.61.8899,1.27,1.79993,1.98,2.74a73.70737,73.70737,0,0,0,5.06,5.93994c14.26,15.12,18.78,8.66,35.85,25.65,10.82,10.77,21.05,25.35,24.41,30.13,8.44,12.03,10.37,16.84,17.91,21.41993,7.35,4.45007,11.75,3.67,18.43,9.95007A38.50223,38.50223,0,0,1,600.08931,518.81768Z" fill="#295566" stroke="#ebac4e" stroke-miterlimit="10"/><path d="M584.9515,518.79364c-4.95428-.013-9.92158-.013-14.87586-.026-3.3679-3.62791-8.99838-7.11288-17.09946-12.04113-7.62-4.64221-7.841-3.953-11.20889-6.72272-5.52644-4.55118-6.22859-7.82805-13.44552-16.43627-8.90728-10.62373-10.42865-11.93709-11.703-12.93837-7.971-6.33263-11.781-5.08428-19.16695-11.703-4.65515-4.174-3.94-5.3704-8.71228-10.4677-7.60694-8.11409-11.651-7.43789-21.41651-14.69379a92.249,92.249,0,0,1-21.16952-22.65184c-2.57464-3.87506-5.17531-8.45219-10.94881-16.43628-2.92576-4.03109-4.9673-6.60573-6.72272-8.71227-7.0478-8.41314-10.55873-12.6263-14.44672-13.19845-6.7228-.98819-12.95139,5.74754-15.68206,8.71227-6.12462,6.63177-4.51221,10.31166-11.2089,17.43756-4.70729,4.99325-5.94255,3.64093-10.20769,8.46513-5.60445,6.33271-7.581,13.32845-8.95934,18.42583-2.15852,7.906-.89724,9.38839-2.49662,16.93033-2.0025,9.45347-4.88928,11.417-8.71228,20.90944-5.76048,14.29069-2.53559,18.04868-7.47693,34.862a113.87634,113.87634,0,0,1-7.932,19.83014q-9.92812-.01953-19.85617-.039A166.61539,166.61539,0,0,0,335.846,491.78561a225.43771,225.43771,0,0,0,11.9501-37.34571c4.031-17.67153,3.51092-24.95347,9.71347-35.86323a96.5582,96.5582,0,0,1,11.456-15.68206c4.51221-4.87626,5.14936-4.35618,9.21942-8.71227,7.815-8.36116,7.06082-11.91113,14.43371-20.67539,5.7735-6.83978,9.86959-11.703,15.69507-11.9501,3.19886-.13,4.66825,1.22232,16.43628,9.46649,14.01759,9.81753,14.81085,9.90856,17.42446,12.70432,6.1116,6.50168,6.77479,11.31286,10.70183,18.91988,7.724,14.92784,19.20592,23.6271,25.14847,28.13923,6.46272,4.88928,21.96271,15.20094,38.34692,20.66237a29.47747,29.47747,0,0,1,10.46777,5.47445c5.81247,4.90229,6.99582,10.22063,10.45468,16.68334,4.122,7.724,8.93331,12.27518,15.435,18.42575,10.46769,9.90856,16.29325,10.66278,27.89224,21.91065A39.73151,39.73151,0,0,1,584.9515,518.79364Z" fill="#295566" stroke="#ebac4e" stroke-miterlimit="10"/><path d="M570.07564,518.7676q-12.61983-.01952-25.25259-.052a71.3661,71.3661,0,0,1-7.52893-8.50426,63.93646,63.93646,0,0,0-7.22987-8.71227c-7.581-7.4509-11.638-5.79945-17.91867-12.44415-6.28057-6.64478-6.78772-10.80588-14.69379-18.42583-3.00378-2.91274-6.15057-5.17532-12.44424-9.71348-12.76924-9.20641-13.79655-8.43917-19.6741-13.19845-10.88381-8.81624-6.9828-11.15691-19.18-21.91064-7.711-6.81375-13.44544-9.55753-16.93033-15.94214a39.05543,39.05543,0,0,0-5.47445-7.97108c-1.98947-2.21058-2.4836-2.2236-4.98031-4.72022-5.81247-5.82549-5.60445-8.2441-8.21806-8.97236-4.36919-1.2093-9.4795,4.33014-11.456,6.47573-5.35746,5.82548-3.95308,8.68624-8.46521,15.435-6.46271,9.68753-12.22319,8.10108-14.94085,15.69508-2.17162,6.08556,1.22224,7.97107-.24707,16.43627-1.39137,8.03608-4.81126,8.3741-8.46521,17.42447-3.68,9.10236-.72818,10.01261-4.48617,28.63344a126.28731,126.28731,0,0,1-4.98032,18.42575,110.31487,110.31487,0,0,1-4.99324,11.638q-5.57854-.01952-11.15692-.026a113.87634,113.87634,0,0,0,7.932-19.83014c4.94134-16.81334,1.71645-20.57133,7.47693-34.862,3.823-9.49245,6.70978-11.456,8.71228-20.90944,1.59938-7.54194.3381-9.02434,2.49662-16.93033,1.37835-5.09738,3.35489-12.09312,8.95934-18.42583,4.26514-4.8242,5.5004-3.47188,10.20769-8.46513,6.69669-7.1259,5.08428-10.80579,11.2089-17.43756,2.73067-2.96473,8.95926-9.70046,15.68206-8.71227,3.888.57215,7.39892,4.78531,14.44672,13.19845,1.75542,2.10654,3.797,4.68118,6.72272,8.71227,5.7735,7.98409,8.37417,12.56122,10.94881,16.43628A92.249,92.249,0,0,0,467.323,433.76459c9.76555,7.2559,13.80957,6.5797,21.41651,14.69379,4.7723,5.0973,4.05713,6.29367,8.71228,10.4677,7.3859,6.61875,11.196,5.3704,19.16695,11.703,1.27438,1.00128,2.79575,2.31464,11.703,12.93837,7.21693,8.60822,7.91908,11.88509,13.44552,16.43627,3.3679,2.76973,3.58894,2.08051,11.20889,6.72272C561.07726,511.65472,566.70774,515.13969,570.07564,518.7676Z" fill="#406d7f" stroke="#ebac4e" stroke-miterlimit="10"/><path d="M544.82305,518.71562q-96.15988-.1756-192.30675-.35112a110.31487,110.31487,0,0,0,4.99324-11.638,126.28731,126.28731,0,0,0,4.98032-18.42575c3.758-18.62083.8062-19.53108,4.48617-28.63344,3.654-9.05037,7.07384-9.38839,8.46521-17.42447,1.46931-8.4652-1.92455-10.35071.24707-16.43627,2.71766-7.594,8.47814-6.00755,14.94085-15.69508,4.51213-6.74875,3.10775-9.60951,8.46521-15.435,1.97646-2.14559,7.08677-7.685,11.456-6.47573,2.61361.72826,2.40559,3.14687,8.21806,8.97236,2.49671,2.49662,2.99084,2.50964,4.98031,4.72022a39.05543,39.05543,0,0,1,5.47445,7.97108c3.48489,6.38461,9.21934,9.12839,16.93033,15.94214,12.19717,10.75373,8.29616,13.0944,19.18,21.91064,5.87755,4.75928,6.90486,3.992,19.6741,13.19845,6.29367,4.53816,9.44046,6.80074,12.44424,9.71348,7.90607,7.61995,8.41322,11.781,14.69379,18.42583,6.28064,6.6447,10.33769,4.99325,17.91867,12.44415a63.93646,63.93646,0,0,1,7.22987,8.71227A71.3661,71.3661,0,0,0,544.82305,518.71562Z" fill="#ce6262" stroke="#ebac4e" stroke-miterlimit="10"/><path d="M469.54927,365.65777c-.42-.5-.82-1.03-1.23-1.6001-.5-.71-.94-1.39-1.34-2.07006a48.43626,48.43626,0,0,0-6.13-8.89991c-3.86-4.35009-4.63995-3.67993-7.47-7.21-5.13-6.44006-3.56-9.94006-7.97-13.20007-3.39-2.51-4.81006-.81-9.46-3.24-6.47-3.37-6.02-7.87-10.71-10.95-6.91-4.58-18.68-1.92-25.65,3.49-5.19,4.01-2.91,5.85-12.69,19.16-5.18,7.04993-5.46,6.05994-10.72,13.45-4.29,6.05-5.47,8.63-9.45,11.7a17.63467,17.63467,0,0,1-4.94,2.78,17.22374,17.22374,0,0,0-4.53,2.7,28.68433,28.68433,0,0,0-4.18,4.04,3.79354,3.79354,0,0,0-.28.33008c-.62.74-1.17,1.42993-1.73,2.04993-.15.18-.31.35-.46.51a8.00584,8.00584,0,0,1-.59.58,9.53244,9.53244,0,0,1-.96.81,10.1967,10.1967,0,0,1-1.22.77c-.02,0-.03.01-.04.01.74-2.65,2.68-5.66,6.73-12.08008,4.5-7.12988,4.41-7.05,4.64-7.30993,5.38-6.12,9.28-4.64,13.94-9.3,5.24-5.21,1.76-8.46,7.81-17.42,3.25-4.81,3.6-2.91,10.29-11.13,3.5-4.28,5.38-7.22,9.63-9.3,2.23-1.09,2.43-.62,6.3-1.99,7.26-2.55,7.9-4.64,11.8-5.64,7.75-1.98,15.39,3.72,16.43,4.48,4.93,3.67,3.41,5.74,9.95,11.95,4.74,4.49,6.76,4.59,9.47,8.3,3.09,4.25,1.27,6.46008,4.15,11.95007,2.51,4.77,4.77,5.37989,7.14,8.79993C467.96932,354.89776,469.71932,359.07769,469.54927,365.65777Z" fill="#fff" stroke="#ebac4e" stroke-miterlimit="10"/><path d="M347.83931,380.85772c-.02.01-.03.01-.04.02v-.01C347.80928,380.86773,347.81929,380.85772,347.83931,380.85772Z" fill="#fffffd" stroke="#ebac4e" stroke-miterlimit="10"/><path d="M428.89931,296.90771c-.59,1.19-3.34,1.76-11.95-.16.08-.08.15-.16.21-.22a1.52007,1.52007,0,0,0,.13995-.17005.94812.94812,0,0,0,.31-.91c-.41-1.14-4.45-.68-5.28-.57-10.15,1.19-17.97,8.79-24.27,15.97-11.99,13.66-8.78,15.7-18.26,24.57-9.44,8.82-14.7,9.56006-22.57995,19.26-4.55,5.59-5.16,8.2301-7.57,12.77a65.458,65.458,0,0,1-4.71,7.48,71.89721,71.89721,0,0,1-5.86,7.15,11.39216,11.39216,0,0,0,.46-2.34008c.39-3.7699-.34-8.1399,2.74-11.86988,1.6-1.93,3.83-3.20007,4.07-5.89a6.8463,6.8463,0,0,0-.16-2.15,2.44558,2.44558,0,0,0-1.16-1.76,1.56942,1.56942,0,0,0-1.22.03,2.48833,2.48833,0,0,0-.47.22,4.77227,4.77227,0,0,0-.5.33008,5.40113,5.40113,0,0,0-.52.38989c-.09.07007-.18.14-.27.22-.17.14013-.36.3-.55.47009-.04.02991-.07.06994-.13.11-.13.11-.26.22-.4.35-.32.26-.65.54993-.99006.82-.31994.26-.66.52-1.00994.77-.25.17-.5.34008-.76.49.13-4.17994,1.42-6.18995,2.75-7.26,2.68-2.17994,5.48-.45,9.96-2.83,2.35-1.24,3.76-3,6.47-6.47,4.39-5.61,4.31-7.55994,6.97-10.79,4.14-5.02,6.75-3.23,12.62-7.81,8.44-6.57995,5.42005-12.13995,15.11005-20.74,4.18-3.73,5.51-3.35,9.29-7.47,3.98-4.33,4.95-7.4,8.79-8.64,2.62-.83,2.81.38,7.14-.32,4.89-.81,6.01-2.57,9.13-2.33,2.11.17005,2.23,1.43006,6.65,3.48,2.56,1.2,3.16.86,4.13995,1.67C428.50929,293.79766,429.40932,295.86767,428.89931,296.90771Z" fill="#d6e8fa" stroke="#ebac4e" stroke-miterlimit="10"/><path d="M504.91927,365.96771c-.32-.3-.64-.62-.97-.96008-.01,0-.01-.01-.01-.02-1.4-1.3899-2.96-3.05994-4.6-4.90992,1.43,1.52,2.94,3.1,4.51,4.76C504.1993,365.2077,504.55928,365.5877,504.91927,365.96771Z" fill="#295566" stroke="#ebac4e" stroke-miterlimit="10"/><path d="M684.3893,518.97772q-14.79-.03-29.56006-.05a151.78924,151.78924,0,0,1-17.43994-17.18005c-10.23-11.86988-10.84-16.39991-21.91-27.22a83.32568,83.32568,0,0,0-12.66-10.39991c7.66-.87011,12.35.85987,15.32,2.76,4.95,3.17993,4.53,6.5,10.95,10.61988,5.74,3.71008,8.63995,2.69006,14.27,6.31,4.42,2.84009,5.63,5.46,9.3,9.63,6.35,7.21008,11.7,9.99,18.26,14.61A136.64878,136.64878,0,0,1,684.3893,518.97772Z" fill="#406d7f" stroke="#ebac4e" stroke-miterlimit="10"/><path d="M498.09926,374.68768c-4.76-2.36-8.71-3.86-12.12994-6.45007-.14-.09986-.29-.22-.42005-.32a22.238,22.238,0,0,1-4.53-4.93994c-1.1-1.6-.93-1.7301-5.97-10.97009-5.55-10.11988-8.34-15.17994-8.97-14.94-.04.02-.07.04-.08.07007a29.298,29.298,0,0,0-1.91-2.97009c-2.84-3.84-4.43-4.08-8.22-8.96-3.08-3.97-2.58-4.49-5.72-8.72-4.7-6.27-8.87-9.19-8.47-9.7.24-.31,1.85.62,9.7,5.23,7.32,4.27,7.79,4.53,8.73,5.47,3.72,3.73,2.82,6.01,6.47,10.96,3.33,4.51,5.52,4.55,8.71,7.96008,4.06,4.32984,1.96,6.58985,6.73,17.43994,2.04,4.64991,3.11,7.03,5.22,9.2,3.16,3.26,5.64,3.54,8.22,6.73A15.25324,15.25324,0,0,1,498.09926,374.68768Z" fill="#d6e8fa" stroke="#ebac4e" stroke-miterlimit="10"/><path d="M762.41933,519.10772q-6.33-.03-12.68006-.02c-1.5-.01-3.0299-.01-4.5299-.01-1.51-.01-3.02-.01-4.53-.01-4.45008-4.34-10.99-6.92993-19.30005-12-13.32007-8.15991-21.84009-16.92993-30.19995-25.57006-11.78-12.16993-10.17005-14.2-22.58008-26.55994-9.56995-9.53992-10.87988-8.68-22.25-19.59-13.04-12.53-12.67-14.98-22.91-24.57006-14.05-13.19-16.5-10.21-30.87-22.89991a150.42129,150.42129,0,0,1-14.37-14.60009c-5.78-6.69-10.14-12.85-13.52-17.61-.61-.86-1.18-1.68-1.72-2.47-.22-.29993-.41-.6-.61005-.9q-.72-1.03491-1.35-2.01c-.18-.28-.36-.55-.53-.81994-.64-.9801-1.23005-1.89-1.75-2.75-.33-.55994-.66-1.08-.96-1.58-1.16-1.95007-2.08-3.6101-2.91-5.13012-.37994-.66993-.73-1.32-1.08-1.96-.21-.38-.42-.74-.62-1.11-.21-.36-.42005-.72-.64-1.09-.21-.35-.42-.7-.64-1.05a2.77817,2.77817,0,0,0-.22-.37,3.16706,3.16706,0,0,1-.23-.36c-.32-.51-.65-1.01-1.02-1.55a29.1922,29.1922,0,0,0-1.76-7.38c-.18-.48-.37-.93-.55-1.34a24.63651,24.63651,0,0,0-2.07-3.74c-4-5.99-9.29-8.06-13.87-17.51-2.44-5.00994-1.66-5.88-4.32-12.95a84.62762,84.62762,0,0,0-7.97-15.83c-.95-1.47-1.86-2.78-2.69-3.92q2.055,2.715,3.98,5.31c7.53,10.13995,13.59,18.98,18.24,26.01q1.65,2.50506,3.05,4.7c3.32,5.16,5.73,9.08,8.31,13.21.56.91,1.14,1.83,1.74,2.79,2.32,3.71,4.94,7.8,8.54,13.21,4.12,6.22,7.38,11.11,10.06995,15.04a137.45315,137.45315,0,0,0,8.52,11.53,82.69049,82.69049,0,0,0,7.22,7.45c14.26,12.87,24.75,11.5,44.91,30.73,10.7,10.21,9.06,11.84,26.54993,29.54,8.37012,8.45,12.42017,11.80994,24.91016,23.24,27.6499,25.33,28.40991,27.83,40.82983,38.51A297.40057,297.40057,0,0,0,762.41933,519.10772Z" fill="#66a0b2" stroke="#ebac4e" stroke-miterlimit="10"/><path d="M777.88247,519.13166q-7.74357,0-15.461-.026a297.48816,297.48816,0,0,1-38.386-27.98327c-12.4182-10.68873-13.17241-13.18543-40.83052-38.516-12.48328-11.42993-16.54033-14.78482-24.90149-23.237-17.48954-17.69757-15.8511-19.336-26.55285-29.5437-23.40606-22.31374-33.76979-16.89136-52.13054-38.17787a135.791,135.791,0,0,1-8.51719-11.534,77.12807,77.12807,0,0,1,23.133,10.20769c9.08943,5.99454,10.07761,9.55745,21.91073,18.58179,13.05535,9.97356,16.03317,8.82926,27.55414,17.26843,12.52225,9.18038,13.2244,13.61457,27.216,27.22906,14.0956,13.69258,16.69628,12.40526,34.19884,27.216,18.64686,15.77309,20.32427,21.1565,40.50552,40.50552C753.11107,498.30031,763.87781,508.11784,777.88247,519.13166Z" fill="#76bccc" stroke="#ebac4e" stroke-miterlimit="10"/><path d="M800.23526,519.18372c-5.3704-.013-10.75381-.013-16.12421-.039-2.08051,0-4.14808,0-6.22858-.013-14.00466-11.01382-24.7714-20.83135-32.26136-28.00923-20.18125-19.349-21.85866-24.73243-40.50552-40.50552-17.50256-14.81078-20.10324-13.52346-34.19884-27.216-13.99164-13.61449-14.69379-18.04868-27.216-27.22906-11.521-8.43917-14.49879-7.29487-27.55414-17.26843-11.83312-9.02434-12.8213-12.58725-21.91073-18.58179a77.12807,77.12807,0,0,0-23.133-10.20769c-2.69171-3.927-5.95556-8.81624-10.07761-15.03189-8.67322-13.04233-11.651-18.4648-18.58178-29.21853-.93629-1.45637-1.95051-3.0298-3.05584-4.69427a30.6676,30.6676,0,0,0-.59811-11.23485c-1.31335-5.35738-3.88807-9.45348-9.96062-16.93041-5.98152-7.35995-11.49493-14.16069-20.92238-21.91065-11.443-9.44046-13.62758-7.763-23.90019-15.604-.13008-.10405-.2731-.2081-.41612-.31215a91.72788,91.72788,0,0,1-21.52056-22.39176c-.091-.143-.18206-.28611-.28611-.42913-.091-.143-.195-.299-.29906-.4681-.013-.013-.013-.026-.026-.039-.62413-.93621-1.3393-2.04146-1.96352-3.08179-.156-.26-.31207-.53311-.45509-.79319-.70215-1.23534-1.17033-2.26257-.98826-2.62671a.11972.11972,0,0,1,.052-.078.0991.0991,0,0,1,.05206-.026.08589.08589,0,0,1,.078-.013h.065c1.36534,0,7.45091,5.69548,14.27768,12.15812.46818.42913.9493.88421,1.43041,1.33938,1.11827,1.04025,2.23655,2.09352,3.35482,3.14679.53318.49414,1.02731.96224,1.4824,1.39137,1.10533,1.05327,1.98955,1.92448,2.75671,2.69171,2.88679,2.87369,3.888,4.096,6.72279,6.54065A103.26092,103.26092,0,0,0,508.90775,246.113c11.01389,6.02057,19.66109,18.91989,36.51348,44.48447,20.36324,30.87006,16.93041,31.63722,26.89095,41.83189,11.0139,11.24787,13.15941,8.23108,39.84234,27.55414,25.98071,18.81584,20.89643,19.466,40.50553,32.20929,10.84476,7.03487,20.32419,11.97613,30.21981,23.9002,6.89177,8.32219,5.0323,9.20641,10.62373,15.92913,8.84228,10.66277,20.50634,16.86541,31.50714,20.71435,11.92414,8.89434,24.06924,16.43628,36.87761,29.59568,1.75542,1.79447,7.763,8.04909,16.4362,16.42326,4.96729,4.81126,12.43121,11.66406,15.435,14.44672C796.43822,515.6728,798.66182,517.72735,800.23526,519.18372Z" fill="#6ac4cd" stroke="#ebac4e" stroke-miterlimit="10"/><path d="M502.67916,236.3084c-.19508.35112-8.23115-3.56291-21.07848-10.35063-.76716-.76723-1.65138-1.63844-2.75671-2.69171-.45509-.42913-.94922-.89723-1.4824-1.39137-1.11827-1.05327-2.23655-2.10654-3.35482-3.14679-.48111-.45517-.96223-.91025-1.43041-1.33938-6.82677-6.46264-12.91234-12.15812-14.27768-12.15812h-.065a.08589.08589,0,0,0-.078.013.0991.0991,0,0,0-.05206.026.11972.11972,0,0,0-.052.078c-.18207.36414.28611,1.39137.98826,2.62671.143.26008.29906.53318.45509.79319.48112.84525,1.09232,1.8205,1.80749,2.8998-3.81-4.46014-7.54194-9.76554-6.34565-12.36621a2.68639,2.68639,0,0,1,1.15732-1.33939c1.84645-.92319,3.836,1.56042,8.63425,4.31713,4.95428,2.84774,7.52892,3.00377,12.53519,6.96978.15611.11707.28611.23413.41612.3381,4.99332,4.31713,4.21307,7.85409,7.97107,13.61457a25.29722,25.29722,0,0,0,3.19885,3.914C494.8381,233.14859,502.87425,235.97038,502.67916,236.3084Z" fill="#76bccc" stroke="#ebac4e" stroke-miterlimit="10"/><path d="M481.11928,284.97772c-.42-.11005-.82-.22-1.22-.31006-.34-.08-.68-.13995-1.02-.18994a.52248.52248,0,0,0-.18-.03,11.7655,11.7655,0,0,0-1.17-.17c-.02,0-.06-.01-.09-.01-.35-.04-.7-.08-1.05-.11-.12,0-.24-.01-.35-.02-.28-.03-.54-.04-.8-.05-.37-.03-.75-.04-1.13-.07a.969.969,0,0,1-.17-.01c-.52-.03-1.04-.05-1.57-.09-.19-.01-.37-.03-.55-.05-.18-.01-.36-.02-.54-.04a2.371,2.371,0,0,1-.28-.04c-.05,0-.09-.01-.13-.01-.14-.02-.27-.04-.41-.06a2.90381,2.90381,0,0,1-.31-.04c-.04,0-.08-.01-.12-.01a.67948.67948,0,0,1-.15-.02.63641.63641,0,0,1-.07-.02.12672.12672,0,0,1-.06-.01h-.01a1.34731,1.34731,0,0,1-.18-.03c-.17-.03-.34-.05-.52-.09-.04-.01-.09-.01-.16-.03a1.28458,1.28458,0,0,1-.19-.04,2.9607,2.9607,0,0,1-.38-.09c-.23-.05-.48-.11-.73-.18a2.53709,2.53709,0,0,0-.37-.1c-.13-.04-.25-.07995-.37-.12h-.01a1.27039,1.27039,0,0,0-.23-.08c-.15-.05-.29-.1-.43-.15a2.87557,2.87557,0,0,1-.37-.15,4.31566,4.31566,0,0,1-.48-.19,19.67805,19.67805,0,0,1-3.22-1.73c-7-4.56-5.13995-8.6-12.46-14.45-8.96-7.16-13.69-2.66-24.4-8.46-14.4-7.79-12.93-19.75-25.39-22.9-8.21-2.08-15.62,1.39-17.93,2.48-4.2,1.97-7.7,4.83-19.43,21.42-12.14,17.18994-11.29,18.23-15.93,21.91-.79.62-1.56,1.18-2.29,1.66-.24.16-.49.32-.73.47q-.525.33-1.05.63c-.12.06-.23.13-.35.19a2.785,2.785,0,0,1-.42.22c-.09.04-.16.09-.26.13-.22.12-.44.22-.66.33-.44.21-.87.4-1.3.57-.03.01-.05.03-.08.04-.45.18-.91.35-1.35.51-.16.05-.3.1-.45.15-.04.00994-.08.03-.13.04-.37.13-.73.25-1.1.35-.01,0-.01,0-.02.01a2.34653,2.34653,0,0,0-.25.07.0098.0098,0,0,0-.01.01c-.05.01-.1.03-.15.04a1.20062,1.20062,0,0,1-.18.05c-.1.03-.22.07-.32.09-.22.07-.46.13-.68.2-.27.09-.56.17-.83.25-.4.11-.8.23-1.2.35-.34.1-.69.21-1.04.34a1.57107,1.57107,0,0,0-.35.11c-.22.08-.45.16-.7.25a27.7,27.7,0,0,0-2.97,1.26c-.26.13-.52.26-.78.4-.26.15-.53.29-.8.46-.04,0-.07.03-.11.05-.24.13-.48.27-.73.43-.01,0-.01.01-.02.01a20.90934,20.90934,0,0,1,5.37-8.67c4.67-4.86,7.31-3.17,12.21-6.98,8.48-6.6,4.47-14.7,13.44-26.14,3.18-4.06,2.67-1.75,12.45-10.96,12.13995-11.43,13.24-15.26995,18.92-16.19,3.3-.52,7.68.9,16.44,3.74,5.74,1.86005,8.62,2.8,10.45,4.23,7.27,5.68,3.72,12.68,10.22,17.93,5.03,4.07,8.08.6,16.67,5.98,3.51,2.19,3.81,3.27,8.73,6.22,5.74,3.46,6.95,2.98,9.71,5.23,5.19,4.29,2.74,7.63,7.22,12.7,4.51,5.12,10.19,5.29,14.03,7.57A.0098.0098,0,0,0,481.11928,284.97772Z" fill="#d6e8fa" stroke="#ebac4e" stroke-miterlimit="10"/><path d="M547.78926,358.12774c-.73-.84009-1.41-1.60009-2.03-2.29a139.78061,139.78061,0,0,0-23.9-30.89c-9.69-9.32-14.81-11.02-22.91-21.91-6.31-8.45-6.91-12.34-12.95-15.93006a23.28559,23.28559,0,0,0-2.58-1.31,4.6638,4.6638,0,0,0-.58-.23c-.19-.08-.37-.15-.55-.21-.19-.07995-.38995-.13995-.57995-.2-.2-.06-.38-.13-.58-.18h-.01a.0098.0098,0,0,1-.01-.01c-3.84-2.28-9.52-2.45-14.03-7.57-4.48-5.07-2.03-8.41-7.22-12.7-2.76-2.25-3.97-1.77-9.71-5.23-4.92005-2.95-5.22-4.03-8.73-6.22-8.59-5.38-11.64-1.91-16.67-5.98-6.5-5.25-2.95-12.25-10.22-17.93-1.83-1.43-4.71-2.37-10.45-4.23-8.76-2.84-13.14-4.26-16.44-3.74-5.68.92005-6.78,4.76-18.92,16.19-9.78,9.21-9.27,6.9-12.45,10.96-8.97,11.44-4.96,19.54-13.44,26.14-4.9,3.81-7.54,2.12-12.21,6.98a20.90934,20.90934,0,0,0-5.37,8.67c-.55.34-1.11.72-1.69,1.14-.3.2-.6.41-.91.65-8.58,6.37-6.37,9.9-15.93,20.9-12.55,14.45-19.05,11.46-31.38,25.91009-7.28,8.53992-4.77,9.30994-14.43,21.40991-6.43006,8.03-12.24,13.58008-20.43006,21.41-.81.75989-1.56,1.48-2.28,2.17,1.45-3.49,3.06-7.39013,4.78-11.63012,8.44-20.85,8.75-23.16993,12.27-27.8899,9.4-12.55,16.18-8.15,29.88-21.25006,11.16-10.65,8.87-15.65,22.25-31.87,10.85-13.13,13.12-10.8,23.58-22.57,19.14-21.56,15.65-34.1,30.87-48.14,5.21-4.81,21.22-20.26995,36.52-16.26995,7.53,1.97,12.77,8.07995,22.9,19.91,9.25,10.79,6.76,12.55,12.95,17.61,10.16,8.28,17.34,5,26.9,14.28,5.37006,5.2,3.49,6.6,9.29,12.27,8.42,8.23,13.27,6.16,22.58,13.29,7.46,5.71,6.25,8.49,16.93,20.57,7.66,8.68,13.13,12.72,16.94,16.28q.345.315.69.66c.24.22.47.45.69995.69a56.38486,56.38486,0,0,1,5.6,6.55c.24.32.47.64.71.97.47.67005.94,1.36005,1.4,2.08.17.25.33.51.5.77.6.94,1.19,1.93,1.77,2.96.23.4.45.8.67,1.21a85.71752,85.71752,0,0,1,4.48,9.73c.2.52.4,1.04.6,1.57.36.96008.71,1.93,1.04,2.94006C545.99928,351.54766,546.93929,354.71771,547.78926,358.12774Z" fill="#fffffd" stroke="#ebac4e" stroke-miterlimit="10"/><path d="M526.66927,307.18768c-.9-1.16-1.82-2.47-2.82-3.98-5.72-8.64-5.79-12.29-11.94995-17.59-6.91-5.96-10.25-4.36-16.27-10.96-4.55-4.98-4.48-7.91-9.96-12.94a40.80844,40.80844,0,0,0-9.96-6.65c-19.87-9.92-29.89-14.92-36.53-19.92-18.66-14.05-12.11-29.27-28.21-36.51-11.74006-5.29-24.2-1.2-30.21.66-7.96,2.45-17.32,7.43006-33.21,25.89-19.7,22.91-14.32995,25.76-32.86,48.14-3.25,3.93-16.49,16.06-42.83,40.18a51.43572,51.43572,0,0,1-5.44,4.42,27.926,27.926,0,0,1,6.69-12.13995c2.87-2.99006,4.13-2.8,7.46-5.72,7.1-6.26,6.98-12.02,11.95-19.43,4.54-6.76,8.36-7.5,15.45-13.45,8.62994-7.24,8.42-10.74,22.16-31.13,16.68-24.76995,25.64-32.47,29.88-35.85,7.45-5.94,12.81-10.11,20.66-10.71,6.72-.51,8.97,2.09,23.65,3.24,8,.63,8.84-.02,11.95,1.24,5.89,2.4,8.31,6.9,14.45,15.95,3.5,5.15,8.92,13.4,13.44,18.42,14.66,16.22,27.3,7.49,42.32995,23.66,5.15,5.52,7.18,10.32,16.44,18.67,5.86,5.29,8.24,6.24,11.45,9.2C519.33931,284.47772,524.70931,292.40771,526.66927,307.18768Z" fill="#fffffd" stroke="#ebac4e" stroke-miterlimit="10"/><path d="M451.7693,223.43768a38.95424,38.95424,0,0,1-8.85-7.05c-6.91-7.35-6.56-11.94-13.69995-20.91-3.77-4.75-9.57-12.04-18.67005-15.94-18.13-7.76-37.98,2.78-43.07995,5.49-4.58,2.43-10.1,7.1-21.16,16.43-9.84,8.31-15.55,13.14-19.66,17.58-.82.87-1.56,1.73-2.26,2.59-5.32,6.57-6.76,10.38-8.93,15.29a91.99931,91.99931,0,0,1-9.74,17.08c-1.8,2.58-5.42005,7.2-12.11005,15.63.96-3.07,2.11005-6.86,3.4-11.15,2.06-6.9,2.83-9.74,3.32-11.38v-.01a19.78357,19.78357,0,0,1,.91-2.56,30.20773,30.20773,0,0,1,5.88-9.05c2.65-2.88,5.78-5.67005,9.81-11.12006a45.66368,45.66368,0,0,0,4.68-7.49c1.99-4.07995,2.08-6.37,6.02-11.43,2.81-3.6,6.71-7.52,26.9-18.43,17.13-9.27,25.7-13.9,32.37-15.18,6.75-1.3,25.9-5.01,35.6,4.98,3.66,3.76,3.69,7.12,8.55,12.82l.01.01c.69.82,1.48,1.68,2.4,2.6,4.59,4.61,6.62,4.96,9.46,9.22,3.49,5.26,2.97,8.61,5.24,14.68A39.35031,39.35031,0,0,0,451.7693,223.43768Z" fill="#d6e8fa" stroke="#ebac4e" stroke-miterlimit="10"/><path d="M725.01073,452.73646c-11.0008-3.84894-22.66486-10.05158-31.50714-20.71435-5.59143-6.72272-3.732-7.60694-10.62373-15.92913-9.89562-11.92407-19.375-16.86533-30.21981-23.9002-19.6091-12.74328-14.52482-13.39345-40.50553-32.20929-26.68293-19.32306-28.82844-16.30627-39.84234-27.55414-9.96054-10.19467-6.52771-10.96183-26.89095-41.83189-16.85239-25.56458-25.49959-38.4639-36.51348-44.48447a103.26092,103.26092,0,0,1-20.58428-13.61457c-2.8348-2.44464-3.836-3.667-6.72279-6.54065,12.84733,6.78772,22.94049,12.07347,29.65567,12.65046,3.82939.329,3.06084.63894,5.79152,2.14738,5.90358,6.7747,12.65225,14.99284,21.23452,25.43458,24.0952,29.32258,22.76891,30.6099,36.8515,45.82386a367.95766,367.95766,0,0,0,40.34949,37.34564c29.49163,23.47114,38.77606,23.28907,57.76094,39.84233,26.4619,23.055,15.149,32.27437,40.84363,54.7832C717.71586,447.15805,721.35678,450.00579,725.01073,452.73646Z" fill="#7ecbd3" stroke="#ebac4e" stroke-miterlimit="10"/><path d="M546.0193,320.05767a50.32974,50.32974,0,0,0-4.87,1.54c-6.06-6.16-9.73-8.26-14.48-14.41-1.96-14.78-7.33-22.71-12.29-27.31-3.21-2.96-5.59-3.91-11.45-9.2-9.26-8.35-11.29-13.15-16.44-18.67-15.03-16.17-27.67-7.44-42.32995-23.66-4.52-5.02-9.94-13.27-13.44-18.42-6.14-9.05-8.56-13.55-14.45-15.94995-3.11-1.26-3.95-.61005-11.95-1.24-14.68-1.15-16.93-3.75-23.65-3.24-7.85.6-13.21,4.77-20.66,10.71-4.24,3.38-13.2,11.08-29.88,35.85-13.74,20.39-13.53,23.89-22.16,31.13-7.09,5.95-10.91,6.69-15.45,13.45-4.97,7.41-4.85,13.17-11.95,19.43-3.33,2.92-4.59,2.73-7.46,5.72a27.926,27.926,0,0,0-6.69,12.13995,46.43042,46.43042,0,0,1-6.51,3.88,47.35971,47.35971,0,0,1-7.15,2.78c.63-.53,1.23-1.04,1.79-1.49a13.881,13.881,0,0,1,.7-3.87c1.09-3.17005,3.32-4.73,5.78-7.42005,2.9-3.19,4.18-3.89,8.76-8.47,4.93006-4.94,6.22-6.91,6.8-7.85,1.88-3.02,3.93-7.52,3.06-8.31,2.62-3.28,5.81-7.26,9.38-11.77,1.68-2.1,3.2-4.03,4.58-5.78,6.69-8.43,10.31-13.05,12.11005-15.63a91.99931,91.99931,0,0,0,9.74-17.08c2.17-4.91,3.61-8.72,8.93-15.29.7-.86,1.44-1.72,2.26-2.59,4.11-4.44,9.82-9.27,19.66-17.58,11.06-9.33,16.58-14,21.16-16.43,5.1-2.71,24.95-13.25,43.07995-5.49,9.1,3.9,14.9,11.19,18.67005,15.94,7.13995,8.97,6.79,13.56,13.7,20.91a38.95424,38.95424,0,0,0,8.85,7.05c3.02,1.79,6.32,3.34,10.33,5.41,0,0,13.69,7.06,35.11005,21.91,1.32.92,2.69,1.92,4.1,3.03a89.41463,89.41463,0,0,1,18.55,19.98c.27093.45684,5.65863,9.68658,7.97,15.83,2.66,7.07,1.88,7.94,4.32,12.95C536.72926,311.99768,542.0193,314.06768,546.0193,320.05767Z" fill="#fffffd" stroke="#ebac4e" stroke-miterlimit="10"/><path d="M526.66927,307.18768c-.9-1.16-1.82-2.47-2.82-3.98-5.72-8.64-5.79-12.29-11.94995-17.59-6.91-5.96-10.25-4.36-16.27-10.96-4.55-4.98-4.48-7.91-9.96-12.94a40.80844,40.80844,0,0,0-9.96-6.65c-19.87-9.92-29.89-14.92-36.53-19.92-18.66-14.05-12.11-29.27-28.21-36.51-11.74006-5.29-24.2-1.2-30.21.66-7.96,2.45-17.32,7.43006-33.21,25.89-19.7,22.91-14.32995,25.76-32.86,48.14-3.25,3.93-16.49,16.06-42.83,40.18a51.43572,51.43572,0,0,1-5.44,4.42,27.926,27.926,0,0,1,6.69-12.13995c2.87-2.99006,4.13-2.8,7.46-5.72,7.1-6.26,6.98-12.02,11.95-19.43,4.54-6.76,8.36-7.5,15.45-13.45,8.62994-7.24,8.42-10.74,22.16-31.13,16.68-24.76995,25.64-32.47,29.88-35.85,7.45-5.94,12.81-10.11,20.66-10.71,6.72-.51,8.97,2.09,23.65,3.24,8,.63,8.84-.02,11.95,1.24,5.89,2.4,8.31,6.9,14.45,15.95,3.5,5.15,8.92,13.4,13.44,18.42,14.66,16.22,27.3,7.49,42.32995,23.66,5.15,5.52,7.18,10.32,16.44,18.67,5.86,5.29,8.24,6.24,11.45,9.2C519.33931,284.47772,524.70931,292.40771,526.66927,307.18768Z" fill="none" stroke="#ebac4e" stroke-miterlimit="10"/><path d="M503.0793,377.09771c-.04.08-.08.1399-.13.22-.22-.13-.45-.26-.69-.4q-1.08-.63006-2.13-1.17c-.34-.2-.69-.36988-1.03-.54993-.33-.17-.66-.34-1-.51a15.25324,15.25324,0,0,0-2.63995-4.91c-2.58-3.19-5.06-3.47-8.22-6.73-2.11-2.16992-3.18-4.55-5.22-9.2-4.77-10.85009-2.67-13.1101-6.73-17.43994-3.19-3.41009-5.37994-3.45007-8.71-7.96008-3.65-4.95-2.75-7.23-6.47-10.96-.94-.94-1.41-1.2-8.73-5.47-7.85-4.61-9.46-5.54-9.7-5.23-.4.50994,3.77,3.43,8.47,9.7,3.13995,4.23,2.63995,4.75,5.72,8.72,3.79,4.88,5.38,5.12,8.22,8.96a29.298,29.298,0,0,1,1.91,2.97009v.01a.44067.44067,0,0,0-.08.22,15.02142,15.02142,0,0,0,.71,4.28c.11.3999.23.82.34,1.25.38995,1.35987.86,2.85987,1.38995,4.37989.2.59008.41,1.17.62,1.76.24006.66.49006,1.34009.75,1.99,2.99006,7.63012,4.6,12.6101,9.3,16.59008,6.12,5.18994,9.83,4.35,13.27,9.29993a15.46306,15.46306,0,0,1,2.62,7.2301v.01c-.73-.6001-1.42-1.15014-2.1-1.68005-4.68-3.68006-7.81-5.7301-7.81-5.7301-3.12-2.03992-5.66-3.5-7.83-4.83985q-.54-.33014-1.05-.66015c-.71-.45-1.37-.8899-1.99-1.33985-.28-.20007-.56-.41015-.82-.61011-.55-.41992-1.07-.85-1.58-1.31994-.24-.2301-.49-.47009-.74-.71008-.23-.24-.45-.47-.69-.72a.13368.13368,0,0,0-.05-.06c-.23-.25989-.48-.54993-.71-.82984.17005-6.58008-1.57995-10.76-3.47-13.4801-2.37-3.42-4.63-4.02991-7.14-8.79993-2.88-5.49-1.06-7.70007-4.15-11.95007-2.71-3.71-4.73-3.81-9.47-8.3-6.54-6.21-5.02-8.28-9.95-11.95-1.04-.76-8.68-6.46-16.43-4.48-3.9,1-4.54,3.09-11.8,5.64-3.87,1.37-4.07.9-6.3,1.99-4.25,2.08-6.13,5.02-9.63,9.3-6.69,8.22-7.04,6.32-10.29,11.13-6.05,8.96-2.57,12.21-7.81,17.42-4.66,4.66-8.56,3.18-13.94,9.3-.23.25989-.14.18005-4.64,7.30993-4.05,6.42005-5.99,9.43006-6.73,12.08008v.01c-.24.11988-.48.24-.74.35a13.36319,13.36319,0,0,1-5.09,1.1c.21-.26.42-.5.6-.72.97-15.32007,6.06-22.91,10.83-27.02,6.19-5.32006,12.74-5.15,18.69-13.68994,2.58-3.72009,2.87-5.88006,6.97-11.71008a83.31305,83.31305,0,0,1,10.62-12.15,124.20849,124.20849,0,0,1,16.35-12.88c1.09-.74,2.12-1.42,3.08-2.05.39-.25.76-.5,1.13-.73,2.01-1.3,3.68-2.37,4.93-3.24.22-.15.43-.31.63-.45a10.60577,10.60577,0,0,0,1.15-.94c8.61,1.92,11.36,1.35,11.95.16.51-1.04-.39-3.11005-1.67005-4.15-.98-.81-1.57995-.47-4.13995-1.67-4.42-2.05-4.54-3.31-6.65-3.48-3.12-.24-4.24,1.52-9.13,2.33-4.33.7-4.52-.51-7.14.32-3.84,1.24-4.81,4.31-8.79,8.64-3.78,4.12-5.11,3.74-9.29,7.47-9.69,8.6-6.67,14.16-15.11,20.74-5.87,4.58-8.48,2.79-12.62,7.81-2.66,3.2301-2.58,5.18-6.97,10.79-2.71,3.47-4.12,5.23-6.47,6.47-4.48,2.38-7.28.65-9.96,2.83-1.33,1.07006-2.62,3.08007-2.75,7.26a9.17777,9.17777,0,0,1-1.57.78,1.97449,1.97449,0,0,1-.39.13,3.45419,3.45419,0,0,1-.52.16c-.1.03-.21.05-.31.07007-.13.02991-.28.04993-.42.06995-.13.0199-.25.02991-.38.03992a5.29862,5.29862,0,0,1-.57.03h-.06a7.60611,7.60611,0,0,1-2.99-.65991c-.25-.1101-.47-.23-.67-.33008,4.04-6.32995,2.76-4.16992,5.06-7.48,3.92-5.62,10.27-10.27,21.91-20.41,11.16-9.72,11.72-9.23,16.69-14.18994,14.64-14.63,12.06-21.12006,24.16-31.62006,2.28-2.01,14.49-14.11,29.62-11.95a27.00161,27.00161,0,0,1,8.03,2.49c5.47,10.03,6.15,12.29,10.39,15.18,4.45,3.02,6.95,2.74,14.45,7.97,4.76,3.32,5.55,4.68006,9.96,7.46.3.2.6.38.89.55,4.96,5.83,10.57,11.12,14.88,19.54,2.35,4.59,14.02,19.92994,22.95,29.96-5.28-5.6-9.61-10.42993-13.19-15.86a.032.032,0,0,0-.06.02c.2,1.45,2.95,12.7699,5.24,15.7699,3.02,3.95007,6.32,5.56,9.3,10.96008A27.34189,27.34189,0,0,1,503.0793,377.09771Z" fill="#406d7f" stroke="#ebac4e" stroke-miterlimit="10"/><path d="M503.84926,364.8377c-1.57-1.66-3.08-3.24-4.51-4.76,1.63995,1.85,3.2,3.52,4.6,4.90992Zm-.77,12.26c-.04.08-.08.1399-.13.22.08.05.15.09009.22.13C503.14931,377.32769,503.10927,377.21771,503.0793,377.09771Zm-155.28,3.77v.01c.01-.01.02-.01.04-.02C347.81929,380.85772,347.80928,380.86773,347.79927,380.86773Zm147.66-11.09008c-2.58-3.19-5.06-3.47-8.22-6.73-2.11-2.16992-3.18-4.55-5.22-9.2-4.77-10.85009-2.67-13.1101-6.73-17.43994-3.19-3.41009-5.37994-3.45007-8.71-7.96008-3.65-4.95-2.75-7.23-6.47-10.96-.94-.94-1.41-1.2-8.73-5.47-7.85-4.61-9.46-5.54-9.7-5.23-.4.50994,3.77,3.43,8.47,9.7,3.13995,4.23,2.63995,4.75,5.72,8.72,3.79,4.88,5.38,5.12,8.22,8.96a29.298,29.298,0,0,1,1.91,2.97009c.01-.03.04-.05.08-.07007.63-.24,3.42,4.82007,8.97,14.94,5.04,9.24,4.87,9.37011,5.97,10.97009a22.238,22.238,0,0,0,4.53,4.93994c.13.1.28.22009.42005.32,3.42,2.59008,7.37,4.09008,12.12994,6.45007A15.25324,15.25324,0,0,0,495.45931,369.77765Zm-177.74-3.15992a1.05169,1.05169,0,0,0,.12.1c.63-1.05,1.38-2.28,2.2-3.69006C319.59926,363.68768,318.75929,364.99762,317.71932,366.61773Z" fill="none" stroke="#ebac4e" stroke-miterlimit="10"/><path d="M615.42928,518.84771c-3.79-.02-7.59-.02-11.39-.02-1.31-.01-2.63995-.01-3.95-.01a38.50223,38.50223,0,0,0-6.53-8.11c-6.68-6.28-11.08-5.5-18.43-9.95007-7.54-4.58-9.47-9.3899-17.91-21.41993-3.36005-4.78-13.59-19.36-24.41-30.13-17.07-16.99-21.59-10.53-35.85-25.65a73.70737,73.70737,0,0,1-5.06-5.93994c-.71-.94006-1.37-1.85009-1.98-2.74-.15-.22-.3-.44006-.44-.66-.3-.44006-.57995-.87-.85-1.3-2.74-4.36-4.41-8.16-6.26-11.63q-.21-.42-.45-.84c-.4-.72-.81-1.44006-1.25-2.14-.13-.21-.26-.40991-.39-.61-.25-.38-.51-.77-.78-1.15-.17-.24-.34-.47-.52-.7q-.45-.6-.96-1.2c-.16-.20007-.34-.39013-.51-.59009-.18-.2-.36-.39-.55-.59-.1-.1-.19-.21008-.29-.30994a30.86953,30.86953,0,0,0-2.82-2.54c-.48-.39-.98-.77-1.51-1.14-.09-.06995-.18-.13-.27-.19007-.29-.21-.58-.40991-.89-.61q-.54-.36-1.11-.72c-4.53-2.80994-11.54-6.12-19.18-14.19006-4.35-4.59-4.83-6.41993-8.47-10.96-3.83-4.79-18.25-23.54-30.87-20.65991-6.55,1.48-7.19,7.41992-22.42,21.1499-9.96,9.01-11.45,8.05-17.67,14.94-.65.72009-1.24,1.40014-1.77,2.05-.13.15-.25.29-.35.43006-.24.28992-.47.56994-.68.85-.08.1-.15.19-.22.28-.07.1-.14.18994-.21.28-.2.27-.4.53-.57995.78992-.21.28-.4.55-.58.82-.07.1101-.14.21008-.21.31-.08.11011-.15.22-.22.33008a.69836.69836,0,0,0-.1.15991c-.18.26-.34.51-.49.76-.11.17005-.21.34009-.31.51-.09.14-.17.28-.25.42005-1.01,1.71-1.82995,3.34-2.82,5.16-.18.33-.36.65991-.56,1.01a66.188,66.188,0,0,1-4.01,6.33985c-.21.3-.43.6101-.66.92016-.23.30994-.46.62988-.71.96-.06.1-.13995.18994-.21.29-10.14,13.3999-15.06,12.61988-20.92,22.15991-7.26,11.78-6.29,23.61-6.48,31.13-.33,14.87-5.67,36.13-27.64,64.05994q-12.465-.03-24.93-.04993c6.92005-13.20007,11.2-26.23,16.48-42.61,3.95-12.28,10.19-23.98,12.19-36.72a28.03262,28.03262,0,0,1,5.86-13.94006c2.32-2.80994,3.32-2.72,6.97-5.85a60.77859,60.77859,0,0,0,15.18-20.92993l.24006-.54a53.9427,53.9427,0,0,1,4.5-9.66,45.26919,45.26919,0,0,1,2.75-4.04993c.44-.59009.87-1.12012,1.25-1.58008a13.36319,13.36319,0,0,0,5.09-1.1c.26-.11.5-.2301.74-.35.01-.01.02-.01.04-.02a10.1967,10.1967,0,0,0,1.22-.77,9.53244,9.53244,0,0,0,.96-.81,8.00584,8.00584,0,0,0,.59-.58c.15-.16.31-.33.46-.51.56-.62,1.11-1.30994,1.73-2.04993a3.79354,3.79354,0,0,1,.28-.33008,28.68433,28.68433,0,0,1,4.18-4.04,17.22374,17.22374,0,0,1,4.53-2.7,17.63467,17.63467,0,0,0,4.94-2.78c3.98005-3.06994,5.16-5.6499,9.45-11.7,5.26-7.39,5.54-6.4,10.72-13.44995,9.78-13.31006,7.5-15.15008,12.69-19.16,6.97-5.41,18.74-8.07,25.65-3.49,4.69,3.08,4.24,7.58,10.71,10.95,4.65,2.43,6.07.73,9.46,3.24,4.41,3.26,2.84,6.76,7.97,13.20007,2.83,3.53,3.61,2.85987,7.47,7.21a48.43626,48.43626,0,0,1,6.13,8.89991c.4.68.84,1.3601,1.34,2.07006.41.57007.81,1.1001,1.23,1.6001.23.27991.48.56995.71.82984a.13368.13368,0,0,1,.05.06c.24.25.46.48.69.72.25.24.5.48.74.71008.51.47,1.03.9,1.58,1.31994.26.2.54.41.82.61011.62.44995,1.28.88989,1.99,1.33985q.51.33014,1.05.66015c2.17,1.33985,4.71,2.79993,7.83,4.83985,0,0,3.13,2.05,7.81,5.7301.68.52991,1.37,1.07995,2.1,1.68005.27.22.54.43994.82.65991.55.45,1.11.91993,1.69,1.41993,2.27,1.90014,4.72,4.06,7.24,6.45007,15.2,14.39,10.57,20.71008,24.65,35.6,9.95,10.52,12.5,7.62012,26.89,21.91a145.65422,145.65422,0,0,1,17.44,20.17c9.34,13.23,8.96,17.78,17.43,25.89991,6.77,6.51,9.33,5.82006,15.93,12.20007A56.85814,56.85814,0,0,1,615.42928,518.84771Z" fill="#406d7f" stroke="#ebac4e" stroke-miterlimit="10"/><path d="M635.12929,518.88775c-4.69-.02-9.4-.02-14.09-.03-1.87994,0-3.74-.01-5.61-.01a56.85814,56.85814,0,0,0-8.42-10.38c-6.6-6.38-9.16-5.69006-15.93-12.20007-8.47-8.11988-8.09-12.66993-17.43-25.89991a145.65422,145.65422,0,0,0-17.44-20.17c-14.39-14.28992-16.94-11.39-26.89-21.91-14.08-14.88989-9.45-21.21-24.65-35.6-2.52-2.39-4.97-4.54993-7.24-6.45007-.58-.5-1.14-.97-1.69-1.41993-.28-.22-.55-.43994-.82-.65991v-.01a15.46306,15.46306,0,0,0-2.62-7.2301c-3.44-4.95-7.15-4.11-13.27-9.29993-4.7-3.98-6.31-8.96-9.3-16.59008-.25994-.64991-.50994-1.33-.75-1.99-.21-.59-.42-1.16992-.62-1.76-.53-1.52-1-3.02-1.38995-4.37989-.11005-.43-.23005-.8501-.34-1.25a15.02142,15.02142,0,0,1-.71-4.28.44067.44067,0,0,1,.08-.22v-.01c.01-.03.04-.05.08-.07007.63-.24,3.42,4.82007,8.97,14.94,5.04,9.24,4.87,9.37011,5.97,10.97009a22.238,22.238,0,0,0,4.53,4.93994c.13.1.28.22009.42005.32,3.42,2.59008,7.37,4.09008,12.12994,6.45007.34.17.67.34,1,.51.34.18.69.35,1.03.54993q1.05.54015,2.13,1.17c.24.14.47.27.69.4.08.05.15.09009.22.13.46.27.9.54993,1.34.81995.35.22.69.44006,1.03.66l.09.05994c.72.4801,1.42.95007,2.11,1.44006.38.27.74.53,1.1.8.37.27991.73.53992,1.08.81994.43.33008.85.67005,1.26,1,.2.15.39.3.58.47.19.16.39.33007.57.48.38.32006.75.64013,1.13.9801.38.30993.75.65,1.13,1,.38.31994.77.68005,1.15,1.03992,1.92,1.76,3.9,3.68005,6.12,5.84008,14.21,13.78,11.46,18.39991,25.23,33.52,12.09,13.29993,15.2,10.80994,25.89,23.90991,10.52,12.89,7.92005,15.79,17.26,25.89,10.81,11.69006,17.13,10.89,28.89,21.91A83.71076,83.71076,0,0,1,635.12929,518.88775Z" fill="#295566" stroke="#ebac4e" stroke-miterlimit="10"/><path d="M654.82924,518.92767c-4.77-.0199-9.55994-.0199-14.33-.02991-1.79,0-3.57-.01-5.37-.01a83.71076,83.71076,0,0,0-16-20.8c-11.76-11.02-18.08-10.22-28.89-21.91-9.34-10.1-6.74-13-17.26-25.89-10.69-13.1-13.8-10.61-25.88995-23.90991-13.77-15.12011-11.02-19.74-25.23-33.52-2.22-2.16-4.2-4.08007-6.12-5.84008-.38-.35987-.76995-.72-1.15-1.03992-.38-.35-.75-.69007-1.13-1-.38-.34-.75-.66-1.13-.9801-.18-.14991-.38-.32-.57-.48-.19-.16993-.38-.31995-.58-.47-.41-.32995-.83-.66992-1.26-1-.35-.28-.71-.54-1.08-.81994-.36005-.27-.72-.53-1.1-.8-.69-.49-1.39-.96-2.11-1.44006l-.09-.05994c-.34-.22-.68-.44006-1.03-.66-.44-.27-.88-.54993-1.34-.81995-.02-.12-.06-.23-.09-.35a27.34189,27.34189,0,0,0-2.47-6.15c-2.98-5.4-6.28-7.01-9.3-10.96008-2.29-3-5.04-14.32-5.24-15.7699a.032.032,0,0,1,.06-.02c3.58,5.43,7.91,10.26,13.19,15.86l.02.02c1.63995,1.85,3.2,3.52,4.6,4.90992,0,.01,0,.02.01.02.33.34008.65.66.97.96008,9.99,10.56994,14.85,12.02991,27.29,22.91.83.73,1.69,1.49,2.59,2.30994a261.32035,261.32035,0,0,1,26.56,27.9c14.59,17.80005,12.23,20.02,22.92,30.87,8.02,8.15,12.67,10.27991,18.54,14.17a83.32568,83.32568,0,0,1,12.66,10.39991c11.07,10.82006,11.68006,15.35009,21.91,27.22A151.78924,151.78924,0,0,0,654.82924,518.92767Z" fill="#295566" stroke="#ebac4e" stroke-miterlimit="10"/><path d="M700.7693,518.99762q-8.19012-.015-16.38-.0199a136.64878,136.64878,0,0,0-13.47-10.92005c-6.56006-4.62-11.91-7.3999-18.26-14.61-3.67-4.17-4.88-6.78992-9.3-9.63-5.63-3.62-8.53-2.6-14.27-6.31-6.42-4.11988-6-7.44-10.95-10.61988-2.97-1.90014-7.66-3.63012-15.32-2.76-5.87-3.89013-10.52-6.02-18.54-14.17-10.69-10.85-8.33-13.07-22.92-30.87a261.32035,261.32035,0,0,0-26.56-27.9c-.9-.82-1.76-1.58-2.59-2.30994-12.38-10.94006-16.79-12.85009-27.29-22.91-.36-.38-.72-.76-1.07-1.13-1.57-1.66-3.08-3.24-4.51-4.76l-.02-.02c-8.93-10.03-20.6-25.37-22.95-29.96-4.31-8.42-9.92-13.71-14.88-19.54,5.4,3.3,8.25,3.65,12.19,5.51.28.13.57.27.86.42,8.83,4.54,9.77,10.31,17.44,18.43,7.48005,7.93,11.1,7.2301,23.4,15.44006,14.18,9.47,22.92,19.48,36.35,34.85,14.06,16.09,12.16,17.22,21.42005,25.41,10.66,9.41992,15.35,9.83,27.39,20.90992,10.39,9.57006,8.49,10.72,17.92,19.43,13.14,12.12,18.17,11.13,33.87994,23.4,9.64,7.55005,8.95,8.86,25.39,24.39991C688.68935,509.12774,696.04921,515.2077,700.7693,518.99762Z" fill="#1ba0b4" stroke="#ebac4e" stroke-miterlimit="10"/><path d="M723.5193,519.03765q-11.36993-.015-22.75-.04c-4.72009-3.78992-12.08-9.86988-23.04-20.24-16.44006-15.53992-15.75-16.84986-25.39-24.39991-15.71-12.27-20.74-11.28-33.87994-23.4-9.43-8.71008-7.53-9.86-17.92-19.43-12.04-11.08-16.73-11.49-27.38995-20.90992-9.26-8.19006-7.36005-9.32007-21.42005-25.41-13.43-15.37-22.17-25.38-36.35-34.85-12.3-8.21-15.92-7.51-23.4-15.44006-7.67-8.12-8.61-13.88995-17.44-18.43-.29-.15-.57995-.29-.86-.42-3.94-1.86-6.79-2.21-12.19-5.51-.29-.17-.59-.35-.89-.55-4.41-2.78-5.2-4.14-9.96-7.46-7.5-5.23-10-4.95-14.45-7.97-4.24-2.89-4.92-5.15-10.39-15.18-.82-1.52-1.76-3.22-2.85-5.13-.37-.67-.77-1.37-1.19-2.1-9.78-17.04-13.21-20.15-17.44-21.91a21.5744,21.5744,0,0,0-13.44-1c-7.7,2.1-10.98,9.27-16.93,16.93-11.62,14.96-11.55,24.15-22.41,39.84-2.03,2.94-8.68,9.8-21.91,23.41-27.5,28.28-27.61,27.41-33.87,34.86-17.43,20.74-12.85,23.14-27.39,38.84009-8.37,9.04993-8.15,6.3999-38.34,31.37989-17.68005,14.63012-26.62,22.08007-31.88,28.88012-10.15,13.15991-9.76,18.60987-20.41,27.3999-8.32,6.8501-13.99,8-19.92,15.93006a39.60788,39.60788,0,0,0-5.85,11.23q-15.045-.015-30.07-.04993a74.71471,74.71471,0,0,1,9.52-19.15014c9.68-13.92994,15.31-15.32,32.87-27.87989,17.23-12.33008,26.86005-30.22,38.84-47.81006,5.37-7.88,8.92-13.79,16.44-21.91992,6.36-6.87011,8.58-7.81006,18.63-17.25.72-.69006,1.47-1.41015,2.28-2.17,8.19-7.83,14-13.38,20.43006-21.41,9.66-12.1,7.15-12.87,14.43-21.40991,12.33-14.45007,18.83-11.46008,31.38-25.91009,9.56-11,7.35-14.53,15.93-20.9.31-.24.61-.45.91-.65.58-.42,1.14-.8,1.69-1.14.01,0,.01-.01.02-.01.25-.13995.5-.29.73-.43.04-.02.07-.05.11-.05.27-.16.54-.31.8-.46.26-.13995.52-.27.78-.4a27.7,27.7,0,0,1,2.97-1.26c.25-.09.48-.17.7-.25a2.35244,2.35244,0,0,1,.35-.11c.35-.13.7-.24,1.04-.34.4-.12.8-.24,1.2-.35.27-.08.56-.16.83-.25.22-.07.46-.13.68-.2.1-.02.22-.06.32-.09a1.20062,1.20062,0,0,0,.18-.05c.05-.01.1-.03.15-.04a2.57544,2.57544,0,0,0,.26-.08c.01-.01.01-.01.02-.01.37-.1.73-.22,1.1-.35.05-.01.09-.03.13-.04.15-.05.29-.1.45-.15.44-.16.9-.33,1.35-.51.03-.01.05-.03.08-.04.43-.17.86-.36,1.3-.57.22-.11.44-.21.66-.33.1-.04.17-.09.26-.13a2.785,2.785,0,0,0,.42-.22c.12-.06.23-.13.35-.19q.52506-.3,1.05-.63c.24-.15.49-.31.73-.47.73-.48,1.5-1.04,2.29-1.66,4.64-3.68,3.79-4.72,15.93-21.91,11.73005-16.59,15.23005-19.45,19.43-21.42,2.31-1.09,9.72-4.56,17.93-2.48,12.46,3.15,10.99,15.11,25.39,22.9,10.71,5.8,15.44,1.3,24.4,8.46,7.32,5.85,5.46,9.89,12.46,14.45a19.67805,19.67805,0,0,0,3.22,1.73,4.31566,4.31566,0,0,0,.48.19,2.87557,2.87557,0,0,0,.37.15c.14.05.28.1.43.15a1.27039,1.27039,0,0,1,.23.08h.01c.12.04.24.08.37.12a2.53709,2.53709,0,0,1,.37.1c.25.07.5.13.73.18a2.9607,2.9607,0,0,0,.38.09,1.28458,1.28458,0,0,0,.19.04c.07.02.12.02.16.03.18006.04.35.06.52.09a1.34731,1.34731,0,0,0,.18.03h.01a.12672.12672,0,0,0,.06.01.63641.63641,0,0,0,.07.02.67948.67948,0,0,0,.15.02c.04,0,.08.01.12.01a2.90381,2.90381,0,0,0,.31.04c.13995.02.26995.04.41.06.04,0,.08.01.13.01a2.371,2.371,0,0,0,.28.04c.18.02.36.03.54.04.18.02.36.04.55.05.53.04,1.05.06006,1.57.09a.969.969,0,0,0,.17.01c.38.03.76.04,1.13.07.26.01.52.02.8.05.11005.01.23.02.35.02.35.03.7.07,1.05.11.03,0,.07.01.09.01.39.05.78.1,1.17.17a.52248.52248,0,0,1,.18.03c.34.05.68.11,1.02.18994.4.09.8.2,1.22.31006h.01c.2.05.38.12.58.18.19.06.38995.12.57995.2.18006.06.36005.13.55.21a4.6638,4.6638,0,0,1,.58.23,23.28559,23.28559,0,0,1,2.58,1.31c6.04,3.59,6.64,7.48,12.95,15.93006,8.1,10.88995,13.22,12.59,22.91,21.91a139.78061,139.78061,0,0,1,23.9,30.89c.62.69,1.3,1.45,2.03,2.29,3.3,3.72,7.72,8.73,12.91,14.6399,24.84,28.31005,25.03,29.3601,30.38,34.37011,15.93,14.91992,18.92,10.09986,41.83,27.87989a258.64861,258.64861,0,0,1,33.37,31.37011c19.44007,21.37989,16.42,24.43994,29.38,34.85987C708.14931,511.30767,718.11928,514.22772,723.5193,519.03765Z" fill="#66a0b2" stroke="#ebac4e" stroke-miterlimit="10"/><path d="M425.79927,279.3977a27.00161,27.00161,0,0,0-8.03-2.49c-15.13-2.16-27.34,9.94-29.62,11.95-12.1,10.5-9.52,16.99-24.16,31.62006-4.97,4.96-5.53,4.47-16.69,14.18994-11.63995,10.14-17.99,14.79-21.91,20.41-2.3,3.31006-1.02,1.15-5.06,7.48-.03.04-.05.09009-.08.13-.02.03-.04.07-.06.1a.41318.41318,0,0,1-.07.11011c-.03.03992-.05.08985-.08.12989-.44.66-1.28,1.97-2.31994,3.59008-3.31,5.14991-8.63,13.46-8.88,14.09-.06.09-.11005.17-.16.25-.09.14-.23.34-.38.55994-.12.17-.22.33007-.31.47-.37.53-.62.90014-.72,1.05-.78,1.15-1.6,2.29-2.41,3.43006q-1.29,1.845-2.63995,3.68c-.12006.16992-.25.33985-.36005.51-.56.75-1.11,1.50989-1.66,2.24-.85,1.16992-1.74,2.32-2.62,3.5-.51.6499-1,1.27991-1.48,1.91992-.86,1.1-1.71,2.21-2.59,3.32007a.46136.46136,0,0,0-.07.07c-.26.34-.53.67-.8,1.01-.25.32995-.52.66-.79.99-.5.63-1.02,1.27-1.55,1.9-.51.6399-1.02,1.25-1.51,1.85q-1.59,1.91987-3.19,3.77c.19-.3.39-.61.58-.91.38-.57006.75-1.14,1.11-1.7-18.9,10.87989-30.81994,22.74-38.34,31.87989-11.75,14.27-13.84,24.18-29.38,35.85009-10.48,7.87-12.92,7.04-22.42,15.92994-6.06,5.70007-16.36,15.3601-18.87,25.74q-13.155-.045-26.31-.05994a39.60788,39.60788,0,0,1,5.85-11.23c5.93-7.93006,11.6-9.08,19.92-15.93006,10.65-8.79,10.26-14.24,20.41-27.3999,5.26-6.8,14.19995-14.25,31.88-28.88012,30.19-24.98,29.97-22.33,38.34-31.37989,14.54-15.70007,9.96-18.1001,27.39-38.84009,6.26-7.45,6.37-6.57995,33.87-34.86,13.23-13.61,19.88-20.47,21.91-23.41,10.86005-15.69,10.79-24.88,22.41-39.84,5.95-7.66,9.23-14.83,16.93-16.93a21.5744,21.5744,0,0,1,13.44,1c4.23,1.76,7.66,4.87,17.44,21.91.42.73.82,1.43,1.19,2.1C424.03926,276.17767,424.97926,277.87768,425.79927,279.3977Z" fill="#76bccc" stroke="#ebac4e" stroke-miterlimit="10"/><path d="M336.34926,361.97772c-.24,2.68994-2.47,3.96-4.07,5.89-3.08,3.73-2.35,8.1-2.74,11.86988a11.39216,11.39216,0,0,1-.46,2.34008,11.07122,11.07122,0,0,1-.71,1.77,1.90634,1.90634,0,0,1-.16.32,2.57551,2.57551,0,0,1-.17005.33.89172.89172,0,0,1-.12994.2301c-.11005.21-.24.43994-.39.68005-.18.29993-.37.61988-.59.94995-.15.23-.32.48-.5.74-.18.27-.36.54-.57.83-.47.66-.99,1.38-1.6,2.17-.18.24-.38.5-.57.76-.16.18994-.31.39991-.48.62-.17005.21-.34.43005-.52.65-.41.51-.82,1.03992-1.28,1.6-.05.05993-.09.12-.14.18005-.05.05994-.11.11988-.16.17993-.35.45-.72.89991-1.11,1.38-.99,1.22-2.1,2.54993-3.32,4.0199-12.55,15.06-13.86,15.47009-19.26,22.57006-8.11,10.69-5.98,10.84009-13.27,20.59009-12.46,16.66992-17.03,14.02991-25.57,27.88989-5.77,9.36011-5.36,13.25-12.95,22.91-4.77,6.05994-6.45,6.45007-9.62,11.95007-1.91,3.28992-2.71,5.58-5.56,12.72-2.48-.01-4.98-.01-7.46-.01-6.22-.03-12.43-.03-18.65-.04,16.17-22.24,30.91-36,38.64-46.19995q3.09-4.08,6.1-8.14,2.745-3.70513,5.43-7.39c1.59-2.2,3.17-4.37,4.73-6.55.52-.73,1.04-1.45,1.55-2.16992.95-1.33008,1.9-2.66,2.82-3.98,1.21-1.71008,2.4-3.40014,3.57-5.09009,1.18-1.68994,2.34-3.38,3.5-5.06.4-.57.79-1.12989,1.18-1.7.89-1.30993,1.79-2.61,2.66-3.90991q.645-.94518,1.26-1.8601,1.275-1.875,2.5-3.72c.83-1.24,1.67-2.47,2.46-3.7q1.245-1.845,2.43-3.67c.82-1.23,1.61-2.45,2.39-3.66l.04-.03992q1.605-1.84515,3.19-3.77c.49-.6,1-1.21008,1.51-1.85.53-.63,1.05-1.27,1.55-1.9.27-.33.54-.66.79-.99.27-.34.54-.67005.8-1.01a.46136.46136,0,0,1,.07-.07c.88-1.1101,1.73-2.22009,2.59-3.32007.48-.64.97-1.27,1.48-1.91992.88-1.18,1.77-2.33008,2.62-3.5.55-.7301,1.1-1.49,1.66-2.24.11005-.17016.24-.34009.36005-.51q1.34994-1.83014,2.63995-3.68c.81-1.14,1.63-2.28,2.41-3.43006.1-.1499.35-.52.72-1.05.09-.1399.19-.29993.31-.47.15-.22.29-.41993.38-.55994.1-.14.16-.23.16-.23v-.02c1.63995-2.45007,4.09-6.13,5.21-7.89.47-.75.94-1.48,1.39-2.22.36-.56006.72-1.13,1.07-1.71.35-.58008.8-1.31006,1.33-2.17.63-1.05,1.38-2.28,2.2-3.69006.03-.04.05-.09.08-.12989a.41318.41318,0,0,0,.07-.11011c.02-.03.04-.06994.06-.1.03-.03992.05-.09.08-.13.2.1001.42.22.67.33008a7.60611,7.60611,0,0,0,2.99.65991h.06a5.29862,5.29862,0,0,0,.57-.03c.13-.01.25-.02.38-.03992.14-.02.29-.04.42-.06995.1-.02.21-.04.31-.07007a3.45419,3.45419,0,0,0,.52-.16,1.97449,1.97449,0,0,0,.39-.13,9.17777,9.17777,0,0,0,1.57-.78c.26-.14991.51-.31995.76-.49.35-.25.69-.51,1.00994-.77.34-.27.67005-.55994.99006-.82.13995-.13.26995-.24.4-.35.06-.04.09-.08007.13-.11.19-.17005.38-.33.55-.47009.09-.08.18-.14991.27-.22a5.40113,5.40113,0,0,1,.52-.38989,4.77227,4.77227,0,0,1,.5-.33008,2.48833,2.48833,0,0,1,.47-.22,1.56942,1.56942,0,0,1,1.22-.03,2.44558,2.44558,0,0,1,1.16,1.76A6.8463,6.8463,0,0,1,336.34926,361.97772Z" fill="#638a96" stroke="#ebac4e" stroke-miterlimit="10"/><path d="M417.29927,296.35766c-.04.05-.09.1-.13995.17005-.06006.06-.13.13995-.21.22a10.60577,10.60577,0,0,1-1.15.94c-.2.14-.41.3-.63.45-1.25.87-2.92,1.94-4.93,3.24-.37.23-.74.48-1.13.73-.96.63-1.99,1.31-3.08,2.05a124.20849,124.20849,0,0,0-16.35,12.88,83.31305,83.31305,0,0,0-10.62,12.15c-4.1,5.83-4.39,7.99-6.97,11.71008-5.95,8.53992-12.5,8.36988-18.69,13.68994-4.77,4.11-9.86005,11.7-10.83,27.02-.18.22-.39.46-.6.72-.38.46-.81.99-1.25,1.58008a45.26919,45.26919,0,0,0-2.75,4.04993,53.9427,53.9427,0,0,0-4.5,9.66l-.24006.54a60.77859,60.77859,0,0,1-15.18,20.92993c-3.65,3.13-4.65,3.04-6.97,5.85a28.03262,28.03262,0,0,0-5.86,13.94006c-2,12.74-8.24006,24.43994-12.19,36.72-5.28,16.38-9.56,29.40992-16.48,42.61q-23.055-.06006-46.1-.09c2.85-7.14,3.65-9.43005,5.56-12.72,3.17-5.5,4.85-5.89013,9.62-11.95007,7.59-9.66,7.18-13.54993,12.95-22.91,8.54-13.86,13.11-11.22,25.57-27.88989,7.29-9.75,5.16-9.90014,13.27-20.59009,5.4-7.1,6.71-7.51,19.26-22.57006,1.22-1.47,2.33-2.79993,3.32-4.0199.4-.47009.76-.92005,1.13-1.36.05-.07007.1-.13.14-.19995.05-.06006.09-.12012.14-.18005.46-.56006.87-1.09,1.28-1.6.18-.22.35-.44006.52-.65.17-.22009.32-.43006.48-.62.19-.26.39-.52.57-.76.61-.79,1.13-1.51,1.6-2.17.21-.28992.39-.55994.57-.83.18-.26.35-.51.5-.74.22-.33007.41-.65.59-.94995.15-.24011.28-.47009.39-.68005a.89172.89172,0,0,0,.12994-.2301,2.57551,2.57551,0,0,0,.17005-.33,1.90634,1.90634,0,0,0,.16-.32,11.07122,11.07122,0,0,0,.71-1.77,71.89721,71.89721,0,0,0,5.86-7.15,65.458,65.458,0,0,0,4.71-7.48c2.41-4.53992,3.02-7.18005,7.57-12.77,7.87994-9.7,13.14-10.44006,22.57995-19.26,9.48-8.87,6.27-10.91,18.26-24.57,6.3-7.18,14.12-14.78,24.27-15.97.83-.11,4.87-.57,5.28.57A.94812.94812,0,0,1,417.29927,296.35766Z" fill="#1ba0b4" stroke="#ebac4e" stroke-miterlimit="10"/></g><g id="Layer_3" data-name="Layer 3"><path d="M326.45749,219.248c-.7412.79326-1.41732,1.58645-2.06749,2.37964-5.24039,6.47565-6.72279,10.25967-8.84227,15.08387a.21867.21867,0,0,1-.28612.10405,13.39965,13.39965,0,0,0-3.901-1.32629,13.24388,13.24388,0,0,0-4.23911-.013,19.39426,19.39426,0,0,0-5.72143,2.00249,38.99858,38.99858,0,0,1-10.93588,3.23783c-12.84733,2.04154-27.42406-.4681-33.87376-2.24956-5.35738-1.46938-9.16736-3.22481-17.93161-4.98031a106.55726,106.55726,0,0,0-29.8818-2.31456c-15.292,1.14431-18.95885,5.35738-32.20929,3.65395-1.2874-.169-13.8356-1.88551-14.26473-5.9816-.195-1.70344,1.7555-3.53688,3.64093-5.31833a20.0506,20.0506,0,0,1,2.34067-1.89852c2.52257-1.75543,4.187-2.04154,4.30411-3.0818.26-2.34059-7.71107-5.70849-17.5936-7.958-10.23364-2.34059-14.58974.31207-31.87127.98827-.49413.013-.98826.039-1.4824.052-12.99035.52017-27.80113.85827-30.72688-5.69548-1.22232-2.73067-.05207-5.9685,1.15723-8.30917a.18425.18425,0,0,0,.026-.078.20878.20878,0,0,0-.234-.221,5.75591,5.75591,0,0,1-3.901-10.18166,5.57282,5.57282,0,0,1,.62413-.4681,14.93729,14.93729,0,0,1-.98827-17.59352,14.61668,14.61668,0,0,1,10.28571-6.29366,15.18659,15.18659,0,0,1,3.992-.013c.026-.052.052-.104.091-.169a17.14624,17.14624,0,0,1,7.20384-7.13884,17.74164,17.74164,0,0,1,13.73155-.7412.20776.20776,0,0,0,.2731-.156,14.22421,14.22421,0,0,1,25.1745-5.07127c.286-.10405.55914-.19508.84517-.2731,7.39892-2.23662,14.49879.32509,17.08645,5.25333a11.79,11.79,0,0,1,.50715,8.72529c-.065.221-.13.41612-.18207.57215a19.193,19.193,0,0,1,7.30789,1.65146c4.74626,2.14551,10.50674,7.16479,9.29744,10.62373-1.04026,3.01679-6.86582,3.53687-8.55624,3.64092a.20793.20793,0,0,0-.18207.32509c.96232,1.39137,3.836,5.96858,2.0936,9.64848-.75421,1.61248-2.52265,3.3029-9.96062,4.65522a56.72413,56.72413,0,0,1-18.84465.66341c-.24706-.026-.31451.80485-.09348.9089a38.14952,38.14952,0,0,0,25.92093,2.74482,38.86717,38.86717,0,0,0,11.28692-4.65523,8.21393,8.21393,0,0,1,.75421.57215c1.69043,1.40439,2.61369,3.21188,2.23662,4.74627-.49413,1.9505-2.9648,2.78274-4.31712,3.31584-3.22489,1.2743-6.08557.299-6.30668,1.00128-.23406.67612,2.18455,2.41861,5.30539,3.64093,6.89177,2.71766,10.07761.091,16.93041,2.32757,4.096,1.33939,8.29616,4.01808,7.97107,5.6435-.11706.55914-.76723,1.04025-7.30788,2.65266-5.76056,1.43042-7.568,1.6124-7.633,2.32765-.143,1.53439,5.43547,3.31585,9.29744,4.31705,11.80708,3.05584,18.2567-2.82171,28.88051-3.65394,12.34018-.96224,11.26088,5.74754,27.22905,7.633,12.45717,1.4824,33.74368-.156,47.80032-8.62116,1.80748-1.09232,5.82556-3.693,11.287-3.654a18.8168,18.8168,0,0,1,4.60316.63723,22.31329,22.31329,0,0,1,4.81127,2.04154A.21417.21417,0,0,1,326.45749,219.248Z" fill="#f4ebca" stroke="#ebac4e" stroke-miterlimit="10"/><path d="M192.83487,177.71523c-.79318,3.732-6.08557,5.63048-8.29607,6.30668.8712.96223,2.89972,3.48489,2.65265,6.6447-.11706,1.52137-2.05455,3.49791-2.31463,3.31584a38.86717,38.86717,0,0,1-11.28692,4.65523c-12.41213,2.89781-23.56338-1.52753-28.19344-3.772-.18673-.09052.51254-.10287.71846-.07715a67.46264,67.46264,0,0,0,20.49218-.468c7.438-1.35232,9.20641-3.04274,9.96062-4.65522,1.92448-4.044-1.7555-9.1934-2.31463-9.96055.75421-.026,7.802-.31207,8.95934-3.65394,1.2093-3.45894-4.55118-8.47822-9.29744-10.62373a19.193,19.193,0,0,0-7.30789-1.65146c.05206-.156.11707-.35111.18207-.57215a24.76674,24.76674,0,0,1,10.77976.57215C184.9419,165.85616,194.00521,172.26681,192.83487,177.71523Z" fill="#eadb9d" stroke="#ebac4e" stroke-miterlimit="10"/><path d="M148.84841,148.03687l-1.16222.6501a14.21314,14.21314,0,0,0-24.50531,5.88648.21144.21144,0,0,1-.27745.14935,17.77646,17.77646,0,0,0-13.73218.74368,17.1305,17.1305,0,0,0-6.90512,6.60048.22263.22263,0,0,1-.40926-.08068,11.86869,11.86869,0,0,1,3.82948-10.66787c4.53042-3.97615,10.23312-2.66028,11.2941-2.36292a.19579.19579,0,0,0,.238-.10831,18.5488,18.5488,0,0,1,5.41126-6.65709c5.20135-3.95307,13.75759-5.83857,20.0772-1.66446A16.23671,16.23671,0,0,1,148.84841,148.03687Z" fill="#eadb9d" stroke="#ebac4e" stroke-miterlimit="10"/><path d="M87.59862,169.08105a14.92579,14.92579,0,0,0,.80745,17.36408l-.30446.68721a11.3136,11.3136,0,0,1-5.15814-.78286c-3.88807-1.57335-7.21693-5.42238-7.29495-9.79149-.104-5.65652,5.2404-9.16744,7.464-10.62381a22.122,22.122,0,0,1,14.49556-3.1766c.04335.00446.0381.06282-.005.06928A14.6014,14.6014,0,0,0,87.59862,169.08105Z" fill="#eadb9d" stroke="#ebac4e" stroke-miterlimit="10"/><path d="M121.64143,211.628c-2.52266.50715-5.48738,1.09232-8.97228,1.78146-10.68881,2.11955-12.60026,2.53567-16.11119,2.31464-8.89426-.5462-19.66108-4.65523-19.75212-8.95934-.065-3.28989,6.13763-6.68375,15.292-9.21943a.18425.18425,0,0,1-.026.078c-1.2093,2.34067-2.37955,5.5785-1.15723,8.30917C93.8403,212.4863,108.65108,212.1482,121.64143,211.628Z" fill="#eadb9d" stroke="#ebac4e" stroke-miterlimit="10"/><path d="M290.46418,240.71656a108.41334,108.41334,0,0,1-21.92366,4.2261,89.3782,89.3782,0,0,1-26.56587-1.32629c-10.90984-2.23662-11.69-4.61626-20.7534-5.6435-5.92954-.6762-7.28186.156-23.9002,1.98947-21.29952,2.35369-26.35777,1.79447-31.20808.3381-7.04781-2.11955-15.74706-6.73573-15.266-10.45468.13-1.04025.96224-2.05455,4.98032-3.992a54.92814,54.92814,0,0,1,12.45725-4.22609,20.0506,20.0506,0,0,0-2.34067,1.89852c-1.88543,1.78145-3.83593,3.61489-3.64093,5.31833.42913,4.09609,12.97733,5.81255,14.26473,5.9816,13.25044,1.70343,16.91732-2.50964,32.20929-3.65395a106.55726,106.55726,0,0,1,29.8818,2.31456c8.76425,1.7555,12.57423,3.51093,17.93161,4.98031C263.04012,240.24846,277.61685,242.7581,290.46418,240.71656Z" fill="#eadb9d" stroke="#ebac4e" stroke-miterlimit="10"/><path d="M115.98333,190.58074s.249,1.577,6.142,3.32,14.53127.51547,23.9896.8878" fill="none" stroke="#ebac4e" stroke-miterlimit="10"/><path d="M146.69335,185.18573c.52112-.14246,8.25092-2.33245,8.383-6.142a3.77535,3.77535,0,0,0-.913-2.407c-3.51922-4.64737-12.89507-6.03894-20.833-5.478-5.88442.4158-12.10364.85529-16.683,5.727-1.32137,1.40574-3.48851,3.30247-3.735,6.391-.30881,3.86966,3.071,7.304,3.071,7.304s-.581-3.403.415-5.312c5.14428-9.85974,22.27894-8.0219,24.9-7.802a8.26881,8.26881,0,0,1,5.312,2.158,4.07114,4.07114,0,0,1,1.411,2.988A3.79967,3.79967,0,0,1,146.69335,185.18573Z" fill="#eadb9d" stroke="#ebac4e" stroke-miterlimit="10"/></g><g id="Layer_9" data-name="Layer 9"><path d="M720.83925,367.24762c-4.77-.29993-10.29-.60987-16.36-.86988-24.64-1.08008-37.14-1.56006-45.16,1-11.28992,3.6-14.59,8.25-25.40991,10.15991-.98.18006-2.02.33008-3.13.46-5.63.64013-12.41,1.31-18.11-1.83a16.75944,16.75944,0,0,1-1.81-1.16,30.12581,30.12581,0,0,1-4.13-4.07.93674.93674,0,0,1-.1-.1c-.23-.23-.46-.46-.72-.67993-.08-.08008-.16-.15014-.25-.2301a15.63132,15.63132,0,0,0-3.44-2.23c-2.23005-1.07-6.92005-3.35-11.04-2.13a8.26223,8.26223,0,0,0-1.25.48,7.87117,7.87117,0,0,0-3.09,3.05,8.95426,8.95426,0,0,1-2.21,2.26,11.30365,11.30365,0,0,1-6.43,1.91993,21.599,21.599,0,0,1-5.2-.59,41.38247,41.38247,0,0,1-24.9,10.62,40.19306,40.19306,0,0,1-17.73-2.99c-.56-.24-1.07-.46-1.53-.66992-15.95,2.40991-28.5-.75-31.2-7.63012a9.30033,9.30033,0,0,1-.33-5.29993c-4.85-1.05994-5.76-3.03-5.98-3.66-1.24-3.55,3.65-9.52,12.95-14.28-3.58-2.62989-4.32-4.79-4.32-6.29993.03-9.23,28.34-15.33,31.21-15.94.42-.26.83-.51,1.24-.76a53.7921,53.7921,0,0,1,8.74-4.18,50.32974,50.32974,0,0,1,4.87-1.54c1.38-.36,2.64-.62,3.75-.82.32-.06.64-.11.98-.16a56.72459,56.72459,0,0,1,5.76-.63c1.86-.12,3.8-.15,5.76-.09,10.07.3,20.69,3.11005,24.67,10.84a15.72093,15.72093,0,0,1,1.67,7.29993c3.33-1.03992,19.52-5.83,28.88,2.32006.83.72,6.02,5.23,4.98005,9.3-.92005,3.61988-6.14,4.41992-5.97,5.30994.41,2.16,21.04,3.82,23.4,3.65,40.5-2.86,48.47-4.64,66.07007,3.65992.55993.46008,6.68994,3.43,10.11987,4.9801A25.32705,25.32705,0,0,0,720.83925,367.24762Z" fill="#f4ebca" stroke="#ebac4e" stroke-miterlimit="10"/><path d="M538.47488,356.91621c.81027-2.363,2.47279-6.47164,5.976-9.13,5.9863-4.54264,13.32943-2.87928,20.584-1.992,5.46458.66834,22.83988,2.42955,25.564,13.612a10.24935,10.24935,0,0,1-.66575,6.645" fill="none" stroke="#ebac4e" stroke-miterlimit="10"/><path d="M557.57565,358.48382a1.48047,1.48047,0,0,1,2.07409-.87124c1.93214.97174,4.45019,2.592,4.38915,4.44962-.10714,3.26088-8.09159,5.12916-10.292,5.644-10.57281,2.47389-24.17374.8-25.232-3.984-.53268-2.408,1.6797-5.84708,4.648-6.972,1.701-.64466,4.29276-1.053,5.312.166.55741.66668.19572,1.26942.498,2.158.92779,2.7273,6.482,3.36009,9.711,3.237,1.72409-.06571,7.46275-.28453,8.798-3.569Q557.53466,358.61238,557.57565,358.48382Z" fill="#eadb9d" stroke="#ebac4e" stroke-miterlimit="10"/><path d="M499.96286,342.47608c0,1.50835.7412,3.66688,4.31713,6.3066-9.29744,4.7592-14.18664,10.72778-12.95139,14.27767.22112.62422,1.13129,2.60067,5.9816,3.65394a9.33243,9.33243,0,0,0,.32508,5.3054c2.70473,6.87875,15.25293,10.03864,31.20809,7.633q.68262.31215,1.52137.66319a43.33316,43.33316,0,0,1-11.80708,2.83472c-9.76546.91025-24.5633-1.10525-26.22777-7.802-.286-1.15732-.41612-3.32886,1.8205-6.6447-10.84484,1.17025-18.95893-2.45766-19.58307-6.13763-.63723-3.75792,6.04652-10.05158,17.25542-12.28812-3.19878-2.39266-3.888-4.44721-3.979-5.81255-.5331-7.97107,17.74963-14.94086,28.72447-17.42447,5.00627-1.1443,11.82-2.6917,15.8381-1.26136-.4031.24706-.81922.49413-1.23534.75421C528.29725,327.14505,499.98889,333.24364,499.96286,342.47608Z" fill="#eadb9d" stroke="#ebac4e" stroke-miterlimit="10"/><circle cx="294.60927" cy="40.47216" r="39.97216" fill="#f05454" stroke="#ebac4e" stroke-miterlimit="10"/></g><g id="Layer_5" data-name="Layer 5" opacity="0.5"><circle cx="229.67595" cy="409.32389" r="1.43884" fill="#fffffd"/><circle cx="246.44556" cy="396.61455" r="1.43884" fill="#fffffd"/><circle cx="246.44556" cy="386.21185" r="1.43884" fill="#fffffd"/><circle cx="250.67279" cy="381.86745" r="1.43884" fill="#fffffd"/><circle cx="258.15548" cy="385.33546" r="1.43884" fill="#fffffd"/><circle cx="255.27781" cy="375.1688" r="1.43884" fill="#fffffd"/><circle cx="262.22602" cy="368.12341" r="1.43884" fill="#fffffd"/><circle cx="268.54257" cy="369.24096" r="1.43884" fill="#fffffd"/><circle cx="267.76515" cy="362.68146" r="1.43884" fill="#fffffd"/><circle cx="267.76515" cy="356.8508" r="1.43884" fill="#fffffd"/><circle cx="276.12243" cy="354.81006" r="1.43884" fill="#fffffd"/><circle cx="274.68359" cy="363.45888" r="1.43884" fill="#fffffd"/><circle cx="280.46567" cy="373.32242" r="1.43884" fill="#fffffd"/><circle cx="290.32398" cy="359.72847" r="1.43884" fill="#fffffd"/><circle cx="286.97134" cy="351.93239" r="1.43884" fill="#fffffd"/><circle cx="287.99171" cy="340.95131" r="1.43884" fill="#fffffd"/><circle cx="281.52939" cy="339.51247" r="1.43884" fill="#fffffd"/><circle cx="284.40706" cy="310.16728" r="1.43884" fill="#fffffd"/><circle cx="277.56127" cy="315.5872" r="1.43884" fill="#fffffd"/><circle cx="279.85666" cy="321.46887" r="1.43884" fill="#fffffd"/><circle cx="270.35938" cy="321.46887" r="1.43884" fill="#fffffd"/><circle cx="263.66485" cy="331.11073" r="1.43884" fill="#fffffd"/><circle cx="257.59508" cy="328.81731" r="1.43884" fill="#fffffd"/><circle cx="257.59508" cy="333.39197" r="1.43884" fill="#fffffd"/><circle cx="253.05096" cy="338.07364" r="1.43884" fill="#fffffd"/><circle cx="243.56789" cy="346.00446" r="1.43884" fill="#fffffd"/><circle cx="236.76481" cy="346.00446" r="1.43884" fill="#fffffd"/><circle cx="204.3429" cy="332.54956" r="1.43884" fill="#fffffd"/><circle cx="207.22057" cy="328.81731" r="1.43884" fill="#fffffd"/><circle cx="211.72388" cy="321.46887" r="1.43884" fill="#fffffd"/><circle cx="214.60155" cy="325.93964" r="1.43884" fill="#fffffd"/><circle cx="220.64605" cy="317.02604" r="1.43884" fill="#fffffd"/><circle cx="222.08488" cy="303.28029" r="1.43884" fill="#fffffd"/><circle cx="236.76481" cy="350.49356" r="1.43884" fill="#fffffd"/><circle cx="242.12906" cy="354.09083" r="1.43884" fill="#fffffd"/><circle cx="232.79155" cy="355.41196" r="1.43884" fill="#fffffd"/><circle cx="236.76481" cy="364.89772" r="1.43884" fill="#fffffd"/><circle cx="226.79828" cy="365.55913" r="1.43884" fill="#fffffd"/><circle cx="232.78773" cy="376.60763" r="1.43884" fill="#fffffd"/><circle cx="220.00237" cy="376.60763" r="1.43884" fill="#fffffd"/><circle cx="220.8475" cy="380.42861" r="1.43884" fill="#fffffd"/><circle cx="310.58553" cy="333.39197" r="1.43884" fill="#fffffd"/><circle cx="309.66234" cy="320.03003" r="1.43884" fill="#fffffd"/><circle cx="323.07287" cy="317.93057" r="1.43884" fill="#fffffd"/><circle cx="316.80491" cy="307.28961" r="1.43884" fill="#fffffd"/><circle cx="326.68703" cy="303.69403" r="1.43884" fill="#fffffd"/><circle cx="324.04835" cy="297.96054" r="1.43884" fill="#fffffd"/><circle cx="331.43386" cy="299.07809" r="1.43884" fill="#fffffd"/><circle cx="330.70502" cy="294.69273" r="1.43884" fill="#fffffd"/><circle cx="337.45888" cy="298.67702" r="1.43884" fill="#fffffd"/><circle cx="344.84438" cy="304.11897" r="1.43884" fill="#fffffd"/><circle cx="349.65468" cy="291.75026" r="1.43884" fill="#fffffd"/><circle cx="355.72829" cy="278.9228" r="1.43884" fill="#fffffd"/><circle cx="360.9273" cy="283.83028" r="1.43884" fill="#fffffd"/><circle cx="360.9273" cy="270.03104" r="1.43884" fill="#fffffd"/><circle cx="344.27571" cy="237.11452" r="1.43884" fill="#fffffd"/><circle cx="341.51279" cy="244.00624" r="1.43884" fill="#fffffd"/><circle cx="335.03878" cy="250.41997" r="1.43884" fill="#fffffd"/><circle cx="336.02004" cy="255.02498" r="1.43884" fill="#fffffd"/><circle cx="331.43386" cy="258.83677" r="1.43884" fill="#fffffd"/><circle cx="326.52268" cy="266.34619" r="1.43884" fill="#fffffd"/><circle cx="369.47894" cy="262.06247" r="1.43884" fill="#fffffd"/><circle cx="372.69096" cy="257.39793" r="1.43884" fill="#fffffd"/><circle cx="372.69096" cy="251.8588" r="1.43884" fill="#fffffd"/><circle cx="378.27868" cy="255.9591" r="1.43884" fill="#fffffd"/><circle cx="378.71598" cy="248.13629" r="1.43884" fill="#fffffd"/><circle cx="381.59365" cy="244.00624" r="1.43884" fill="#fffffd"/><circle cx="384.75193" cy="246.69746" r="1.43884" fill="#fffffd"/><circle cx="389.17351" cy="244.21942" r="1.43884" fill="#fffffd"/><circle cx="389.56222" cy="239.99219" r="1.43884" fill="#fffffd"/><circle cx="397.98452" cy="239.60348" r="1.43884" fill="#fffffd"/><circle cx="394.00023" cy="246.26016" r="1.43884" fill="#fffffd"/><circle cx="403.42647" cy="256.46382" r="1.43884" fill="#fffffd"/><circle cx="416.64264" cy="253.68103" r="1.43884" fill="#fffffd"/><circle cx="419.31503" cy="257.22533" r="1.43884" fill="#fffffd"/><circle cx="421.89024" cy="262.66729" r="1.43884" fill="#fffffd"/><circle cx="421.26962" cy="270.03104" r="1.43884" fill="#fffffd"/><circle cx="425.80326" cy="265.17215" r="1.43884" fill="#fffffd"/><circle cx="429.64178" cy="268.5922" r="1.43884" fill="#fffffd"/><circle cx="437.75612" cy="269.6231" r="1.43884" fill="#fffffd"/><circle cx="435.56962" cy="278.11562" r="1.43884" fill="#fffffd"/><circle cx="441.69182" cy="277.62973" r="1.43884" fill="#fffffd"/><circle cx="446.69647" cy="268.98091" r="1.43884" fill="#fffffd"/><circle cx="448.13531" cy="276.1909" r="1.43884" fill="#fffffd"/><circle cx="445.60868" cy="285.61714" r="1.43884" fill="#fffffd"/><circle cx="448.99977" cy="281.90497" r="1.43884" fill="#fffffd"/><circle cx="454.1705" cy="278.11562" r="1.43884" fill="#fffffd"/><circle cx="456.5733" cy="283.82602" r="1.43884" fill="#fffffd"/><circle cx="456.32294" cy="291.91257" r="1.43884" fill="#fffffd"/><circle cx="470.69248" cy="288.3928" r="1.43884" fill="#fffffd"/><circle cx="479.68045" cy="294.17487" r="1.43884" fill="#fffffd"/><circle cx="478.62631" cy="304.21875" r="1.43884" fill="#fffffd"/><circle cx="484.18305" cy="298.35304" r="1.43884" fill="#fffffd"/><circle cx="489.52602" cy="300.261" r="1.43884" fill="#fffffd"/><circle cx="491.13995" cy="304.84234" r="1.43884" fill="#fffffd"/><circle cx="487.49578" cy="308.53509" r="1.43884" fill="#fffffd"/><circle cx="495.27" cy="308.17119" r="1.43884" fill="#fffffd"/><circle cx="500.46901" cy="324.15692" r="1.43884" fill="#fffffd"/><circle cx="512.51905" cy="323.42809" r="1.43884" fill="#fffffd"/><circle cx="516.74628" cy="335.62394" r="1.43884" fill="#fffffd"/><circle cx="539.43728" cy="334.55498" r="1.43884" fill="#fffffd"/><circle cx="521.35559" cy="308.17119" r="1.43884" fill="#fffffd"/><circle cx="546.2377" cy="304.90357" r="1.43884" fill="#fffffd"/><circle cx="541.57314" cy="276.67679" r="1.43884" fill="#fffffd"/><circle cx="555.57334" cy="296.38069" r="1.43884" fill="#fffffd"/><circle cx="559.21615" cy="302.01887" r="1.43884" fill="#fffffd"/><circle cx="562.60098" cy="306.28134" r="1.43884" fill="#fffffd"/><circle cx="513.76468" cy="298.15305" r="1.43884" fill="#fffffd"/><circle cx="507.27131" cy="292.32216" r="1.43884" fill="#fffffd"/><circle cx="504.90488" cy="288.3928" r="1.43884" fill="#fffffd"/><circle cx="508.71031" cy="287.05597" r="1.43884" fill="#fffffd"/><circle cx="488.89233" cy="276.67679" r="1.43884" fill="#fffffd"/><circle cx="475.94432" cy="269.84414" r="1.43884" fill="#fffffd"/><circle cx="475.94432" cy="265.72512" r="1.43884" fill="#fffffd"/><circle cx="475.44575" cy="262.06263" r="1.43884" fill="#fffffd"/><circle cx="416.64264" cy="210.53804" r="1.43884" fill="#fffffd"/><circle cx="412.07776" cy="203.62569" r="1.43884" fill="#fffffd"/><circle cx="406.64696" cy="200.0496" r="1.43884" fill="#fffffd"/><circle cx="407.2007" cy="204.26617" r="1.43884" fill="#fffffd"/><circle cx="397.98452" cy="201.18719" r="1.43884" fill="#fffffd"/><circle cx="388.85245" cy="202.38645" r="1.43884" fill="#fffffd"/><circle cx="386.19076" cy="231.04752" r="1.43884" fill="#fffffd"/><circle cx="394.60213" cy="229.27284" r="1.43884" fill="#fffffd"/><circle cx="481.60068" cy="267.15337" r="1.43884" fill="#fffffd"/><circle cx="481.60068" cy="262.06263" r="1.43884" fill="#fffffd"/><circle cx="547.6767" cy="337.90812" r="1.43884" fill="#fffffd"/><circle cx="548.28877" cy="342.56884" r="1.43884" fill="#fffffd"/><circle cx="548.28877" cy="346.6967" r="1.43884" fill="#fffffd"/><circle cx="553.3291" cy="344.75208" r="1.43884" fill="#fffffd"/><circle cx="557.3005" cy="357.74536" r="1.43884" fill="#fffffd"/><circle cx="429.04216" cy="278.11562" r="1.43884" fill="#fffffd"/><circle cx="396.04096" cy="259.18479" r="1.43884" fill="#fffffd"/><circle cx="397.98452" cy="267.78502" r="1.43884" fill="#fffffd"/><circle cx="405.80732" cy="267.15337" r="1.43884" fill="#fffffd"/><circle cx="406.09886" cy="273.22698" r="1.43884" fill="#fffffd"/><circle cx="391.55691" cy="269.6231" r="1.43884" fill="#fffffd"/><circle cx="385.77484" cy="280.70136" r="1.43884" fill="#fffffd"/><circle cx="378.62758" cy="276.10465" r="1.43884" fill="#fffffd"/><circle cx="374.75962" cy="292.955" r="1.43884" fill="#fffffd"/><circle cx="364.3616" cy="303.79032" r="1.43884" fill="#fffffd"/></g></g></svg>