<svg xmlns="http://www.w3.org/2000/svg" viewBox="0 0 487.37 196.75"><defs><style>.cls-1,.cls-2{fill:#214252;}.cls-2{stroke:#ebac4e;stroke-miterlimit:10;stroke-width:10px;}.cls-3{fill:#ce6262;}</style></defs><g id="Layer_2" data-name="Layer 2"><g id="圖層_1" data-name="圖層 1"><path class="cls-1" d="M43.38,159.31c0,13.24.49,19.86,2,28.68H0c1.47-8.33,2-15.93,2-28.68V28.92A170.55,170.55,0,0,0,0,1c8.58.49,15.2.74,27,.74H91.91A190.32,190.32,0,0,0,120.1,0V39c-8.09-1.22-15.2-1.71-28.19-1.71H43.38V82.35h35.3a188.32,188.32,0,0,0,27.94-1.71v25.77c-8.09-1.23-15.2-1.72-27.94-1.72H43.38Z"/><path class="cls-1" d="M308.52,64.09c2.06,5.27,5.65,9.58,13,18.52A38.85,38.85,0,0,0,325,86.28l34.32,33.09c10.69,9.82,26.81,26.91,39.61,37.3a2.73,2.73,0,0,0,4.44-2.08c.25-15.82,0-18.84,0-20.77l-.73-113C402,6.54,400.53,6.18,396,1.72h36.26c-1.47,8.82-2,15.68-2,28.18V160.54c0,12.26.49,19.61,2,27.45H393.42c-1.53-5.75-7.89-14.53-17.11-23.81l-53.17-49.72c-2.59-2.65-5.29-4.85-11.09-10.54a.88.88,0,0,0-1.5.6c0,1.47,0,.68,0,5.59v48.71c0,13,.49,21.08,2,29.17H281.31c1.47-7.84,2-16.42,2-29.17l1.47-67.27a153.66,153.66,0,0,0-2-27.46Z"/><path class="cls-1" d="M440.93,192l21.3-17.58,21.63,16.23c1.45,1.1,5.1,5.39,2.74,5.52-10.77.59-3.91.19-11.27.59H446.17L440.93,192Z"/><circle class="cls-2" cx="193.84" cy="128.18" r="59.81"/><circle class="cls-3" cx="193.84" cy="128.18" r="20.1"/></g></g></svg>