<svg id="Group_3" data-name="Group 3" xmlns="http://www.w3.org/2000/svg" width="702.594" height="525" viewBox="0 0 702.594 525">
  <path id="Path_162" data-name="Path 162" d="M912.84,762.193c0,2.9-2.653,5.717-7.62,8.392-25.479,13.712-111.877,23.8-214.549,23.8q-6.06,0-12.035-.05c-117.106-.906-210.135-14.95-210.135-32.144C468.5,744.413,567.967,730,690.67,730c33.6,0,65.455,1.083,94,3.014q10.762.732,20.873,1.62,4.2.361,8.285.764c12.828,1.238,24.715,2.667,35.47,4.26q7.832,1.157,14.837,2.42a228.992,228.992,0,0,1,30.248,7.245C906.252,753.271,912.84,757.623,912.84,762.193Z" transform="translate(-210.245 -269.387)" fill="#3f3d56"/>
  <path id="Path_163" data-name="Path 163" d="M547.84,536.226c0,11.724-99.467,21.226-222.17,21.226-20.278,0-39.92-.262-58.585-.75-71.986-1.868-129.417-7.118-152.547-13.854-7.16-2.08-11.038-4.309-11.038-6.623,0-2.646,5.08-5.186,14.356-7.521,5.413-1.366,12.255-2.66,20.349-3.877.064-.007.134-.014.205-.028,18.538-2.766,43.62-5.1,73.16-6.785C244.918,516.1,283.953,515,325.67,515,448.373,515,547.84,524.5,547.84,536.226Z" transform="translate(-103.5 -206.509)" fill="#3f3d56"/>
  <path id="Path_164" data-name="Path 164" d="M708.987,386.306l-16.223-4.517s-6.354-1.268-2.472-13.678,11.583-8.937,11.583-8.937l14.391,4.181,5.682,1.755-7.994,11.215-.67,7.475Z" transform="translate(-274.742 -160.807)" fill="#3f3d56"/>
  <path id="Path_165" data-name="Path 165" d="M643.811,271.33l5.09,20.33-26.079,25.275-2.242.562-5.981-1.68-5.09-20.33,5.156-5.421-5.271-1.381,11.247-10.917L626.509,279l4.707-4.673-3.178-1.27-.3-1.2,3.849-3.029Z" transform="translate(-178.219 -78.62)" fill="#3f3d56"/>
  <path id="Path_166" data-name="Path 166" d="M623.5,306.741l3.369,13.453L642.415,305.5l-3.892-13.641Z" transform="translate(-182.346 -85.355)" fill="#214252"/>
  <path id="Path_167" data-name="Path 167" d="M643.811,271.33l.714,2.851-25.932,25.227-2.242.561-5.793-1.567-.32-.008-.728-2.907,5.156-5.421-5.271-1.381,11.247-10.917L626.509,279l4.707-4.673-3.178-1.27-.3-1.2,3.849-3.029Z" transform="translate(-178.219 -78.62)" fill="none" stroke="#3f3d56" stroke-miterlimit="10" stroke-width="1"/>
  <ellipse id="Ellipse_313" data-name="Ellipse 313" cx="2.157" cy="1.464" rx="2.157" ry="1.464" transform="translate(451.166 191.557) rotate(-14.057)" fill="#214252"/>
  <ellipse id="Ellipse_314" data-name="Ellipse 314" cx="2.157" cy="1.464" rx="2.157" ry="1.464" transform="translate(434.692 213.315) rotate(-14.057)" fill="#214252"/>
  <path id="Path_168" data-name="Path 168" d="M701.933,418.527l3.538-12.028s-9.2-21.934,1.415-24.057,11.321,20.519,11.321,20.519L713.962,416.4Z" transform="translate(-278.466 -167.701)" fill="#ffb6b6"/>
  <circle id="Ellipse_315" data-name="Ellipse 315" cx="28.106" cy="28.106" r="28.106" transform="translate(461.044 171.226)" fill="#ffb6b6"/>
  <path id="Path_169" data-name="Path 169" d="M779.486,386.712s-1.653,20.666-5.786,22.319,44.639,13.226,44.639,13.226l-12.4-14.053s-2.48-21.493,3.307-26.452Z" transform="translate(-299.429 -167.541)" fill="#ffb6b6"/>
  <path id="Path_170" data-name="Path 170" d="M712.029,423.915,700.708,422.5s-13.443,7.075-13.443,16.274-7.783,24.057-7.783,24.057-5.66,19.811,7.076,21.226,24.057-21.226,24.057-21.226Z" transform="translate(-271.581 -179.458)" fill="#ebac4e"/>
  <path id="Path_171" data-name="Path 171" d="M695.066,574.408s-24.764-23.349-31.84-21.934S642,556.012,642,566.625,665.349,602,665.349,602s17.689,38.915,34.67,40.33a293.032,293.032,0,0,1,33.255,4.953s-7.783,28.3-3.538,36.085,20.519,16.981,21.934,16.274,21.226-19.1,29.717-45.283,14.151-45.991,6.368-47.406S695.066,574.408,695.066,574.408Z" transform="translate(-260.986 -217.451)" fill="#2f2e41"/>
  <path id="Path_172" data-name="Path 172" d="M643.217,569.5s-4.953-.708-4.245,11.321,2.83,55.189,6.368,63.679,4.245,18.4,2.83,21.934-4.245,9.2.708,9.906,25.472-2.123,27.594-2.83,4.245-12.736,2.83-12.736-4.953-.708-3.538-5.66,2.123-4.953,0-6.368-7.783-3.538-6.368-4.953,2.83-34.67,2.83-34.67Z" transform="translate(-260.08 -222.445)" fill="#2f2e41"/>
  <path id="Path_173" data-name="Path 173" d="M649.356,716.038s-12.028-3.538-13.443,4.245c0,0-2.123,12.028,7.076,16.274a113.683,113.683,0,0,1,16.981,9.906s14.859,5.66,15.566-1.415S672.7,712.5,672.7,712.5Z" transform="translate(-259.144 -264.269)" fill="#2b2b2b"/>
  <path id="Path_174" data-name="Path 174" d="M767.9,721.9l22.641-18.4s-4.245,22.641,1.415,26.887l2.586,7.559-7.24,5.923S765.067,740.292,767.9,721.9Z" transform="translate(-297.732 -261.637)" fill="#2f2e41"/>
  <path id="Path_175" data-name="Path 175" d="M807.65,685.436s-14.858,4.245-12.736,19.1,4.844,31,4.844,31,.816,39.754,11.429,42.584,13.443-2.83,13.443-2.83,12.064-31.065,8.491-40.33c-4.326-11.215-10.559-23.808-8.491-27.594C826.667,703.644,823.216,683.313,807.65,685.436Z" transform="translate(-305.645 -256.309)" fill="#2b2b2b"/>
  <path id="Path_176" data-name="Path 176" d="M787.366,408.545s-5.66.708-14.859,2.123-15.566-5.66-20.519-4.245S706,417.743,706,417.743l6.368,48.821s-7.783,56.6-6.368,66.509-16.981,8.491-6.368,20.519,29.009,22.641,66.509,19.1,42.453-2.83,42.453-8.491-8.491-53.774-5.66-58.019,8.491-9.2,5.66-14.151-5.66-7.783-1.415-12.028,6.368-8.491,6.368-10.613,9.906-36.792,9.906-36.792-4.245-16.981-9.2-17.689-9.2-4.245-12.736-4.245-5.66.708-7.783,0Z" transform="translate(-276.871 -174.701)" fill="#3f3d56"/>
  <path id="Path_177" data-name="Path 177" d="M735.2,338.458a21.99,21.99,0,0,0,8.428-3.58c2.054,1.985,14.7,13.431,36.43,16.753,0,0,.048-.431.173-1.159l7.447,1.271L801.45,350.4c-.069.234-.112.362-.112.362s1.97-.531,2.653-4.983q.2-1.28.475-2.545c1.108-5.054,3.8-23.268-11.455-35.441-11.1-8.862-23.9-6.066-31.99-2.684a26.43,26.43,0,0,0-14.5,14.781,20.416,20.416,0,0,0-1.313,5.165l-.317.9c-2.456.342-7.388-1.72-10.039-.744-3.623,1.334-5.4,6.8-5.769,8.437S730.422,339.086,735.2,338.458Zm46.913,5.14c1.962-5.048,5.664-10.562,12.445-10.287,7.034.285,8.267,5.87,8.019,10.647l-17.5.637Z" transform="translate(-286.44 -144.177)" fill="#2f2e41"/>
  <ellipse id="Ellipse_316" data-name="Ellipse 316" cx="1.171" cy="3.096" rx="1.171" ry="3.096" transform="translate(491.011 159.052) rotate(-80.315)" fill="#2f2e41"/>
  <circle id="Ellipse_317" data-name="Ellipse 317" cx="18.5" cy="18.5" r="18.5" transform="translate(244)" fill="#ce6262"/>
  <path id="Path_178" data-name="Path 178" d="M428.46,223.394a290.479,290.479,0,0,1-7.273-51.352c-.62-15.434.626-28.313,3.7-38.279,3.886-12.593,10.72-20.571,20.311-23.713l.441,1.345c-20.779,6.807-24,36.706-23.039,60.591a288.917,288.917,0,0,0,7.232,51.065Z" transform="translate(-196.363 -88.081)" fill="#2f2e41"/>
  <path id="Path_179" data-name="Path 179" d="M540.269,463.07c-9.777,12.828,1.429,37.81,1.429,37.81s27.059,4.183,36.836-8.645-1.429-37.81-1.429-37.81S550.046,450.242,540.269,463.07Z" transform="translate(-230.063 -188.604)" fill="#214252"/>
  <path id="Path_180" data-name="Path 180" d="M277.519,484.105c8.1,9.438,28.734,5.014,28.734,5.014s7.514-19.725-.582-29.162-28.734-5.014-28.734-5.014S269.423,474.668,277.519,484.105Z" transform="translate(-153.294 -188.643)" fill="#214252"/>
  <path id="Path_181" data-name="Path 181" d="M490.484,528.992c-79.113-43.02-141.46-40.737-179.828-31.244-41.534,10.275-64.649,30.939-64.877,31.146l-.951-1.047c.231-.21,23.612-21.112,65.488-31.472,24.58-6.08,50.639-7.4,77.461-3.929,33.5,4.34,68.285,16.218,103.383,35.3Z" transform="translate(-144.832 -199.361)" fill="#888"/>
  <rect id="Rectangle_17" data-name="Rectangle 17" width="1.415" height="88.837" transform="translate(222.524 203.066)" fill="#888"/>
  <ellipse id="Ellipse_318" data-name="Ellipse 318" cx="51" cy="50.5" rx="51" ry="50.5" transform="translate(173 178)" fill="#ce6262"/>
  <ellipse id="Ellipse_319" data-name="Ellipse 319" cx="38.5" cy="38" rx="38.5" ry="38" transform="translate(185 105)" fill="#ebac4e"/>
  <circle id="Ellipse_320" data-name="Ellipse 320" cx="29.5" cy="29.5" r="29.5" transform="translate(194 50)" fill="#214252"/>
</svg>
